<?xml version="1.0" encoding="UTF-8"?>
<svg id="Layer_1" data-name="Layer 1" xmlns="http://www.w3.org/2000/svg" viewBox="0 0 516.16 433.27">
  <defs>
    <style>
      .cls-1 {
        fill: #000;
      }

      .cls-1, .cls-2, .cls-3, .cls-4 {
        stroke-width: 0px;
      }

      .cls-2 {
        fill: #fff;
      }

      .cls-3 {
        fill: #fbb907;
      }

      .cls-4 {
        fill: #0f1111;
      }
    </style>
  </defs>
  <g>
    <path class="cls-4" d="M500.09,181.06s0-.01-.01-.02c-.31-.45-.65-.91-.98-1.37-.1-.14-.2-.28-.31-.43-.15-.2-.3-.4-.45-.61-.13-.18-.28-.36-.41-.54-.18-.24-.35-.47-.54-.71-.19-.24-.38-.49-.57-.73-.31-.39-.62-.79-.94-1.19-.08-.1-.16-.2-.25-.31-.01-.02-.03-.04-.04-.05-.07-.09-.14-.17-.21-.26-.03-.03-.05-.06-.08-.1-.01-.01-.02-.03-.04-.04-.26-.32-.53-.65-.8-.98-.07-.09-.15-.18-.22-.26,0,0,0,0,0-.01-.2-.24-.4-.49-.6-.73-.39-.46-.78-.93-1.18-1.4-.02-.03-.05-.06-.07-.08-.37-.44-.75-.88-1.13-1.32,0,0,0,0-.01-.01-.25-.29-.5-.58-.75-.88-.07-.08-.14-.17-.22-.25-.39-.45-.79-.91-1.19-1.36,0,0,0,0,0,0-.19-.21-.37-.43-.56-.64-.01-.01-.02-.03-.04-.04-.84-.96-1.71-1.95-2.59-2.95,0,0,0,0,0-.01,0,0-.01-.01-.02-.02-.1-.11-.2-.23-.3-.34-.81-.91-1.62-1.84-2.46-2.79-.59-.66-1.19-1.35-1.79-2.03-.13-.15-.26-.29-.39-.44-.73-.83-1.48-1.68-2.23-2.54-.17-.19-.33-.38-.5-.57-.12-.14-.23-.26-.35-.4-.18-.21-.37-.43-.56-.64-.25-.29-.51-.6-.77-.89-.62-.72-1.24-1.44-1.87-2.18-.29-.34-.57-.66-.86-1-.2-.24-.41-.48-.62-.72-.09-.11-.19-.23-.28-.34-.99-1.17-1.99-2.36-3-3.58-.08-.1-.16-.19-.24-.29-.9-1.09-1.81-2.2-2.73-3.33-.05-.06-.1-.13-.15-.19-.32-.4-.65-.81-.98-1.22-.5-.63-1-1.24-1.51-1.88-.02-.03-.04-.06-.06-.08-.5-.64-1.01-1.29-1.51-1.94-.37-.47-.73-.93-1.1-1.4,0,0,0,0,0,0-.1-.13-.2-.26-.3-.39-.52-.68-1.05-1.37-1.58-2.07-.09-.12-.19-.25-.28-.38,0,0,0,0,0,0-.66-.87-1.31-1.75-1.97-2.65,0-.01-.02-.02-.03-.03-.19-.26-.39-.53-.58-.8-.02-.03-.04-.05-.06-.08-.41-.56-.82-1.12-1.23-1.69-.05-.07-.1-.14-.15-.21,0-.01-.02-.02-.02-.03-.21-.29-.41-.58-.62-.87,0,0-.01-.02-.02-.03-.49-.69-.99-1.39-1.48-2.1,0,0,0-.01-.01-.02-.17-.25-.35-.49-.52-.74,0,0,0,0,0,0-.67-.96-1.34-1.93-2.01-2.91,0,0,0,0,0,0-.12-.18-.24-.35-.36-.53-.07-.11-.14-.22-.22-.32-.43-.64-.86-1.27-1.29-1.92,0-.01-.02-.03-.03-.04-.12-.19-.25-.38-.37-.57,0,0,0,0,0,0-.82-1.25-1.65-2.52-2.47-3.81,0,0,0,0,0,0-.27-.42-.53-.83-.8-1.26-.14-.22-.27-.43-.41-.65-.19-.3-.37-.59-.56-.89-.09-.15-.18-.3-.27-.45-.28-.45-.56-.91-.84-1.37-.14-.23-.28-.46-.43-.69-.15-.24-.29-.49-.43-.73-.43-.72-.86-1.44-1.29-2.17-.23-.4-.47-.79-.7-1.19-.66-1.13-1.32-2.28-1.98-3.44,0,0-.01-.02-.02-.03l-.02-.15s0,0,0,0c-.01,0-.02,0-.03,0,0-.01,0-.03-.01-.04,0,0,0-.01,0-.02,0,0,0,0,0,0h0s0,0,0,0v.03s0,0,0,0h0s0,0,0,0h0s0,0,0-.01c-.4-1.19-.8-2.37-1.22-3.54-.07-.2-.15-.4-.22-.6-.03-.09-.07-.18-.1-.28-.39-1.09-.8-2.15-1.2-3.22-.09-.23-.17-.47-.26-.7,0,0,0,0,0,0,0,0,0,0,0,0,0,0,0,0,0,0-.36-.94-.74-1.86-1.12-2.78-.14-.35-.28-.71-.43-1.06-.02-.06-.05-.12-.07-.17-.33-.79-.66-1.58-1-2.36-.07-.16-.15-.32-.22-.49-.03-.06-.06-.13-.08-.19-.14-.31-.27-.61-.41-.92-.22-.5-.44-1.01-.67-1.51-.11-.24-.22-.46-.33-.7-.09-.2-.19-.41-.29-.61-.04-.08-.07-.15-.11-.23-.05-.11-.11-.22-.16-.34-.18-.39-.36-.78-.55-1.16-.15-.31-.3-.61-.45-.91h0s-.03-.06-.04-.09c-.18-.36-.36-.72-.54-1.08-.34-.68-.69-1.36-1.04-2.03-.19-.37-.39-.74-.58-1.11-.08-.16-.17-.32-.25-.48-.03-.05-.06-.11-.09-.16-.26-.48-.53-.95-.79-1.42-.18-.32-.36-.65-.54-.97,0,0,0,0,0-.01,0,0,0,0,0,0-.37-.65-.74-1.28-1.11-1.91-.06-.11-.13-.22-.19-.33,0,0,0,0,0-.01-.14-.23-.27-.47-.41-.7-1.18-1.97-2.4-3.88-3.65-5.74-.15-.23-.31-.44-.46-.67-.47-.69-.95-1.37-1.43-2.04-.21-.3-.43-.59-.65-.89-.19-.26-.38-.51-.56-.76-.24-.33-.48-.66-.73-.98,0,0,0-.01-.01-.02-.24-.32-.48-.63-.73-.94,0,0,0,0,0-.01-.42-.54-.83-1.07-1.26-1.59,0,0,0-.01-.01-.02-.26-.32-.51-.63-.77-.95,0,0,0,0,0,0-.15-.18-.3-.36-.45-.54-.28-.34-.56-.67-.84-1.01-.26-.31-.52-.61-.79-.92-.13-.15-.26-.31-.4-.46,0,0-.01-.02-.02-.02-.31-.36-.63-.7-.95-1.05-.25-.28-.51-.56-.76-.84-.09-.1-.18-.21-.28-.31,0,0,0,0,0,0-.41-.44-.83-.87-1.25-1.31-.22-.22-.43-.45-.65-.68-.72-.73-1.44-1.45-2.18-2.16-.02-.02-.03-.03-.05-.05,0,0,0,0,0,0,0,0,0,0,0,0,0,0,0,0-.01-.01-.02-.02-.05-.05-.07-.07,0,0,0,0,0,0-.65-.63-1.32-1.24-1.98-1.85,0,0,0,0-.01-.01-.06-.05-.12-.11-.18-.16-.07-.07-.15-.13-.23-.2-.57-.51-1.15-1.02-1.73-1.52,0,0,0,0,0,0-.09-.07-.17-.15-.26-.22,0,0,0,0,0,0-.64-.54-1.29-1.08-1.94-1.6,0,0,0,0-.01,0-.11-.09-.22-.18-.32-.26-.53-.43-1.07-.84-1.61-1.26-.11-.08-.21-.17-.32-.25,0,0,0,0-.01,0-.13-.1-.25-.19-.38-.29-.15-.11-.3-.22-.45-.33-.49-.37-.99-.73-1.49-1.09,0,0,0,0,0,0-.14-.1-.29-.2-.43-.31,0,0,0,0,0,0-.26-.19-.53-.37-.8-.55-.38-.26-.76-.53-1.15-.79-.16-.1-.31-.21-.47-.31-.65-.43-1.31-.86-1.97-1.28-.17-.1-.33-.21-.5-.31,0,0,0,0-.01,0-.65-.41-1.31-.81-1.97-1.2,0,0,0,0,0,0-.17-.1-.35-.2-.52-.31,0,0,0,0-.01,0-.66-.39-1.33-.77-2-1.14,0,0,0,0,0,0-.18-.1-.36-.19-.53-.29-.51-.28-1.02-.55-1.54-.82-.17-.09-.34-.18-.51-.27,0,0,0,0,0,0,0,0,0,0,0,0-.18-.09-.36-.18-.54-.28-.12-.06-.25-.12-.38-.19-.57-.29-1.14-.57-1.71-.85,0,0,0,0,0,0-.18-.09-.36-.17-.54-.26-.61-.29-1.23-.57-1.85-.85-.1-.04-.2-.09-.3-.14,0,0,0,0,0,0-.17-.08-.35-.15-.52-.23-.74-.32-1.48-.64-2.23-.95-.16-.07-.32-.13-.49-.2,0,0-.02,0-.03-.01-.76-.31-1.51-.61-2.28-.9,0,0,0,0,0,0-.14-.05-.27-.1-.41-.15-.81-.3-1.62-.6-2.45-.89-.09-.03-.18-.06-.26-.09-.02,0-.03-.01-.05-.02-.86-.29-1.72-.58-2.58-.86-.02,0-.04-.01-.07-.02-.45-.14-.92-.27-1.38-.41-.55-.17-1.1-.33-1.65-.49,0,0,0,0,0,0,0,0,0,0,0,0-1.02-.29-2.06-.57-3.1-.84-.02,0-.04-.01-.06-.02-.56-.14-1.11-.29-1.68-.43-.27-.06-.52-.14-.79-.2-.86-.2-1.74-.38-2.61-.56-.51-.11-1.01-.23-1.52-.33,0,0,0,0,0,0,0,0-.02,0-.02,0-1.62-.32-3.25-.63-4.91-.89-.03,0-.06-.01-.09-.02-.13-.02-.26-.04-.39-.07,0,0,0,0,0,0-.5-.08-1-.15-1.5-.22-.32-.05-.64-.1-.97-.14-.27-.04-.53-.08-.8-.11-.24-.03-.48-.06-.72-.09-.51-.06-1.01-.13-1.52-.19-.02,0-.04,0-.05,0-.34-.04-.69-.08-1.03-.12,0,0,0,0-.01,0-.04,0-.07,0-.11-.01-.67-.07-1.34-.14-2.02-.2,0,0,0,0,0,0-.01,0-.03,0-.04,0-.4-.04-.8-.08-1.2-.11-.7-.06-1.4-.11-2.11-.16-.44-.03-.88-.07-1.33-.1-.69-.04-1.38-.08-2.07-.12-.47-.02-.94-.05-1.41-.07-.36-.02-.72-.03-1.09-.04-.31-.01-.61-.02-.92-.03-.01,0-.02,0-.04,0-.5-.02-.99-.03-1.5-.04-.67-.02-1.34-.02-2.02-.03-.52,0-1.05-.01-1.57-.01,0,0-.01,0-.02,0-.65,0-1.3,0-1.96,0,0,0-.02,0-.02,0-.55,0-1.1,0-1.65.02,0,0-.01,0-.02,0-.65.01-1.3.03-1.95.05,0,0-.02,0-.02,0-.57.02-1.13.03-1.7.05,0,0-.01,0-.02,0-.16,0-.33.01-.49.02-.49.02-.99.04-1.48.06-.58.03-1.17.06-1.76.09,0,0-.01,0-.02,0-.2.01-.41.02-.62.04-.45.03-.9.05-1.35.08-.6.04-1.21.08-1.82.13,0,0-.01,0-.02,0-.33.02-.66.05-.99.08-.32.02-.64.05-.97.08-.62.05-1.25.11-1.87.16,0,0-.02,0-.02,0-.41.04-.83.08-1.25.12-.24.02-.47.04-.71.07-.64.06-1.28.13-1.92.2,0,0-.02,0-.03,0-.2.02-.39.04-.59.07-.45.05-.91.1-1.36.15-.66.08-1.32.16-1.98.24-.66.08-1.32.16-1.98.25-.68.09-1.36.19-2.04.28-.41.06-.83.12-1.24.18-.24.03-.47.07-.71.1,0,0,0,0-.01,0-.7.1-1.4.21-2.11.32-.14.02-.29.05-.43.07-.5.08-1.01.16-1.52.24,0,0,0,0-.01,0-.72.12-1.45.24-2.17.37-.65.11-1.29.22-1.95.34-.74.13-1.49.28-2.24.42-.01,0-.03,0-.04,0-.63.12-1.25.23-1.88.35,0,0,0,0-.01,0-.77.15-1.56.31-2.34.47-.01,0-.02,0-.04,0-.16.03-.33.07-.49.1-.45.09-.91.18-1.36.28-.71.15-1.42.3-2.13.46-.12.03-.24.05-.36.08-.52.11-1.03.22-1.56.33-.08.02-.16.04-.24.05-.1.02-.21.05-.31.07-.78.18-1.56.36-2.35.54-.01,0-.02,0-.03,0-.55.13-1.09.25-1.64.38,0,0,0,0,0,0-.99.23-1.99.48-3,.73,0,0-.02,0-.03,0,0,0-.01,0-.02,0-.45.11-.89.21-1.34.33,0,0,0,0,0,0-1.47.37-2.95.75-4.44,1.14-.57-.16-1.13-.31-1.69-.46-.83-.23-1.66-.46-2.48-.68-.03,0-.05-.01-.08-.02,0,0-.02,0-.03,0-1.35-.36-2.69-.7-4.03-1.04,0,0,0,0,0,0-.21-.05-.42-.1-.63-.15-.24-.06-.49-.12-.73-.18-.89-.22-1.77-.43-2.65-.64,0,0,0,0,0,0-.29-.07-.58-.13-.87-.2-.25-.06-.51-.12-.76-.17-.78-.18-1.57-.36-2.34-.53,0,0,0,0-.01,0-.24-.05-.48-.1-.73-.16-.34-.07-.67-.14-1.01-.22-.73-.16-1.47-.31-2.2-.46,0,0,0,0-.01,0-.56-.11-1.11-.22-1.67-.33-.04,0-.09-.02-.13-.03-.7-.14-1.39-.27-2.08-.4-.34-.06-.67-.12-1-.18-.28-.05-.56-.1-.84-.15,0,0-.01,0-.02,0-.67-.12-1.33-.24-2-.35,0,0-.01,0-.02,0,0,0,0,0,0,0,0,0,0,0-.01,0-.62-.11-1.24-.21-1.85-.31,0,0-.01,0-.02,0-.64-.1-1.27-.2-1.91-.3-.65-.1-1.3-.2-1.95-.29-.6-.09-1.2-.17-1.81-.25-.67-.09-1.34-.18-2-.27-.57-.07-1.13-.14-1.69-.21-.23-.03-.45-.05-.68-.08-.46-.06-.93-.11-1.39-.16,0,0,0,0-.01,0-.5-.06-1-.1-1.5-.16-.7-.07-1.4-.15-2.1-.21-.04,0-.08,0-.11-.01,0,0,0,0-.01,0-.37-.03-.74-.06-1.11-.1-.03,0-.06,0-.09,0-.04,0-.07,0-.11,0-.23-.02-.46-.03-.7-.05-1.24-.1-2.47-.19-3.7-.26-.07,0-.14-.01-.2-.01-1.23-.08-2.45-.14-3.67-.19-.05,0-.1,0-.15,0-1.22-.05-2.45-.11-3.66-.14-.04,0-.07,0-.11,0-.03,0-.07,0-.1,0-.15,0-.31,0-.46-.01,0,0-.01,0-.02,0-.62-.01-1.24-.02-1.86-.02-.29,0-.59,0-.88,0-.24,0-.48,0-.71,0-.19,0-.37,0-.55,0-.69,0-1.37,0-2.06.02,0,0,0,0,0,0,0,0-.02,0-.02,0-.26,0-.52,0-.78.01,0,0,0,0-.01,0-.11,0-.22,0-.33,0-.76.02-1.51.04-2.26.06-.25,0-.51.02-.76.03-.09,0-.17,0-.26.01-.78.03-1.55.07-2.32.11,0,0-.02,0-.02,0-.23.01-.46.03-.7.04-.89.05-1.77.11-2.65.18-.19.02-.39.03-.58.05,0,0-.01,0-.02,0-.9.07-1.8.15-2.69.24,0,0,0,0-.01,0-.14.01-.28.03-.42.04,0,0-.01,0-.02,0-.94.1-1.89.2-2.82.31,0,0,0,0,0,0-.05,0-.09.01-.14.02,0,0-.02,0-.03,0-.12.02-.24.03-.37.05-.09.01-.18.03-.28.04-.99.13-1.98.26-2.97.4-.09.01-.18.02-.27.04-.01,0-.03,0-.04,0-.52.08-1.04.17-1.56.26-.57.09-1.14.18-1.71.28-.17.03-.34.05-.51.08-.07.01-.14.03-.2.04-.37.07-.74.14-1.11.21-.58.11-1.16.22-1.73.34-.24.05-.48.09-.72.14-.06.01-.12.03-.19.04-.25.05-.5.12-.76.17-.71.15-1.42.31-2.12.48-.44.1-.87.2-1.31.31-.17.04-.35.08-.52.12-.56.14-1.11.29-1.67.43-.42.11-.84.22-1.25.33-.36.1-.73.2-1.09.3-.31.09-.61.18-.92.27-.1.03-.19.06-.29.08-.35.1-.71.2-1.05.31-.62.19-1.24.39-1.85.59-.3.1-.61.19-.91.29-.17.06-.35.11-.52.17-1.16.39-2.32.8-3.46,1.22,0,0,0,0,0,0,0,0,0,0,0,0,0,0,0,0,0,0-1.09.41-2.17.83-3.25,1.26,0,0,0,0,0,0,0,0,0,0,0,0,0,0,0,0,0,0-.33.13-.65.28-.97.41-.84.35-1.67.69-2.5,1.06-.2.09-.38.18-.58.27-.13.06-.26.12-.4.18-.81.37-1.63.74-2.43,1.13-1.53.74-3.02,1.53-4.51,2.34-.01,0-.02.01-.03.02-1.2.65-2.38,1.34-3.55,2.03-.18.11-.37.21-.55.32-.3.18-.58.38-.88.56-.85.52-1.69,1.06-2.52,1.6-.29.19-.6.37-.89.57-.14.09-.28.2-.42.29,0,0,0,0,0,0-1.17.79-2.33,1.61-3.47,2.45-.09.06-.18.12-.27.19-.24.18-.46.37-.7.54,0,0,0,0-.01.01-.91.69-1.81,1.38-2.7,2.1-.2.16-.41.31-.61.48-.15.13-.3.26-.46.39,0,0,0,0,0,0-1.16.95-2.3,1.92-3.43,2.93,0,0,0,0,0,0-.04.03-.08.07-.11.1,0,0,0,0,0,0-.55.49-1.09,1-1.63,1.5-.09.09-.19.17-.28.26-.1.1-.21.19-.31.29-.59.56-1.18,1.13-1.76,1.71-.14.13-.27.27-.41.4,0,0,0,0,0,0-.56.56-1.11,1.12-1.66,1.69,0,0,0,0,0,0-.15.16-.31.32-.46.49h0c-.53.56-1.06,1.12-1.58,1.7,0,0,0,0,0,0-.16.18-.33.36-.49.54h0c-.51.57-1.02,1.14-1.52,1.72,0,0,0,0,0,0-.16.19-.32.38-.48.56,0,0,0,0,0,0-.02.03-.04.05-.07.08-.48.56-.95,1.12-1.42,1.7h0c-.15.18-.29.37-.44.55-.5.62-1,1.24-1.49,1.87-.1.12-.19.25-.29.38,0,.01-.02.02-.03.03,0,0-.01.02-.02.03-.82,1.06-1.62,2.16-2.41,3.27-.07.1-.15.19-.22.29-.05.07-.11.14-.16.22-.47.66-.93,1.34-1.39,2.01-.02.03-.04.06-.06.08,0,0,0,.01-.01.02-.67.98-1.35,1.95-2,2.96-.01.02-.02.04-.04.05-.19.29-.38.59-.57.88h0c-.22.35-.43.69-.64,1.04-.12.19-.24.38-.35.57-.25.4-.49.8-.73,1.2-.31.51-.61,1.03-.91,1.54-.26.44-.52.89-.77,1.34-.28.5-.56,1.01-.84,1.51-.26.48-.53.96-.79,1.44-.05.09-.1.19-.15.28-.21.4-.43.8-.64,1.21,0,0,0,0,0,0-.27.51-.53,1.02-.79,1.53,0,0,0,0,0,0-.25.49-.5.98-.74,1.48,0,0,0,0,0,0-.27.54-.53,1.08-.79,1.63-.23.49-.47.97-.7,1.47-.27.57-.53,1.15-.79,1.73-.22.48-.43.96-.65,1.44-.27.61-.54,1.23-.8,1.85,0,0,0,0,0,0-.13.3-.26.6-.38.9-.07.16-.14.32-.21.49-.28.67-.55,1.34-.82,2.01-.17.43-.35.86-.52,1.3-.31.78-.6,1.56-.9,2.35-.13.34-.26.68-.39,1.03-.42,1.15-.84,2.3-1.25,3.47h0s0,0,0,0c0,0-.05.1-.14.29-.09.17-.21.42-.37.74-.02.03-.04.07-.05.11-.23.45-.52,1.03-.88,1.72-.19.37-.4.77-.63,1.21-.15.29-.31.59-.47.9-.31.59-.64,1.22-1,1.9-.03.05-.05.09-.08.14-.52.98-1.09,2.06-1.7,3.21-.02.04-.04.08-.07.12-1.17,2.19-2.5,4.65-3.98,7.31-.49.89-1,1.8-1.52,2.73-1.04,1.86-2.14,3.81-3.29,5.82-.58,1-1.16,2.02-1.76,3.05s-1.21,2.07-1.83,3.13c-.11.19-.23.38-.34.58-.64,1.09-1.3,2.19-1.97,3.3-.49.81-.98,1.62-1.47,2.43-2.67,4.37-5.47,8.82-8.37,13.18-.02.02-.03.05-.05.07-.72,1.09-1.45,2.17-2.18,3.24-.2.3-.4.59-.61.89-.62.9-1.24,1.79-1.86,2.68-.17.24-.34.48-.52.73-.22.32-.45.64-.67.95-.06.09-.13.18-.19.27-.33.46-.66.92-1,1.38-.19.27-.39.53-.58.79-.2.28-.41.56-.61.84-.76,1.02-1.52,2.03-2.28,3.02-.04.05-.08.1-.12.15-.23.3-.47.6-.7.9-.17.21-.33.43-.5.64-.13.17-.26.33-.39.5-.27.34-.54.68-.8,1.01-.13.16-.26.32-.39.48-.27.33-.54.66-.81.99-.22.27-.44.53-.67.8-.18.21-.35.43-.53.63-.17.2-.34.39-.5.59-.23.27-.46.54-.69.8-.23.26-.45.51-.68.77-.17.19-.34.39-.51.57-.64.71-1.27,1.4-1.91,2.06-.15.16-.3.32-.45.48-.24.25-.48.49-.72.74-.15.15-.3.31-.45.46-.26.26-.52.51-.78.77-.13.12-.25.25-.38.37-.19.18-.38.35-.56.53-.2.19-.4.38-.59.56-.19.18-.38.34-.58.52-.19.17-.38.34-.57.51-.27.24-.54.47-.82.69-.11.09-.21.18-.32.27,0,0,0,0,0,0,0,0,0,0,0,0h0s1.39,3.08,3.55,7.85c0,0,0,0,0,0,.15.33.31.68.47,1.03.03.07.06.13.09.2.02.05.05.11.07.16.05.1.09.21.14.31.1.23.22.48.32.71.16.36.32.72.49,1.09.07.16.14.32.21.47.23.5.46,1.01.69,1.53.02.04.03.08.05.12.15.33.31.68.46,1.02.12.26.23.51.35.77.07.16.14.32.22.49.19.42.38.84.58,1.27.05.11.1.23.15.34.03.07.06.14.1.21.13.29.26.58.4.87.09.19.17.38.26.57.03.06.05.12.08.18.02.04.04.09.06.13.29.65.59,1.3.89,1.96.02.04.04.08.05.12.06.13.12.26.18.39.06.12.11.25.17.37.08.17.15.33.23.5.13.28.25.56.38.84.09.2.18.4.27.6.04.08.07.16.11.23.05.11.1.23.16.34.04.09.08.18.12.27.05.11.1.23.16.34.61,1.34,1.23,2.7,1.85,4.07.01.03.02.05.04.08.19.42.38.83.57,1.25,0,.01,0,.02.01.03h0c.02.06.05.11.07.17.09.21.19.41.28.62.02.05.04.1.07.15.04.08.07.16.11.24.1.21.19.42.29.63.1.22.2.45.31.67.1.22.2.43.3.65.04.09.08.18.13.28.15.32.3.65.44.97,0,.02.02.04.03.06.37.8.73,1.6,1.09,2.39,0,.02.02.04.03.06.02.04.04.08.06.13,0,0,0,0,0,.01,0,.01.01.02.02.04.28.6.55,1.2.82,1.8.16.36.33.71.49,1.07.01.02.02.05.03.07.17.37.34.73.5,1.1.01.03.02.05.04.08.43.94.86,1.87,1.28,2.78.04.08.08.17.11.25,0,.02.02.04.03.06,0,0,0,0,0,.01,0,0,0,.01,0,.02.02.05.05.1.07.15.21.45.4.88.61,1.31.17.37.35.75.52,1.12,0,0,0,.02.01.02.01.03.03.06.04.09.04.08.07.16.11.23.11.24.22.48.33.72.21.46.42.91.63,1.36,0,0,0,0,0,0,0,.02,0,.04,0,.06-.19,1.61-.36,3.2-.5,4.79-.04.47-.08.93-.12,1.4,0,0,0,0,0,0-.03.39-.06.78-.09,1.17-.06.82-.13,1.64-.18,2.45-.03.42-.06.85-.08,1.27h0s0,.03,0,.05c-.08,1.46-.14,2.91-.18,4.35-.04,1.43-.07,2.86-.07,4.27h0c0,.13,0,.26,0,.38,0,.17,0,.34,0,.51h0c0,.27,0,.53,0,.79,0,.9.03,1.79.04,2.69,0,.5,0,1.01.02,1.51,0,0,0,0,0,0,0,.19,0,.38.02.56.1,3.25.3,6.45.57,9.6,0,.03,0,.06,0,.09h0c.13,1.46.28,2.9.44,4.33.02.13.03.27.04.41,0,0,0,0,0,0,.11.96.23,1.92.36,2.87,0,0,0,0,0,0,0,.05.01.09.02.14,0,0,0,0,0,0,.22,1.62.46,3.22.72,4.81,0,0,0,0,0,0,.02.13.04.27.06.4.07.41.15.82.22,1.23.18,1.04.37,2.08.56,3.11.05.25.09.51.14.76.1.5.21.99.31,1.49.11.54.22,1.07.33,1.6.05.25.1.51.16.76.08.36.16.7.24,1.06.05.21.1.42.15.63.05.21.1.42.15.63.07.3.13.59.2.88.05.19.09.39.13.58,0,.01,0,.02,0,.03.16.64.32,1.27.48,1.9.12.46.23.92.35,1.37.04.13.07.27.1.4.15.56.31,1.11.46,1.67.06.21.12.43.18.64.1.36.2.73.3,1.09.02.08.04.16.07.24.23.78.46,1.55.7,2.32.1.35.21.7.31,1.04.01.04.02.07.03.11,0,.03.02.06.03.09.2.64.41,1.26.61,1.89.17.53.34,1.07.52,1.6.02.05.03.09.05.14.05.16.11.32.16.48.11.32.22.64.33.96.21.61.42,1.23.63,1.83.03.1.07.19.11.29.12.33.24.66.36.99.04.12.09.23.13.35.21.57.41,1.14.62,1.7.06.15.11.29.17.44.14.38.29.75.44,1.13.07.18.14.36.21.53.15.38.3.77.45,1.15.08.2.16.39.24.59.16.39.32.77.47,1.16.07.17.14.35.21.52.13.3.25.61.37.91.1.25.21.49.32.74.16.39.33.77.49,1.15.07.16.14.33.21.49.1.24.21.48.31.72.13.3.27.59.4.89.17.37.33.74.5,1.1,0,0,0,.01,0,.02.15.34.3.68.46,1.01.16.35.33.69.49,1.04.16.35.33.69.49,1.04.03.07.06.14.1.21.1.22.21.44.31.65.2.41.4.8.6,1.21.14.28.28.57.42.85.01.03.03.06.04.09.12.23.23.47.35.71.24.47.48.93.72,1.39.14.27.28.54.42.81.1.19.19.38.29.57.29.55.58,1.08.87,1.62.03.06.07.13.1.19.08.14.16.29.23.44.08.14.15.29.23.43.35.64.7,1.27,1.05,1.9.02.03.03.06.05.09.03.05.06.1.08.15.03.05.05.1.08.15.06.1.11.21.17.31.33.58.65,1.14.98,1.71.15.27.31.54.46.81.37.63.74,1.25,1.11,1.87.11.18.22.37.33.55.38.63.76,1.25,1.15,1.87.1.15.19.31.29.47.35.56.69,1.1,1.04,1.64.13.2.26.41.38.61.08.13.16.25.24.37.04.06.07.11.11.17.2.32.41.63.61.94.15.23.3.46.44.68.1.16.21.31.31.46.08.11.15.23.23.34.22.33.44.67.66.99.06.09.12.18.18.27.13.19.26.37.39.56.09.13.18.26.27.39.14.2.27.4.41.59.1.14.2.29.3.43.15.22.3.43.45.64.1.14.2.28.3.42.09.13.18.26.27.38.1.14.21.29.31.44.18.25.35.48.52.72.1.14.2.27.3.41.15.2.3.41.44.61.01.01.02.03.03.04.2.27.4.53.59.8.1.13.19.26.28.38.05.07.11.15.16.22.07.1.15.2.22.3.22.29.43.57.65.85.09.12.18.24.27.36.1.13.2.26.29.38.24.31.48.61.71.91.04.06.09.11.13.17.04.05.07.1.11.14,0,0,.01.02.02.03.06.08.13.16.19.24.26.33.52.65.77.97.07.09.14.18.21.26.04.05.09.11.13.17.28.35.55.67.82,1,.01.01.02.03.03.04.01.02.03.03.04.05.04.04.07.09.11.13.02.03.05.06.07.08.27.33.53.63.78.94.07.08.14.17.21.26,0,0,0,.01.01.02h0s.01.02.02.03c.22.27.44.52.65.77,0,0,0,0,0,0,.02.03.04.05.07.08.37.43.72.84,1.06,1.22.07.09.15.17.22.25.33.37.64.73.93,1.05,0,0,0,0,.01.01,0,.01.02.02.03.03.01.02.03.03.04.05,0,0,0,0,.01.01h0s0,0,0,0c.14.15.27.3.4.44,0,0,.01.01.02.02.03.03.06.06.09.09,0,0,.01.01.02.02.12.13.24.26.35.38,0,0,0,.01.01.01.02.02.04.05.06.07.01.01.02.03.04.04.11.11.21.23.31.33.02.02.04.04.05.06.07.07.12.12.18.19.08.08.15.16.22.23.04.04.09.09.12.13.03.03.06.07.09.1.06.06.11.11.16.16.01.01.02.02.03.03.02.02.05.05.07.07.04.04.07.07.1.1,0,0,.02.02.03.03,0,0,0,0,0,0,0,0,.01.01.02.02.02.02.04.04.06.06,0,0,.01.01.02.02.03.03.05.05.08.08,0,0,.01.01.02.02,0,0,0,0,0,0,.02.02.03.03.04.04.01.01.02.02.03.03l.02.02h0s.03.03.03.03h0s.08-.06.12-.1c.77-.6,1.54-1.19,2.3-1.77.28-.21.55-.41.82-.62.53-.4,1.06-.8,1.58-1.19,0,0,0,0,.01,0,.17-.12.33-.25.5-.37.14-.11.29-.21.43-.32.48-.35.95-.7,1.43-1.05.32-.23.64-.46.95-.69,0,0,0,0,0,0,0,0,.01,0,.02-.01.46-.33.91-.66,1.37-.98.14-.1.28-.2.42-.3.18-.12.35-.25.53-.37,0,0,0,0,.01,0,.46-.33.93-.65,1.39-.96,0,0,0,0,0,0,.22-.15.44-.3.66-.46.07-.05.14-.1.21-.15h0s0,0,0,0c.5-.34.99-.67,1.49-1l.03-.02s0,0,0,0c0,0,0,0,.01,0,.23-.16.47-.32.7-.47.72-.48,1.43-.94,2.14-1.4.04-.03.08-.05.12-.08.71-.45,1.41-.9,2.1-1.33.05-.03.09-.06.14-.09.18-.11.37-.23.55-.34,0,0,.02,0,.02-.01.47-.29.95-.58,1.42-.87,0,0,0,0,0,0,.27-.16.54-.32.81-.48,0,0,0,0,0,0,.43-.26.86-.51,1.29-.76.08-.05.16-.09.25-.14.2-.11.4-.23.59-.34,0,0,0,0,0,0,0,0,0,0,0,0,.42-.24.83-.47,1.24-.7.24-.13.47-.26.71-.39.04-.02.08-.04.12-.07,0,0,0,0,0,0,.42-.23.83-.45,1.24-.68.26-.14.52-.28.78-.42.45-.24.89-.46,1.33-.69.22-.11.43-.23.65-.33.65-.33,1.29-.65,1.93-.95,0,0,0,0,.01,0,.87-.42,1.72-.81,2.56-1.19.04-.02.09-.04.13-.06.22-.1.45-.2.67-.3,0,0,0,0,0,0h0c.16-.07.31-.13.46-.2.72-.31,1.44-.62,2.14-.91,0,0,0,0,0,0,0,0,0,0,0,0,.64-.26,1.28-.51,1.91-.75.29-.11.57-.21.86-.31.19-.07.37-.14.56-.2.78-.28,1.56-.55,2.32-.79.1-.03.2-.06.29-.09.16-.05.31-.09.46-.14.81-.25,1.6-.48,2.39-.69.1-.03.21-.06.31-.08.63-.17,1.26-.32,1.89-.47.2-.05.39-.08.59-.13,0,0,0,0,0,0,.15-.03.31-.07.46-.1.02,0,.05-.01.07-.02,0,0,0,0,0,0,0,0,0,0,0,0,.76-.16,1.52-.31,2.27-.43.04,0,.09-.01.13-.02.1-.02.19-.03.29-.04.73-.11,1.46-.21,2.17-.29.14-.02.28-.03.42-.05.09,0,.17-.02.26-.03.67-.06,1.32-.11,1.97-.14,0,0,0,0,0,0h0c.05,0,.1,0,.15,0,.1,0,.21,0,.31-.01.75-.03,1.49-.05,2.22-.04.01,0,.02,0,.04,0,.48,0,.95.02,1.41.04.04,0,.08,0,.12,0,0,0,.01,0,.02,0,0,0,.01,0,.02,0,.28.01.55.04.82.06.23.02.46.03.68.05,0,0,0,0,0,0,.43.04.85.09,1.27.14.4.05.79.11,1.19.18,0,0,0,0,0,0,0,0,0,0,0,0h0c.71.12,1.42.27,2.11.43.23.05.45.12.68.17.47.12.93.24,1.38.38,0,0,0,0,0,0,.04.01.08.03.13.04.2.06.4.12.59.19,0,0,0,0,0,0,.45.15.9.31,1.35.48,0,0,0,0,0,0,.2.08.41.15.61.23,0,0,0,0,0,0,.64.26,1.26.53,1.88.82.03.01.05.02.08.04.39.19.77.4,1.15.6.3.16.6.3.9.47.03.02.06.04.1.06.38.22.74.46,1.11.69.29.18.59.35.87.54,0,0,.01,0,.02.01,1.32.88,2.58,1.86,3.8,2.93,0,0,.01,0,.02.01,0,0,.01.01.02.02.41.36.81.75,1.22,1.14.17.16.34.31.51.48.05.05.09.09.14.13.54.54,1.08,1.11,1.6,1.69.05.06.1.12.16.18.52.59,1.04,1.19,1.54,1.82.03.04.07.08.1.13.05.06.1.13.15.19.08.1.15.21.23.31.08.11.16.22.24.32.59.77,1.18,1.57,1.74,2.39.07.1.13.19.2.28,0,0,0,.01.01.02.07.1.14.19.2.29,0,.01.01.02.02.03,0,0,0,0,0,.01.06.08.12.16.17.25.04.06.08.11.12.17.21.32.42.66.62.98.23.37.47.73.7,1.1.06.1.13.21.19.31.42.7.83,1.41,1.24,2.13.06.12.13.23.19.35.37.68.74,1.37,1.1,2.06.03.06.07.12.1.18.05.09.09.18.14.27.41.8.81,1.62,1.2,2.45,0,.02.01.03.02.05.34,1.08.7,2.14,1.09,3.17,0,0,0,0,0,0,.03.07.05.13.08.2,0,0,0,0,0,0,.35.92.72,1.82,1.11,2.69,0,0,0,0,0,0,0,0,0,0,0,0,0,.02.02.04.03.05,0,.01.01.02.02.03.04.1.09.19.13.29.06.14.13.27.19.41,0,0,0,0,0,0,.05.1.1.19.14.29.24.5.48,1,.73,1.49,0,0,0,0,0,0,.26.51.53,1,.8,1.49,0,0,0,0,0,0,.13.24.27.48.4.72,0,0,0,0,0,0,5.72,10,14.08,16.78,23.35,21.31.01,0,.02.01.03.02,1.71.84,3.46,1.6,5.22,2.29.04.01.07.03.11.04,1.74.68,3.51,1.29,5.28,1.85.05.02.1.03.15.05.59.18,1.17.36,1.76.52.02,0,.04.01.06.02,1.18.34,2.36.65,3.54.93.03,0,.06.02.09.02.58.14,1.15.27,1.73.4.08.02.16.04.25.05,1.74.38,3.48.71,5.2,1,.07.01.15.02.22.04,1.01.16,2.01.31,3.01.45.06,0,.12.02.18.03.67.09,1.35.17,2.02.25.99.12,1.97.21,2.94.3.12.01.24.03.35.04.62.06,1.24.1,1.86.15.04,0,.07,0,.11,0,.44.03.89.07,1.33.09,0,0,.01,0,.02,0,2.15.14,4.22.22,6.2.25,0,0,0,0,0,0,.02,0,.05,0,.07,0,.89.02,1.77.03,2.62.03h0s0,0,.01,0,0,0,.01,0h0s0,0,0,0c.07,0,.14,0,.21,0,.6,0,1.22,0,1.84-.01.29,0,.59,0,.88-.01.42,0,.83-.01,1.25-.02.34,0,.69-.02,1.04-.03.38-.01.77-.02,1.15-.04.38-.01.77-.03,1.15-.05.36-.02.72-.03,1.09-.05.41-.02.83-.05,1.24-.07.35-.02.69-.04,1.04-.07.44-.03.88-.07,1.33-.1.33-.03.66-.06.99-.09.47-.04.94-.09,1.41-.14.31-.03.62-.07.92-.1.5-.06,1-.11,1.5-.18.27-.03.54-.07.82-.11.54-.07,1.09-.15,1.63-.23.2-.03.41-.07.61-.1.62-.1,1.24-.2,1.86-.31.03,0,.05-.01.08-.01,1.37-.25,2.74-.53,4.11-.85,1.71-.4,3.41-.84,5.11-1.37.05-.02.11-.03.16-.05.68-.21,1.37-.44,2.05-.67.12-.04.24-.08.36-.12.66-.23,1.31-.47,1.96-.72.14-.05.28-.11.43-.16.64-.25,1.28-.52,1.92-.79.14-.06.28-.12.42-.18.64-.28,1.28-.58,1.92-.89.12-.06.25-.12.37-.18.65-.32,1.3-.65,1.94-1,.09-.05.17-.1.26-.15.68-.37,1.35-.76,2.02-1.16.01,0,.03-.02.04-.02,2.71-1.64,5.32-3.55,7.77-5.77,1.46-1.32,2.87-2.75,4.21-4.3.02-.02.04-.04.06-.06.55-.64,1.08-1.3,1.61-1.97.07-.09.14-.18.21-.27.5-.65.98-1.32,1.46-2,.09-.13.17-.25.26-.38.46-.68.91-1.37,1.35-2.09.09-.15.18-.29.26-.44.43-.72.85-1.46,1.26-2.22.08-.14.15-.29.23-.44.41-.78.82-1.58,1.2-2.4.05-.11.1-.23.15-.34.4-.87.8-1.76,1.17-2.69,0,0,0,0,0,0,1.25-3.09,2.33-6.44,3.2-10.09,0,0,0,0,0,0,.25-.7.51-1.38.78-2.05.03-.07.06-.15.08-.22.05-.14.11-.27.16-.41.29-.71.59-1.41.89-2.09.05-.12.11-.23.16-.35.06-.13.13-.26.19-.39.11-.24.24-.48.35-.72.21-.43.42-.86.64-1.28.29-.55.58-1.09.88-1.62.05-.09.1-.18.15-.27.29-.49.59-.96.89-1.43.08-.12.15-.25.23-.38.04-.06.08-.11.12-.17.11-.17.23-.32.34-.48.13-.19.27-.37.41-.56.11-.15.21-.29.32-.43.39-.53.78-1.04,1.19-1.53.03-.03.06-.07.08-.11.04-.04.07-.09.11-.13.03-.04.07-.09.1-.13,0,0,0,0,0,0h0s.06-.07.09-.1c.41-.48.84-.93,1.27-1.37.19-.19.39-.38.58-.57.01-.01.02-.02.04-.04.16-.15.32-.31.48-.45,0,0,.02-.02.03-.03.19-.17.38-.33.57-.5.03-.02.05-.05.08-.07.16-.14.32-.28.49-.41.02-.02.04-.03.06-.05.17-.14.35-.27.52-.4.05-.04.09-.07.14-.11.16-.12.32-.25.49-.37.03-.02.06-.04.1-.07.15-.11.31-.21.46-.31.08-.05.15-.1.23-.15.16-.11.32-.22.48-.32.04-.03.09-.05.13-.08.11-.07.22-.13.33-.2.02,0,.03-.02.05-.03.12-.07.23-.14.35-.21.15-.09.29-.18.44-.26.06-.03.11-.06.17-.09.09-.05.19-.09.28-.14.19-.1.38-.2.57-.29.11-.05.22-.11.33-.17.07-.03.14-.06.21-.09.05-.03.11-.05.17-.07,0,0,0,0,0,0,.39-.18.79-.35,1.2-.51.42-.17.85-.32,1.28-.47.12-.04.25-.07.37-.11.37-.12.74-.23,1.12-.33.18-.05.36-.09.54-.13.33-.08.67-.16,1.01-.23.21-.04.42-.08.63-.11.32-.06.64-.12.97-.17.23-.03.46-.06.69-.09.32-.04.64-.08.96-.11.24-.02.49-.04.73-.06.32-.02.64-.05.97-.06.25-.01.51-.02.77-.02.33,0,.65-.02.98-.02.27,0,.54,0,.8.01.33,0,.66.02,1,.03.28.01.56.03.84.05.34.02.68.05,1.02.08.29.03.58.06.87.09.35.04.69.08,1.04.12.3.04.6.08.9.13.35.05.71.11,1.07.17.31.05.62.11.93.16.36.07.72.14,1.09.21.32.06.64.13.96.2.37.08.74.17,1.12.26.33.08.66.16.99.24.38.1.76.2,1.15.3.34.09.67.18,1.01.28.39.11.79.23,1.19.35.34.1.69.21,1.03.32.4.13.81.26,1.23.4.35.12.7.23,1.06.35.42.14.84.29,1.26.45.36.13.72.26,1.08.39.43.16.87.33,1.31.5.36.14.72.28,1.09.42.45.18.9.37,1.36.55.37.15.73.3,1.11.46.46.2.94.4,1.41.61.37.16.74.32,1.12.49.49.22.98.44,1.48.67.37.17.74.33,1.11.51.52.24,1.05.5,1.57.75.36.17.71.34,1.08.51.6.29,1.21.6,1.82.9.3.15.59.29.89.45.92.46,1.84.94,2.78,1.44,1.73.91,3.5,1.87,5.31,2.89,1.81,1.01,3.65,2.07,5.54,3.18.52.3,1.03.61,1.56.92,1.09.65,2.18,1.31,3.29,1.99.44.27.88.54,1.32.81.95.59,1.92,1.2,2.89,1.81.22.14.44.28.67.42.29.18.56.35.85.53.4.25.8.51,1.21.77.18.12.37.24.55.36h0c.73.47,1.46.95,2.2,1.43.17.11.33.21.5.33.03.02.05.03.08.05.16.1.31.2.47.31,0,0,0,0,0,0,.33.22.67.44,1,.66.86.57,1.72,1.13,2.6,1.72,0,0,.05-.05.13-.13.03-.03.06-.07.1-.11.02-.02.03-.03.05-.05,0,0,0,0,0,0,.03-.03.05-.06.09-.09.03-.03.08-.09.12-.13.08-.08.15-.16.24-.26,0,0,0,0,0,0,.03-.04.07-.08.11-.12,0,0,0,0,0,0,.09-.1.2-.22.31-.34.05-.05.08-.09.13-.14,0,0,0,0,0,0,.03-.04.06-.07.1-.11.2-.23.42-.47.66-.75.03-.03.06-.07.09-.11.22-.26.47-.54.72-.83.04-.04.08-.09.11-.13,0,0,0,0,0,0,.04-.05.09-.11.14-.16.27-.31.55-.64.84-.99.16-.19.34-.41.51-.61.14-.17.27-.33.42-.5,0,0,.01-.01.02-.02.02-.03.04-.05.07-.08,0,0,0,0,0,0,.04-.05.08-.09.12-.14,0,0,0,0,0,0,0,0,0,0,0,0,.02-.03.05-.06.07-.09.02-.02.03-.04.04-.06.06-.07.12-.15.17-.21.31-.38.62-.76.94-1.17,0,0,0,0,0,0,.39-.48.79-.99,1.2-1.52.03-.04.06-.07.09-.11,0,0,0,0,0,0,.03-.04.06-.09.1-.13.14-.18.28-.37.42-.55.52-.68,1.07-1.4,1.62-2.15.1-.13.2-.26.3-.4.02-.02.03-.04.05-.07,0,0,0,0,0,0,.12-.16.23-.3.35-.47,0,0,0,0,0,0,.01-.01.02-.03.03-.04,0,0,0,0,0,0,.12-.16.25-.34.37-.5.29-.4.58-.79.87-1.2.11-.16.23-.32.34-.48.39-.55.79-1.1,1.19-1.68.05-.07.09-.13.14-.2.37-.53.74-1.07,1.12-1.62.09-.13.18-.27.27-.4.08-.12.16-.24.25-.36.45-.67.91-1.34,1.37-2.04,0,0,.01-.02.02-.03.01-.02.03-.04.04-.07.05-.08.1-.15.15-.23.2-.31.41-.63.62-.95.16-.24.32-.48.47-.73.37-.57.73-1.15,1.1-1.73.01-.02.02-.03.03-.05,0,0,0,0,0,0,.04-.06.08-.13.12-.19,0,0,.01-.02.02-.03.03-.04.06-.09.08-.14.12-.19.24-.39.36-.58.68-1.09,1.36-2.22,2.05-3.38.14-.23.27-.45.41-.68.09-.15.18-.3.27-.45.09-.16.18-.31.28-.46,0,0,0,0,0,0,0-.01.01-.02.02-.03,0,0,0,0,0,0,.1-.17.2-.35.3-.52.12-.2.23-.41.35-.61,0,0,0,0,0,0,.54-.94,1.09-1.88,1.63-2.86.1-.17.19-.36.29-.53.07-.13.14-.27.22-.4.17-.31.34-.64.51-.96.28-.53.57-1.05.85-1.59.39-.74.78-1.48,1.17-2.23,0,0,0-.01.01-.02.48-.93.96-1.86,1.44-2.82.01-.03.03-.06.04-.09.62-1.26,1.24-2.55,1.85-3.86.12-.26.25-.51.37-.77,0,0,0,0,0,0,0,0,0,0,0,0,0,0,0-.02.01-.02.42-.91.84-1.83,1.26-2.77.42-.94.83-1.88,1.24-2.84.31-.72.62-1.42.92-2.15,0,0,0,0,0,0,.02-.05.04-.09.06-.14,1.1-2.65,2.16-5.38,3.18-8.18.02-.07.05-.13.07-.2,0,0,0,0,0,0,.06-.16.11-.33.17-.5.33-.92.65-1.85.97-2.79.1-.31.21-.62.31-.93.2-.59.4-1.18.59-1.78.29-.88.58-1.75.85-2.64,0,0,0,0,0,0,0,0,0,0,0,0,.02-.05.03-.11.05-.16,0,0,0,0,0,0,.04-.14.08-.29.13-.43.4-1.32.8-2.65,1.18-3.99,0-.01,0-.02.01-.04,0,0,0-.02,0-.03.07-.26.15-.51.22-.76.25-.9.48-1.81.71-2.72.1-.4.22-.79.32-1.19.02-.08.04-.16.06-.25.48-1.89.94-3.81,1.36-5.75.25-1.13.48-2.26.71-3.4.23-1.14.44-2.29.65-3.45,0,0,0,0,0,0,.02-.12.04-.23.06-.35.17-.98.34-1.96.49-2.95.01-.07.02-.13.03-.2.05-.29.08-.59.13-.88.11-.75.23-1.51.33-2.26.03-.2.05-.4.08-.6.03-.23.06-.47.09-.7,0,0,0,0,0,0,.06-.47.12-.94.18-1.41.03-.23.06-.46.09-.69.02-.2.05-.4.08-.6.03-.26.05-.52.08-.77.08-.69.15-1.39.22-2.08h0c0-.08.01-.15.02-.22.04-.39.08-.79.11-1.19.06-.65.11-1.31.16-1.96,0-.06.01-.12.02-.18,0,0,0,0,0,0,.02-.25.04-.51.06-.76.02-.2.03-.39.05-.59.06-.79.1-1.58.15-2.37,0,0,0-.02,0-.03,0-.16.02-.32.03-.48.01-.22.03-.44.04-.65.06-1.18.11-2.37.14-3.56,0,0,0,0,0,0,.03-1.19.06-2.4.07-3.6h0c0-.08,0-.15,0-.22,0-.32,0-.64,0-.96,0-.82,0-1.64-.01-2.47,0,0,0,0,0,0,0-.46-.02-.93-.03-1.39v-.02c-.02-.76-.04-1.52-.06-2.28,0,0,0,0,0,0,0-.2-.02-.39-.02-.59-.01-.3-.02-.59-.04-.89,0,0,0,0,0,0h0c-.03-.76-.07-1.51-.11-2.26,0,0,0,0,0-.01-.02-.27-.03-.55-.05-.82-.01-.23-.03-.45-.04-.68-.05-.77-.11-1.55-.17-2.33-.03-.4-.06-.81-.1-1.21,0-.08-.01-.16-.02-.24,0,0,0,0,0-.01-.07-.85-.16-1.71-.25-2.56-.04-.42-.08-.83-.13-1.25-.14-1.27-.29-2.55-.46-3.84.84-1.61,1.67-3.2,2.5-4.78.68-1.31,1.37-2.61,2.04-3.89.06-.11.12-.23.18-.34.51-.97,1.01-1.92,1.51-2.88.27-.51.53-1.01.8-1.51.08-.15.16-.31.24-.46.26-.5.52-.99.78-1.48.68-1.28,1.34-2.53,2-3.77.18-.34.36-.68.54-1.01.05-.1.11-.2.16-.3.34-.63.67-1.26,1-1.88,0,0,0,0,0-.01.36-.68.72-1.35,1.07-2.02.06-.11.12-.22.18-.33.31-.58.61-1.15.91-1.71.02-.03.03-.06.05-.09.4-.76.8-1.49,1.19-2.23.52-.98,1.04-1.94,1.54-2.87.1-.19.21-.39.31-.58.17-.31.33-.62.5-.92.16-.3.32-.6.48-.89.14-.27.29-.53.43-.8.19-.35.37-.69.55-1.03.08-.14.15-.27.22-.41.3-.55.58-1.09.87-1.61.12-.21.23-.43.34-.64.33-.62.66-1.22.97-1.8,0,0,0-.01.01-.02.28-.52.54-1.01.81-1.49.07-.14.14-.27.22-.4.17-.32.34-.63.51-.94.09-.17.19-.35.28-.51.21-.39.41-.76.61-1.12.01-.03.03-.06.05-.09.22-.41.43-.79.63-1.16.04-.08.08-.15.12-.23.86-1.6,1.55-2.86,2.02-3.73.24-.44.43-.79.55-1.02.12-.23.19-.35.19-.35,0,0,0,0,0,0ZM131.91,170.81c-.41-1.9-3.06-16.77,13.4-23.55,16.68-6.87,25.76,4.97,25.76,4.97-4.17-.42-7.92-.42-11.3-.12,1.63,2.21-.26,9.47-.26,9.47l-6.22-4.22s.68-2.99,2.55-4.71c-18.47,3.27-23.71,16.37-23.93,18.17ZM188.55,165.94c-5.94,13.9-3.7,29.46,29.66,35.48,0,0-17.45-8.66-10.35-23.22l47.65,16.58,43.21-16.97c6.62,12.42-12.88,23.32-12.88,23.32,36.38-6.89,35.54-24.82,27.5-39.51.87.32,1.74.66,2.6.99.26.1.51.2.77.3.54.22,1.08.44,1.62.66.68.28,1.36.57,2.04.86.15.07.31.13.46.2.83.36,1.66.74,2.49,1.12.13.06.26.12.39.18.53.25,1.05.49,1.57.75,24.9,12.13,40.44,31.66,29.79,69.6-40.76-21.94-84.31-20.98-98.16-20.47-15.25-.58-71.52-.69-108.31,20.48-8.56-36.66,13.4-58.02,39.97-70.34ZM207.71,161.62c11.98-23.2,37.14-22.52,37.14-22.52-16.9,3.12-23.32,17.2-24.6,19.96l-12.54,2.56ZM322.1,234.96s18.59,3.92,23.88,14.39c0,0-10.69,31.12-30.12,37.66,0,0,7.8-37.54,6.24-52.05ZM255.47,370.32s-25.47.87-41.33-8.2c0,0-14.39-7.2-.12-27.08,0,0,5.08,19.6,18.57,24.45l11.25-3.97,12.1,6.17,11.01-6.27,11.28,3.88c13.45-4.96,18.36-24.61,18.36-24.61,14.44,19.76.12,27.08.12,27.08-15.78,9.21-41.25,8.56-41.25,8.56ZM255.54,384.84c27.93-.02,44.11-9.21,53.36-14.73-4.76,12.89-12.71,32.12-53.17,32.3-41.72-1.35-50.48-18.12-56.61-31.82,9.13,6.48,33,14.13,56.43,14.26ZM300.78,253.82s-.03-9.44-7.18-11.48c-7.78-2.21-8.72,2.56-19.02,3.1l-19.42-3.79s-.94-.07-2.55-.16c-1.61.11-2.55.19-2.55.19l-19.51,4.24c-10.3-.45-11.16-5.5-18.92-3.22-7.13,2.1-7.09,11.54-7.09,11.54-5.59-4.39-11.55-21.36-11.55-21.36,12.25-5.25,36.28-6.04,59.56-5.26,23.28-.99,47.31-.4,59.61,4.75,0,0-5.82,17.02-11.37,21.46ZM356.55,156.56l-6.18,4.28s-1.95-7.25-.34-9.47c-3.38-.27-7.13-.23-11.3.22,0,0,8.98-11.92,25.72-5.19,16.53,6.64,14,21.53,13.61,23.43-.24-1.8-5.6-14.85-24.09-17.96,1.89,1.7,2.59,4.69,2.59,4.69ZM183.46,235.55c-1.28,16.05,6.69,52,6.69,52-19.48-6.38-30.44-37.4-30.44-37.4,6.02-10.79,23.76-14.6,23.76-14.6ZM314.49,346.49c33.76-53.5,91.47-30.19,91.47-30.19,0,0,33.27-45.69,26.6-102.18,10.19-16.46,18.53-27.14,18.53-27.14,0,0-20.45-33.79-52.57-46.47-22.74-8.98-62.25-22.42-98.5-1.34-2.9-1.26-26.41-10.66-44.7-10.86-19.12-.21-46.45,11.34-46.45,11.34-53.9-31.02-115.74,7.98-115.74,7.98l7.06,43.95c17.91-6.07,44.16-15.03,47.13-16.41-43.45,23.57-37.87,91.76-37.87,91.76,0,0-16.99-15.94-24.64-33.96-8.36,44.81,19.44,79.66,19.44,79.66,0,0,67.46-14.53,85.13,30.35-36.84-35.85-90.56-3.37-90.56-3.37,0,0-44.56-39.2-39.61-117.64-8.57-11.36-18.73-31.08-18.73-31.08,6.48-6.72,16.51-15.01,30.63-32.54,18.16-23.04,35.49-61.81,183.96-46.07-56.37-41.56-165.94-13.29-165.94-13.29C118.63-.94,253.89,37.6,253.89,37.6c148.2-35.04,166.08,60.73,166.08,60.73-120.36-24.81-161.09,10.83-164.38,13.96,161.77-18.85,181.17,29.34,189.21,36.08,9.92,11.14,27.48,29.94,31.57,35.01,0,0-12.44,26.81-21.95,38.68l.54,3.08s9.85,73.37-39.62,117.61c0,0-56.13-34.53-100.85,3.74Z"/>
    <path class="cls-4" d="M255.54,112.33s.03,0,.05,0c0,0-.02-.02-.03-.03,0,0-.01.01-.02.02Z"/>
  </g>
  <path class="cls-1" d="M74.31,216.62l-2.47-8.95-.58,6.21c.94.91,1.94,1.83,3.05,2.75Z"/>
  <path class="cls-1" d="M74.33,184.82c1.01.18,1.94.37,2.8.58,2.34-4.69,1.21-8.43-12.42-4.94,0,0-7.86,11.42.08,25.26,1.39-14.1,9.54-20.9,9.54-20.9Z"/>
  <path class="cls-1" d="M77.13,185.4c-.86-.2-1.79-.4-2.8-.58,0,0-8.15,6.8-9.54,20.9,1.52,2.65,3.62,5.38,6.46,8.15l.58-6.21-3.2-11.62s6.08-5.82,8.49-10.64Z"/>
  <g>
    <path class="cls-2" d="M516.16,180.2l-4.81-6.94c-4.43-6.39-10.29-13.03-17.08-20.72-5.12-5.8-10.92-12.37-16.89-19.74-5.03-6.22-9.54-12.22-13.79-18.35-4.41-6.35-8.4-12.64-12.16-19.16,0,0-20.31-99.97-129.52-95.12-19.79.88-42.02,3.08-66.06,9.15-.28-.08-.57-.15-.85-.23C233.06,3.28,212.25.33,193.11.33s-37.47,3.04-53.59,9.04c-1.22.46-2.44.93-3.64,1.42-3.13,1.27-6.24,2.69-9.25,4.2-30.97,15.61-53.52,42.93-67.03,81.24-8.85,17.58-34.3,63.72-51.95,78.29l-.38.32-.08.08-.12.11-7.07,7.07,3.88,8.62c.08.18,7.98,17.72,15.49,34.17l.47,1.04c1.57,3.43,3.11,6.8,4.56,9.96l.7,1.52c-1.33,13.33-1.22,26.76.33,39.98,7.85,67.35,49.94,109.32,51.73,111.08l8.55,8.39,9.45-7.36c11.05-8.61,21.14-15.14,30.02-19.41,1.75-.85,3.49-1.62,5.16-2.29,6.29-2.54,11.9-3.83,16.67-3.83h.33c.65.01,1.32.05,1.98.11.51.05,1.02.12,1.51.2.38.06.76.14,1.14.22,4.72,1.07,11.79,4.22,18.98,19.12.31.96.66,1.96,1.07,3.05l.11.27c.43,1.12.89,2.24,1.37,3.31.12.27.47,1.02.47,1.02.36.76.72,1.52,1.07,2.2.33.64.67,1.27,1.01,1.9,0,0,.39.7.51.91,11.55,20.18,33.17,32.66,62.47,36.07,5.39.65,10.97.97,16.58.97h.6c10.42,0,26-.68,41.04-6.56,17.93-7,30.68-19.53,37.9-37.24,1.61-3.69,2.87-7.59,3.77-11.61,4.88-13.07,10.89-14.19,16.17-14.19,8.4,0,20.36,4.16,35.55,12.38,1.84,1,3.68,2.02,5.46,3.04,2.28,1.31,4.63,2.7,6.98,4.14,4.59,2.8,9.4,5.88,14.29,9.15l9.51,6.36,7.95-8.23c1.37-1.41,33.6-35.22,47.18-88.74.57-2.26,1.07-4.37,1.53-6.45.54-2.45,1.03-4.94,1.46-7.38,3.13-17.6,3.75-35.4,1.84-52.99,13.29-25.39,25.13-47.13,25.26-47.36l4.04-7.41ZM499.35,182.42c-.47.86-1.16,2.13-2.02,3.73-.04.08-.08.15-.12.23-.2.37-.41.76-.63,1.16-.01.03-.03.06-.05.09-.19.36-.4.74-.61,1.12-.09.17-.18.34-.28.51-.17.31-.33.62-.51.94-.07.13-.14.27-.22.4-.26.48-.53.98-.81,1.49,0,0,0,.01-.01.02-.31.58-.64,1.18-.97,1.8-.11.21-.23.42-.34.64-.28.53-.57,1.06-.87,1.61-.07.14-.15.27-.22.41-.18.34-.37.69-.55,1.03-.14.27-.28.53-.43.8-.16.29-.32.59-.48.89-.16.31-.33.61-.5.92-.1.19-.21.39-.31.58-.87,1.63-1.78,3.33-2.72,5.1-.02.03-.03.06-.05.09-.3.56-.61,1.14-.91,1.71-.06.11-.12.22-.18.33-.35.66-.71,1.34-1.07,2.02,0,0,0,0,0,.01-.33.62-.66,1.25-1,1.88-.05.1-.11.2-.16.3-.18.33-.36.68-.54,1.01-.66,1.24-1.32,2.49-2,3.77-.26.49-.52.98-.78,1.48-.08.15-.16.31-.24.46-.26.5-.53,1-.8,1.51-.5.95-1.01,1.91-1.51,2.88-.06.11-.12.23-.18.34-.67,1.28-1.36,2.58-2.04,3.89-.83,1.58-1.66,3.18-2.5,4.78.17,1.29.32,2.56.46,3.84.05.42.08.83.13,1.25.09.86.17,1.71.25,2.56,0,0,0,0,0,.01,0,.08.01.16.02.24.03.41.07.81.1,1.21.06.78.12,1.55.17,2.33.01.23.03.45.04.68.02.27.03.55.05.82,0,0,0,0,0,.01.04.75.08,1.51.11,2.26h0s0,.01,0,.01c.02.49.04.99.06,1.48,0,0,0,0,0,0,.03.76.05,1.52.06,2.28v.02c.01.46.02.93.03,1.39,0,0,0,0,0,0,.01.83.01,1.65.01,2.47,0,.32,0,.64,0,.96,0,.07,0,.15,0,.22h0c-.01,1.21-.03,2.42-.07,3.61,0,0,0,0,0,0-.04,1.2-.08,2.38-.14,3.56-.01.22-.02.44-.04.65,0,.16-.02.32-.03.48,0,0,0,.02,0,.03-.05.79-.09,1.58-.15,2.37-.01.2-.03.39-.05.59-.02.25-.04.51-.06.76,0,0,0,0,0,0-.06.72-.11,1.43-.18,2.15-.04.4-.07.79-.11,1.19,0,.07-.01.14-.02.21h0c-.07.7-.14,1.4-.22,2.09-.03.26-.05.52-.08.77-.02.2-.05.4-.08.6-.03.23-.06.46-.09.69-.06.47-.12.94-.18,1.41,0,0,0,0,0,0-.03.23-.06.47-.09.7-.03.2-.05.4-.08.6-.11.76-.22,1.51-.33,2.26-.04.29-.08.59-.13.88-.01.07-.02.14-.03.2-.16.99-.32,1.97-.49,2.95-.02.12-.04.23-.06.35,0,0,0,0,0,0-.21,1.16-.42,2.31-.65,3.45-.23,1.14-.46,2.28-.71,3.4-.42,1.95-.88,3.86-1.36,5.75-.02.08-.04.16-.06.25-.1.4-.21.79-.32,1.19-.24.91-.47,1.82-.71,2.72-.07.26-.15.51-.22.76,0,.01,0,.02,0,.03,0,.01,0,.02-.01.04-.38,1.35-.78,2.68-1.18,3.99-.04.14-.08.29-.13.43,0,0,0,0,0,0-.02.05-.03.11-.05.16,0,0,0,0,0,0,0,0,0,0,0,0-.28.89-.57,1.77-.85,2.64-.19.6-.39,1.19-.59,1.78-.1.31-.2.62-.31.93-.32.94-.64,1.87-.97,2.79-.06.16-.11.33-.17.5,0,0,0,0,0,0-.02.07-.05.13-.07.2-1.02,2.8-2.08,5.53-3.18,8.18-.02.05-.04.09-.06.14,0,0,0,0,0,0-.3.73-.61,1.43-.92,2.15-.41.95-.82,1.9-1.24,2.84-.41.93-.83,1.86-1.26,2.77,0,0,0,.02-.01.02,0,0,0,0,0,0,0,0,0,0,0,0-.12.26-.25.51-.37.77-.61,1.31-1.23,2.6-1.85,3.86-.01.03-.03.06-.04.09-.48.96-.96,1.89-1.44,2.82,0,0,0,.01-.01.02-.39.75-.78,1.5-1.17,2.23-.53,1-1.06,1.98-1.59,2.94-.1.17-.19.36-.29.53-.54.98-1.09,1.92-1.63,2.86,0,0,0,0,0,0-.12.2-.23.41-.35.61-.1.18-.2.35-.3.52,0,0,0,0,0,0,0,.01-.01.02-.02.03,0,0,0,0,0,0-.09.16-.18.31-.28.46-.09.15-.18.3-.27.45-.95,1.6-1.89,3.16-2.82,4.64-.03.04-.06.09-.08.14,0,0-.01.02-.02.03-.04.06-.08.13-.12.19,0,0,0,0,0,0-.01.02-.02.03-.03.05-.37.59-.74,1.16-1.1,1.73-.16.25-.32.49-.47.73-.21.32-.41.64-.62.95-.05.08-.1.15-.15.23-.01.02-.03.04-.04.07,0,0-.01.02-.02.03-.46.7-.91,1.38-1.37,2.04-.08.12-.16.24-.25.36-.09.13-.18.27-.27.4-.38.55-.75,1.09-1.12,1.62-.05.07-.09.13-.14.2-.4.57-.8,1.13-1.19,1.68-.12.16-.23.32-.34.48-.42.58-.84,1.16-1.24,1.71,0,0,0,0,0,0-.01.01-.02.03-.03.04,0,0,0,0,0,0-.12.16-.23.31-.35.47-.02.02-.03.04-.05.07-.1.14-.2.26-.3.4-.56.75-1.1,1.46-1.62,2.15-.14.18-.28.37-.42.55-.03.04-.07.09-.1.13,0,0,0,0,0,0-.03.04-.06.07-.09.11-.41.53-.81,1.04-1.2,1.52,0,0,0,0,0,0-.33.41-.64.79-.94,1.17-.06.07-.12.15-.17.21-.04.04-.08.09-.11.14,0,0,0,0,0,.01,0,0,0,0,0,0-.04.05-.08.1-.12.14,0,0,0,0,0,0-.03.04-.05.07-.08.1-.14.18-.28.33-.42.5-.17.21-.35.42-.51.61-.29.35-.57.68-.84.99-.04.05-.09.11-.14.16,0,0,0,0,0,0-.04.05-.08.09-.11.13-.26.3-.5.58-.72.83-.03.04-.06.07-.09.11-.24.27-.46.52-.66.75-.03.04-.07.07-.1.11,0,0,0,0,0,0-.05.05-.09.09-.13.14-.11.12-.21.24-.31.34,0,0,0,0,0,0-.04.04-.08.08-.11.12,0,0,0,0,0,0-.09.1-.16.18-.24.26-.04.04-.08.09-.12.13-.03.04-.06.06-.09.09,0,0,0,0,0,0-.02.02-.03.03-.05.05-.04.04-.07.08-.1.11-.08.08-.13.13-.13.13-.88-.59-1.74-1.15-2.6-1.72-.33-.22-.67-.45-1-.66,0,0,0,0,0,0-.16-.1-.31-.2-.47-.31-.03-.02-.05-.03-.08-.05-.17-.11-.33-.22-.5-.33-.74-.48-1.47-.96-2.2-1.43h0c-.18-.12-.37-.24-.55-.36-.4-.26-.81-.52-1.21-.77-.29-.18-.56-.35-.85-.53-.22-.14-.44-.28-.67-.42-.97-.61-1.94-1.23-2.89-1.81-.44-.27-.88-.54-1.32-.81-1.11-.68-2.21-1.34-3.29-1.99-.52-.31-1.04-.62-1.56-.92-1.88-1.11-3.73-2.17-5.54-3.18-1.81-1.01-3.58-1.97-5.31-2.89-.94-.49-1.86-.97-2.78-1.44-.3-.15-.6-.3-.89-.45-.61-.3-1.22-.61-1.82-.9-.36-.18-.72-.34-1.08-.51-.53-.25-1.05-.51-1.57-.75-.38-.17-.74-.34-1.11-.51-.49-.23-.99-.45-1.48-.67-.38-.17-.74-.32-1.12-.49-.47-.2-.94-.41-1.41-.61-.37-.16-.74-.3-1.11-.46-.45-.19-.91-.37-1.36-.55-.37-.15-.73-.28-1.09-.42-.44-.17-.88-.34-1.31-.5-.36-.13-.72-.26-1.08-.39-.42-.15-.85-.3-1.26-.45-.36-.12-.71-.24-1.06-.35-.41-.14-.82-.27-1.23-.4-.35-.11-.69-.21-1.03-.32-.4-.12-.8-.24-1.19-.35-.34-.1-.68-.19-1.01-.28-.39-.1-.77-.21-1.15-.3-.33-.08-.66-.16-.99-.24-.38-.09-.75-.18-1.12-.26-.32-.07-.64-.14-.96-.2-.37-.07-.73-.14-1.09-.21-.31-.06-.62-.11-.93-.16-.36-.06-.71-.11-1.07-.17-.3-.04-.6-.09-.9-.13-.35-.05-.7-.08-1.04-.12-.29-.03-.58-.06-.87-.09-.34-.03-.68-.05-1.02-.08-.28-.02-.56-.04-.84-.05-.34-.02-.67-.02-1-.03-.27,0-.54-.01-.8-.01-.33,0-.66,0-.98.02-.26,0-.52.01-.77.02-.33.01-.65.04-.97.06-.24.02-.49.03-.73.06-.32.03-.64.07-.96.11-.23.03-.46.05-.69.09-.33.05-.65.11-.97.17-.21.04-.42.07-.63.11-.34.07-.67.15-1.01.23-.18.04-.36.08-.54.13-.38.1-.75.22-1.12.33-.12.04-.25.07-.37.11-.44.14-.86.3-1.28.47-.4.16-.8.33-1.2.51,0,0,0,0,0,0-.06.02-.11.05-.17.07-.07.03-.14.06-.21.09-.11.05-.22.11-.33.17-.19.09-.38.19-.57.29-.09.05-.19.09-.28.14-.06.03-.11.06-.17.09-.15.08-.3.17-.44.26-.12.07-.23.14-.35.21-.02,0-.03.02-.05.03-.11.06-.22.13-.33.2-.04.03-.09.05-.13.08-.16.1-.32.21-.48.32-.08.05-.15.1-.23.15-.15.1-.31.2-.46.31-.03.02-.06.04-.1.07-.17.12-.33.25-.49.37-.05.04-.09.07-.14.11-.17.13-.35.26-.52.4-.02.02-.04.03-.06.05-.17.13-.33.28-.49.41-.03.02-.05.05-.08.07-.19.16-.38.33-.57.5,0,0-.02.02-.03.03-.16.15-.32.3-.48.45-.01.01-.02.02-.04.04-.19.19-.39.37-.58.57-.43.44-.86.89-1.27,1.37-.03.03-.06.07-.09.1,0,0,0,0,0,0-.04.04-.07.09-.1.13-.04.04-.07.09-.11.13-.55.65-1.08,1.35-1.6,2.07-.13.19-.27.37-.41.56-.11.16-.23.31-.34.48-.04.06-.08.11-.12.17-.08.12-.15.25-.23.38-.3.47-.6.94-.89,1.43-.05.09-.1.18-.15.27-.3.52-.59,1.06-.88,1.62-.22.42-.43.85-.64,1.28-.12.24-.24.47-.35.72-.06.13-.13.26-.19.39-.05.12-.11.23-.16.35-.31.68-.6,1.37-.89,2.09-.05.14-.11.27-.16.41-.03.07-.06.15-.08.22-.27.67-.53,1.35-.78,2.05,0,0,0,0,0,0-.87,3.65-1.95,7-3.2,10.09,0,0,0,0,0,0-.37.92-.76,1.81-1.17,2.69-.05.11-.1.23-.15.34-.39.82-.79,1.62-1.2,2.4-.08.15-.15.29-.23.44-.41.76-.83,1.5-1.26,2.22-.09.15-.18.29-.26.44-.44.71-.89,1.41-1.35,2.09-.09.13-.17.25-.26.38-.48.69-.96,1.36-1.46,2-.07.09-.14.18-.21.27-.53.68-1.06,1.34-1.61,1.97-.02.02-.04.04-.06.06-1.34,1.55-2.75,2.98-4.21,4.3-2.45,2.21-5.06,4.12-7.77,5.77-.01,0-.03.02-.04.02-.67.4-1.34.79-2.02,1.16-.09.05-.17.1-.26.15-.64.35-1.29.68-1.94,1-.12.06-.25.12-.37.18-.64.31-1.27.6-1.92.89-.14.06-.28.12-.42.18-.64.28-1.28.54-1.92.79-.14.06-.28.11-.43.16-.65.25-1.3.49-1.96.72-.12.04-.24.08-.36.12-.68.23-1.36.46-2.05.67-.05.02-.11.03-.16.05-1.7.52-3.41.97-5.11,1.37-1.37.32-2.75.61-4.11.85-.03,0-.05,0-.08.01-.62.11-1.24.21-1.86.31-.2.03-.41.07-.61.1-.55.08-1.09.16-1.63.23-.27.04-.55.08-.82.11-.5.06-1,.12-1.5.18-.31.03-.62.07-.92.1-.47.05-.94.09-1.41.14-.33.03-.66.06-.99.09-.44.04-.89.07-1.33.1-.35.03-.69.05-1.04.07-.42.03-.83.05-1.24.07-.37.02-.73.04-1.09.05-.38.02-.77.04-1.15.05-.39.01-.77.03-1.15.04-.35.01-.7.02-1.04.03-.42,0-.84.02-1.25.02-.29,0-.59.01-.88.01-.62,0-1.24,0-1.84.01-.07,0-.14,0-.21,0,0,0,0,0,0,0h0s0,0-.01,0,0,0-.01,0h0c-.85,0-1.73-.01-2.62-.03-.02,0-.05,0-.07,0,0,0,0,0,0,0-1.98-.04-4.05-.12-6.2-.25,0,0-.01,0-.02,0-.44-.03-.88-.06-1.33-.09-.04,0-.07,0-.11,0-.62-.05-1.24-.09-1.86-.15-.12-.01-.23-.03-.35-.04-.98-.09-1.96-.19-2.94-.3-.67-.08-1.35-.16-2.02-.25-.06,0-.12-.02-.18-.03-1-.14-2-.28-3.01-.45-.07-.01-.15-.02-.22-.04-1.72-.28-3.45-.62-5.2-1-.08-.02-.16-.04-.25-.05-.58-.13-1.15-.26-1.73-.4-.03,0-.06-.02-.09-.02-1.18-.29-2.36-.6-3.54-.93-.02,0-.04-.01-.06-.02-.59-.17-1.18-.34-1.76-.52-.05-.02-.1-.03-.15-.05-1.77-.55-3.54-1.16-5.28-1.85-.04-.01-.07-.03-.11-.04-1.77-.69-3.51-1.45-5.22-2.29-.01,0-.02-.01-.03-.02-9.28-4.54-17.63-11.31-23.35-21.31,0,0,0,0,0,0-.14-.24-.27-.48-.4-.72,0,0,0,0,0,0-.27-.49-.54-.98-.8-1.49,0,0,0,0,0,0-.25-.49-.49-.99-.73-1.49-.04-.08-.08-.16-.12-.24,0,0,0,0,0,0,0-.01-.01-.03-.02-.04,0,0,0,0,0,0-.09-.19-.18-.37-.26-.56-.03-.07-.07-.14-.1-.21,0,0,0,0,0,0,0,0,0,0,0,0-.39-.88-.76-1.77-1.11-2.69,0,0,0,0,0,0-.03-.07-.06-.13-.08-.2,0,0,0,0,0,0-.39-1.03-.75-2.09-1.09-3.17,0-.02-.01-.03-.02-.05-.39-.83-.79-1.65-1.2-2.45-.05-.09-.09-.18-.14-.27-.03-.06-.07-.12-.1-.18-.36-.7-.72-1.39-1.1-2.06-.06-.12-.13-.23-.19-.35-.4-.73-.82-1.44-1.24-2.13-.06-.1-.13-.21-.19-.31-.23-.38-.47-.74-.7-1.1-.21-.33-.41-.66-.62-.98-.04-.06-.08-.11-.12-.17-.06-.09-.12-.17-.18-.26,0-.01-.02-.02-.02-.03-.07-.1-.14-.2-.21-.3-.71-1.04-1.44-2.04-2.19-2.99-.08-.1-.15-.21-.23-.31-.05-.06-.1-.13-.15-.19-.03-.04-.07-.08-.1-.13-.5-.62-1.02-1.23-1.54-1.82-.05-.06-.1-.12-.16-.18-.52-.58-1.06-1.15-1.6-1.69-.05-.05-.09-.09-.14-.13-.17-.16-.34-.31-.51-.48-.4-.39-.8-.78-1.22-1.14,0,0-.01-.01-.02-.02,0,0-.01,0-.02-.01-1.22-1.07-2.48-2.05-3.8-2.93,0,0-.01,0-.02-.01-.28-.19-.58-.36-.87-.54-.37-.23-.73-.47-1.11-.69-.03-.02-.06-.04-.1-.06-.29-.17-.6-.31-.9-.47-.38-.2-.76-.42-1.15-.6-.03-.01-.05-.02-.08-.04-.62-.29-1.24-.56-1.88-.82,0,0,0,0,0,0-.2-.08-.41-.16-.61-.23,0,0,0,0,0,0-.44-.17-.89-.33-1.35-.48,0,0,0,0,0,0-.2-.06-.4-.13-.59-.19-.04-.01-.08-.03-.13-.04,0,0,0,0,0,0-.46-.14-.92-.26-1.38-.38-.23-.06-.45-.12-.68-.17-.69-.16-1.39-.31-2.11-.43h0s0,0,0,0c0,0,0,0,0,0-.39-.07-.79-.13-1.19-.18-.42-.05-.84-.1-1.27-.14,0,0,0,0,0,0-.22-.02-.45-.03-.68-.05-.27-.02-.54-.05-.82-.06,0,0-.01,0-.02,0,0,0-.01,0-.02,0-.04,0-.08,0-.12,0-.47-.02-.94-.04-1.41-.04-.01,0-.02,0-.04,0-.73,0-1.47,0-2.22.04-.1,0-.21,0-.31.01-.05,0-.1,0-.15,0h0s0,0,0,0c-.65.03-1.3.08-1.97.14-.09,0-.17.02-.26.03-.14.01-.28.03-.42.05-.72.08-1.44.17-2.17.29-.1.02-.19.03-.29.04-.04,0-.09.01-.13.02-.74.12-1.5.27-2.27.43,0,0,0,0,0,0,0,0,0,0,0,0-.02,0-.05.01-.07.02-.15.03-.3.06-.46.1,0,0,0,0,0,0-.2.04-.39.08-.59.13-.62.14-1.25.3-1.89.47-.1.03-.21.06-.31.08-.79.21-1.58.44-2.39.69-.15.05-.31.09-.46.14-.1.03-.2.06-.29.09-.76.24-1.54.51-2.32.79-.18.07-.37.13-.56.2-.29.1-.57.2-.86.31-.63.24-1.27.49-1.91.75,0,0,0,0,0,0,0,0,0,0,0,0-.7.28-1.42.6-2.14.91-.15.07-.31.13-.46.2h0s0,0,0,0c-.22.1-.45.2-.67.3-.04.02-.09.04-.13.06-.85.38-1.7.77-2.56,1.19,0,0,0,0-.01,0-.64.31-1.28.63-1.93.95-.22.11-.43.22-.65.33-.44.23-.89.46-1.33.69-.26.14-.52.28-.78.42-.41.22-.83.45-1.24.68,0,0,0,0,0,0-.04.02-.08.04-.12.07-.23.13-.47.26-.71.39-.3.17-.6.34-.9.51-.11.06-.23.13-.34.19,0,0,0,0,0,0-.2.11-.39.23-.59.34-.08.05-.16.09-.25.14-.43.25-.85.5-1.29.76,0,0,0,0,0,0-.27.16-.54.32-.81.48,0,0,0,0,0,0-.47.28-.94.57-1.42.87,0,0-.02,0-.02.01-.18.11-.37.23-.55.34-.05.03-.09.06-.14.09-.7.43-1.4.88-2.1,1.33-.04.03-.08.05-.12.08-.71.45-1.42.92-2.14,1.4-.23.15-.47.31-.7.47,0,0,0,0-.01,0,0,0,0,0,0,0-.01,0-.02.01-.03.02-.49.33-.99.66-1.49,1,0,0,0,0,0,0,0,0,0,0,0,0-.07.05-.14.1-.21.15-.22.15-.44.3-.66.46,0,0,0,0,0,0-.46.32-.92.64-1.39.96,0,0,0,0-.01,0-.17.12-.35.25-.53.37-.14.1-.28.2-.42.3-.45.32-.91.65-1.37.98,0,0-.01,0-.02.01,0,0,0,0,0,0-.32.23-.63.46-.95.69-.47.34-.95.69-1.43,1.05-.14.11-.29.21-.43.32-.17.12-.33.24-.5.37,0,0,0,0-.01,0-.52.39-1.05.79-1.58,1.19-.27.21-.55.41-.82.62-.76.58-1.53,1.17-2.3,1.77-.04.03-.08.06-.12.1h0s-.01-.01-.03-.03h0s-.01-.01-.02-.02c0,0-.02-.02-.03-.03-.01-.01-.02-.02-.04-.04,0,0,0,0,0,0,0,0-.01-.01-.02-.02-.02-.02-.05-.05-.08-.08,0,0-.01-.01-.02-.02-.02-.02-.04-.04-.06-.06,0,0-.01-.01-.02-.02,0,0-.02-.02-.03-.03-.03-.03-.06-.06-.1-.1-.02-.02-.05-.05-.07-.07-.01-.01-.02-.02-.03-.03-.05-.05-.1-.1-.16-.16-.03-.03-.06-.06-.09-.1-.04-.04-.08-.09-.12-.13-.07-.07-.14-.15-.22-.23-.06-.06-.11-.12-.18-.19-.02-.02-.04-.04-.05-.06-.1-.1-.2-.22-.31-.33-.01-.01-.02-.03-.04-.04-.02-.02-.04-.05-.06-.07,0,0,0-.01-.01-.01-.11-.12-.23-.25-.35-.38,0,0-.01-.01-.02-.02-.03-.03-.06-.06-.09-.09,0,0-.01-.01-.02-.02-.13-.14-.26-.29-.4-.44,0,0,0,0,0,0,0,0,0,0-.01-.01-.01-.02-.03-.03-.04-.05,0-.01-.02-.02-.03-.03,0,0,0,0-.01-.01-.29-.32-.6-.67-.93-1.05-.07-.08-.14-.16-.22-.25-.34-.38-.69-.79-1.06-1.22-.02-.03-.04-.05-.07-.08,0,0,0,0,0,0-.21-.25-.43-.51-.65-.77,0,0-.01-.02-.02-.03h0s0-.02-.01-.02c-.07-.08-.14-.17-.21-.26-.26-.31-.51-.61-.78-.94-.02-.03-.05-.06-.07-.08-.03-.04-.07-.09-.11-.13-.01-.02-.03-.03-.04-.05-.01-.01-.02-.03-.03-.04-.27-.33-.54-.65-.82-1-.04-.05-.09-.11-.13-.17-.07-.09-.14-.18-.21-.26-.26-.32-.51-.63-.77-.97-.06-.08-.13-.16-.19-.24,0,0-.01-.02-.02-.03-.04-.05-.07-.09-.11-.14-.04-.06-.09-.11-.13-.17-.24-.3-.47-.6-.71-.91-.1-.12-.2-.26-.29-.38-.09-.12-.18-.24-.27-.36-.22-.28-.43-.56-.65-.85-.07-.1-.15-.2-.22-.3-.05-.07-.11-.15-.16-.22-.09-.13-.19-.25-.28-.38-.2-.27-.39-.52-.59-.8-.01-.01-.02-.03-.03-.04-.15-.2-.3-.41-.44-.61-.1-.14-.2-.27-.3-.41-.17-.24-.35-.47-.52-.72-.1-.14-.21-.29-.31-.44-.09-.13-.18-.26-.27-.38-.1-.14-.2-.28-.3-.42-.15-.22-.3-.42-.45-.64-.1-.14-.2-.29-.3-.43-.14-.19-.27-.39-.41-.59-.09-.13-.18-.26-.27-.39-.13-.19-.26-.37-.39-.56-.06-.09-.12-.18-.18-.27-.22-.32-.44-.66-.66-.99-.08-.11-.15-.23-.23-.34-.1-.16-.21-.31-.31-.46-.15-.22-.3-.46-.44-.68-.2-.31-.41-.62-.61-.94-.04-.06-.07-.11-.11-.17-.08-.13-.16-.25-.24-.37-.13-.2-.26-.41-.38-.61-.35-.54-.69-1.08-1.04-1.64-.1-.15-.19-.31-.29-.47-.38-.62-.76-1.23-1.15-1.87-.11-.18-.22-.37-.33-.55-.37-.62-.74-1.23-1.11-1.87-.15-.26-.31-.54-.46-.81-.33-.57-.65-1.13-.98-1.71-.06-.1-.11-.21-.17-.31-.03-.05-.05-.1-.08-.15-.03-.05-.06-.1-.08-.15-.02-.03-.03-.06-.05-.09-.35-.63-.7-1.26-1.05-1.9-.08-.14-.15-.29-.23-.43-.08-.14-.16-.29-.23-.44-.03-.06-.07-.13-.1-.19-.29-.54-.58-1.07-.87-1.62-.1-.19-.2-.38-.29-.57-.14-.27-.28-.54-.42-.81-.24-.46-.48-.92-.72-1.39-.12-.23-.23-.47-.35-.71-.01-.03-.03-.06-.04-.09-.14-.28-.28-.57-.42-.85-.2-.4-.4-.8-.6-1.21-.1-.22-.21-.44-.31-.65-.03-.07-.06-.14-.1-.21-.16-.34-.33-.69-.49-1.04-.16-.35-.33-.69-.49-1.04-.15-.33-.3-.68-.46-1.01,0,0,0-.01,0-.02-.17-.37-.33-.73-.5-1.1-.13-.3-.27-.59-.4-.89-.1-.24-.21-.48-.31-.72-.07-.16-.14-.33-.21-.49-.17-.38-.33-.76-.49-1.15-.11-.25-.21-.49-.32-.74-.13-.3-.25-.61-.37-.91-.07-.17-.14-.35-.21-.52-.16-.39-.32-.77-.47-1.16-.08-.2-.16-.39-.24-.59-.15-.38-.3-.77-.45-1.15-.07-.18-.14-.36-.21-.53-.15-.38-.29-.75-.44-1.13-.06-.15-.11-.29-.17-.44-.21-.56-.42-1.13-.62-1.7-.04-.12-.09-.23-.13-.35-.12-.33-.24-.66-.36-.99-.03-.1-.07-.19-.11-.29-.21-.6-.42-1.22-.63-1.83-.11-.32-.22-.64-.33-.96-.05-.16-.11-.32-.16-.48-.02-.05-.03-.09-.05-.14-.18-.53-.34-1.07-.52-1.6-.2-.63-.41-1.25-.61-1.89,0-.03-.02-.06-.03-.09-.01-.04-.02-.07-.03-.11-.11-.34-.21-.69-.31-1.04-.23-.77-.47-1.54-.7-2.32-.02-.08-.04-.16-.07-.24-.1-.36-.2-.73-.3-1.09-.06-.21-.12-.43-.18-.64-.15-.56-.31-1.11-.46-1.67-.04-.13-.07-.27-.1-.4-.12-.45-.23-.91-.35-1.37-.16-.63-.33-1.26-.48-1.9,0-.01,0-.02,0-.03-.05-.19-.09-.39-.13-.58-.07-.29-.14-.59-.2-.88-.05-.21-.1-.42-.15-.63-.05-.21-.1-.42-.15-.63-.08-.35-.17-.7-.24-1.06-.06-.25-.1-.51-.16-.76-.11-.53-.22-1.07-.33-1.6-.1-.5-.21-.99-.31-1.49-.05-.25-.09-.51-.14-.76-.2-1.03-.38-2.07-.56-3.11-.07-.41-.15-.81-.22-1.23-.02-.13-.04-.27-.06-.4,0,0,0,0,0,0-.26-1.59-.5-3.19-.72-4.81,0,0,0,0,0,0,0-.05-.01-.09-.02-.14,0,0,0,0,0,0-.13-.95-.25-1.91-.36-2.87,0,0,0,0,0,0-.02-.13-.03-.27-.04-.41-.16-1.43-.31-2.87-.44-4.32h0s0-.06,0-.09c-.28-3.14-.47-6.34-.57-9.6,0-.19,0-.38-.02-.56,0,0,0,0,0,0-.01-.5-.01-1.01-.02-1.51-.02-.89-.04-1.79-.04-2.69,0-.26,0-.53,0-.79h0c0-.17,0-.34,0-.51,0-.13,0-.26,0-.38h0c.02-2.84.09-5.71.26-8.62,0-.02,0-.03,0-.05h0c.02-.42.05-.85.08-1.27.05-.81.12-1.63.18-2.45.03-.39.05-.78.09-1.17,0,0,0,0,0,0,.04-.47.08-.93.12-1.4.15-1.59.31-3.18.5-4.79,0-.02,0-.04,0-.06,0,0,0,0,0,0-.21-.44-.42-.9-.63-1.36-.11-.24-.22-.47-.33-.72-.04-.08-.07-.16-.11-.23-.01-.03-.03-.06-.04-.09,0,0,0-.02-.01-.02-.17-.37-.34-.75-.52-1.12-.2-.44-.4-.87-.61-1.31-.02-.05-.05-.1-.07-.15,0,0,0-.01,0-.02,0,0,0-.02-.01-.03-.05-.1-.09-.2-.14-.3-.42-.91-.84-1.84-1.28-2.78-.01-.03-.02-.05-.04-.08-.17-.36-.33-.73-.5-1.1-.01-.02-.02-.05-.03-.07-.16-.36-.32-.71-.49-1.07-.27-.6-.55-1.2-.82-1.8,0-.01-.01-.02-.02-.04,0,0,0,0,0-.01-.02-.04-.04-.08-.06-.13,0-.02-.02-.04-.03-.06-.36-.79-.73-1.59-1.09-2.39,0-.02-.02-.04-.03-.06-.15-.32-.3-.65-.44-.97-.04-.09-.08-.18-.13-.28-.1-.22-.2-.43-.3-.65-.1-.22-.2-.45-.31-.67-.1-.21-.19-.42-.29-.63-.04-.08-.07-.16-.11-.24-.02-.05-.04-.1-.07-.15-.11-.25-.23-.5-.34-.75,0-.01,0-.02-.01-.03,0-.01,0-.02-.01-.03-.19-.42-.38-.83-.57-1.25-.01-.03-.02-.05-.04-.08-.62-1.37-1.24-2.72-1.85-4.07-.05-.11-.1-.23-.16-.34-.04-.09-.08-.18-.12-.27-.05-.11-.1-.23-.16-.34-.04-.08-.07-.16-.11-.23-.09-.2-.18-.4-.27-.6-.13-.28-.25-.56-.38-.84-.08-.17-.15-.33-.23-.5-.06-.12-.11-.25-.17-.37-.06-.13-.12-.26-.18-.39-.02-.04-.04-.08-.05-.12-.3-.66-.6-1.32-.89-1.96-.02-.04-.04-.09-.06-.13-.03-.06-.06-.12-.08-.18-.09-.19-.17-.38-.26-.57-.13-.29-.27-.58-.4-.87-.03-.07-.06-.14-.1-.21-1.35-2.97-2.59-5.72-3.68-8.12-.02-.05-.05-.11-.07-.16-.03-.07-.06-.13-.09-.2-.16-.35-.31-.69-.47-1.03,0,0,0,0,0,0-2.16-4.78-3.55-7.85-3.55-7.85h0s0,0,0,0c0,0,0,0,0,0,.11-.09.21-.18.32-.27.27-.23.54-.45.82-.69.19-.16.38-.34.57-.51.19-.17.38-.34.58-.52.2-.18.39-.37.59-.56.19-.18.38-.35.56-.53.13-.12.25-.25.38-.37.26-.25.52-.51.78-.77.15-.15.3-.31.45-.46.24-.24.48-.49.72-.74.15-.16.3-.32.45-.48.63-.67,1.27-1.35,1.91-2.06.17-.19.34-.38.51-.57.23-.25.45-.51.68-.77.23-.26.46-.53.69-.8.17-.2.34-.39.5-.59.18-.21.35-.42.53-.63.22-.26.44-.53.67-.8.27-.33.54-.66.81-.99.13-.16.26-.32.39-.48.27-.33.54-.67.8-1.01.13-.17.26-.33.39-.5.17-.21.33-.43.5-.64.23-.3.47-.6.7-.9.04-.05.08-.1.12-.15.76-.99,1.52-2,2.28-3.02.2-.28.41-.56.61-.84.19-.26.39-.53.58-.79.33-.46.66-.92,1-1.38.06-.09.13-.18.19-.27.23-.32.45-.63.67-.95.17-.24.34-.48.52-.73.62-.88,1.24-1.78,1.86-2.68.2-.3.41-.59.61-.89.73-1.07,1.46-2.15,2.18-3.24.02-.02.03-.05.05-.07,2.89-4.36,5.7-8.81,8.37-13.18.5-.81.99-1.62,1.47-2.43.67-1.11,1.32-2.21,1.97-3.3.11-.19.23-.38.34-.58.62-1.05,1.23-2.1,1.83-3.13s1.19-2.05,1.76-3.05c1.15-2.01,2.25-3.95,3.29-5.82.52-.93,1.03-1.84,1.52-2.73,1.47-2.67,2.81-5.13,3.98-7.31.02-.04.04-.08.07-.12.61-1.15,1.18-2.22,1.7-3.21.03-.05.05-.09.08-.14.36-.68.69-1.31,1-1.9.16-.31.32-.61.47-.9.23-.44.43-.84.63-1.21.35-.69.65-1.27.88-1.72.02-.04.04-.07.05-.11.16-.32.29-.57.37-.74.09-.19.14-.29.14-.29h0c.41-1.17.82-2.32,1.25-3.47.13-.35.26-.69.39-1.03.3-.79.59-1.57.9-2.35.17-.44.35-.87.52-1.3.27-.67.54-1.35.82-2.01.07-.16.14-.33.21-.49.13-.3.26-.6.38-.9,0,0,0,0,0,0,.26-.62.53-1.24.8-1.85.21-.48.43-.96.65-1.44.26-.58.53-1.16.79-1.73.23-.49.46-.98.7-1.47.26-.54.53-1.09.79-1.63,0,0,0,0,0,0,.25-.5.49-.99.74-1.48,0,0,0,0,0,0,.26-.51.53-1.03.79-1.53,0,0,0,0,0,0,.21-.4.43-.81.64-1.21.05-.09.1-.19.15-.28.26-.48.53-.96.79-1.44.28-.51.56-1.01.84-1.51.26-.45.52-.89.77-1.34.3-.52.6-1.03.91-1.54.24-.4.49-.8.73-1.2.12-.19.24-.38.35-.57.21-.35.43-.7.64-1.04h0c.19-.3.38-.59.57-.89.01-.02.02-.04.04-.05.65-1.01,1.33-1.99,2.01-2.98.02-.03.04-.06.06-.08.46-.67.92-1.35,1.39-2.01.05-.07.11-.14.16-.22.86-1.2,1.73-2.4,2.63-3.56,0,0,.01-.02.02-.03,0-.01.02-.02.03-.03.1-.13.19-.25.29-.38.49-.63.99-1.25,1.49-1.87.15-.18.29-.37.44-.55h0c.47-.57.95-1.14,1.42-1.7.02-.03.04-.05.07-.08,0,0,0,0,0,0,.16-.19.32-.38.48-.56,0,0,0,0,0,0,.5-.58,1.01-1.15,1.52-1.72h0c.16-.18.33-.36.49-.54,0,0,0,0,0,0,.52-.57,1.05-1.14,1.58-1.7h0c.15-.16.31-.32.46-.49,0,0,0,0,0,0,.55-.57,1.1-1.13,1.66-1.69,0,0,0,0,0,0,.14-.14.27-.27.41-.4.58-.58,1.17-1.15,1.76-1.71.1-.1.21-.19.31-.29.09-.09.19-.17.28-.26.54-.51,1.08-1.01,1.63-1.5,0,0,0,0,0,0,.04-.03.08-.07.11-.1,0,0,0,0,0,0,1.12-1.01,2.27-1.98,3.43-2.93,0,0,0,0,0,0,.15-.13.3-.26.46-.39.2-.16.41-.31.61-.48.89-.72,1.79-1.41,2.7-2.1,0,0,0,0,.01-.01.24-.18.46-.37.7-.54.09-.06.18-.12.27-.19,1.14-.84,2.3-1.65,3.47-2.45,0,0,0,0,0,0,.14-.1.28-.2.42-.29.29-.2.6-.37.89-.57.83-.55,1.67-1.08,2.52-1.6.3-.18.58-.38.88-.56.18-.11.37-.21.55-.32,1.17-.7,2.35-1.38,3.55-2.03.01,0,.02-.01.03-.02,1.48-.81,2.98-1.59,4.51-2.34.8-.39,1.62-.76,2.43-1.13.13-.06.26-.12.4-.18.19-.09.38-.18.58-.27.82-.37,1.66-.71,2.5-1.06.33-.14.65-.28.97-.41,0,0,0,0,0,0,0,0,0,0,0,0,0,0,0,0,0,0,1.07-.44,2.16-.86,3.25-1.26,0,0,0,0,0,0h0c1.14-.43,2.3-.83,3.46-1.23.17-.06.35-.11.52-.17.3-.1.61-.2.91-.29.62-.2,1.23-.4,1.85-.59.35-.11.7-.21,1.05-.31.1-.03.19-.06.29-.08.31-.09.61-.18.92-.27.36-.1.72-.21,1.09-.3.42-.11.83-.22,1.25-.33.56-.15,1.11-.3,1.67-.43.17-.04.35-.08.52-.12.43-.11.87-.21,1.31-.31.7-.16,1.41-.32,2.12-.48.25-.05.5-.12.76-.17.06-.01.12-.03.19-.04.24-.05.48-.09.72-.14.57-.12,1.15-.23,1.73-.34.37-.07.74-.15,1.11-.21.07-.01.14-.03.2-.04.17-.03.34-.05.51-.08.57-.1,1.14-.19,1.71-.28.52-.08,1.04-.18,1.56-.26.01,0,.03,0,.04,0,.09-.01.18-.02.27-.04.98-.15,1.97-.28,2.97-.4.09-.01.18-.03.28-.04.12-.02.24-.03.37-.05,0,0,.02,0,.03,0,.05,0,.09-.01.14-.02,0,0,0,0,0,0,.93-.11,1.88-.22,2.82-.31,0,0,.01,0,.02,0,.14-.01.28-.03.42-.04,0,0,0,0,.01,0,.89-.09,1.79-.17,2.69-.24,0,0,.01,0,.02,0,.19-.02.39-.03.58-.05.88-.07,1.76-.13,2.65-.18.23-.01.46-.03.7-.04,0,0,.02,0,.02,0,.77-.04,1.55-.08,2.32-.11.09,0,.17,0,.26-.01.25-.01.51-.02.76-.03.75-.03,1.51-.05,2.26-.06.11,0,.22,0,.33,0,0,0,0,0,.01,0,.26,0,.52,0,.78-.01,0,0,.02,0,.02,0,0,0,0,0,0,0,.68-.01,1.37-.01,2.06-.02.18,0,.37,0,.55,0,.24,0,.47,0,.71,0,.29,0,.59,0,.88,0,.62,0,1.24,0,1.86.02,0,0,.01,0,.02,0,.15,0,.31,0,.46.01.03,0,.07,0,.1,0,.04,0,.07,0,.11,0,1.21.03,2.44.09,3.66.14.05,0,.1,0,.15,0,1.22.05,2.44.11,3.67.19.07,0,.14.01.2.01,1.46.09,2.92.19,4.4.31.04,0,.07,0,.11,0,.03,0,.06,0,.09,0,.37.03.74.06,1.11.1,0,0,0,0,.01,0,.04,0,.08,0,.11.01.7.07,1.4.14,2.1.21.5.05,1,.1,1.5.16,0,0,0,0,.01,0,.46.05.93.11,1.39.16.23.03.45.05.68.08.56.07,1.13.13,1.69.21.66.09,1.33.18,2,.27.6.08,1.2.17,1.81.25.65.09,1.3.19,1.95.29.64.1,1.27.2,1.91.3,0,0,.01,0,.02,0,.62.1,1.23.2,1.85.31h.02s.01,0,.02,0c.66.11,1.33.23,2,.35,0,0,.01,0,.02,0,.28.05.56.1.84.15.33.06.67.12,1,.18.69.13,1.39.26,2.08.4.04,0,.09.02.13.03.56.11,1.11.22,1.67.33,0,0,0,0,.01,0,.73.15,1.46.3,2.2.46.34.07.67.14,1.01.22.24.05.48.1.73.16,0,0,0,0,.01,0,.78.17,1.56.35,2.34.53.25.06.51.12.76.17.29.07.58.13.87.2,0,0,0,0,0,0,.88.21,1.77.42,2.65.64.24.06.49.12.73.18.21.05.42.1.63.15,0,0,0,0,0,0,1.34.33,2.68.68,4.03,1.04,0,0,.02,0,.03,0,.02,0,.05.01.08.02.82.22,1.66.45,2.48.68.57.16,1.13.3,1.69.46,1.49-.39,2.97-.77,4.44-1.14,0,0,0,0,0,0,.45-.11.89-.22,1.34-.33,0,0,0,0,.01,0,.01,0,.02,0,.04,0,1-.25,2-.49,3-.73,0,0,0,0,0,0,.55-.13,1.09-.25,1.64-.38.01,0,.02,0,.03,0,.78-.18,1.57-.36,2.35-.54.1-.02.21-.05.31-.07.08-.02.16-.04.24-.05.52-.12,1.04-.22,1.56-.33.12-.03.24-.05.36-.08.71-.15,1.42-.31,2.13-.46.46-.1.91-.19,1.36-.28.16-.03.33-.07.49-.1.01,0,.02,0,.04,0,.78-.16,1.56-.32,2.34-.47,0,0,0,0,.01,0,.63-.12,1.25-.24,1.88-.35.01,0,.03,0,.04,0,.75-.14,1.5-.28,2.24-.42.65-.12,1.3-.23,1.95-.34.73-.13,1.45-.25,2.17-.37,0,0,0,0,.01,0,.51-.08,1.01-.16,1.52-.24.14-.02.29-.05.43-.07.7-.11,1.41-.22,2.11-.32,0,0,0,0,.01,0,.24-.04.48-.07.71-.1.41-.06.83-.12,1.24-.18.68-.1,1.37-.19,2.04-.28.66-.09,1.32-.17,1.98-.25.66-.08,1.32-.16,1.98-.24.46-.05.91-.1,1.36-.15.2-.02.39-.04.59-.07,0,0,.02,0,.03,0,.64-.07,1.28-.14,1.92-.2.24-.02.47-.04.71-.07.42-.04.83-.08,1.25-.12,0,0,.02,0,.02,0,.63-.06,1.25-.11,1.87-.16.32-.03.65-.05.97-.08.33-.03.66-.05.99-.08,0,0,.01,0,.02,0,.61-.04,1.22-.09,1.82-.13.45-.03.9-.05,1.35-.08.2-.01.41-.03.62-.04,0,0,.01,0,.02,0,.59-.03,1.17-.06,1.76-.09.5-.02.99-.04,1.48-.06.16,0,.33-.01.49-.02,0,0,.01,0,.02,0,.57-.02,1.14-.04,1.7-.05,0,0,.02,0,.02,0,.65-.02,1.3-.03,1.95-.05,0,0,.01,0,.02,0,.55,0,1.1-.01,1.65-.02,0,0,.02,0,.02,0,.65,0,1.31,0,1.96,0,0,0,.01,0,.02,0,.53,0,1.05,0,1.57.01.68,0,1.35.02,2.02.03.5.01,1,.03,1.5.04.01,0,.02,0,.04,0,.31,0,.61.02.92.03.36.01.73.02,1.09.04.47.02.94.05,1.41.07.69.04,1.38.07,2.07.12.44.03.88.06,1.33.1.7.05,1.41.1,2.11.16.4.04.8.08,1.2.11.01,0,.03,0,.04,0,0,0,0,0,0,0,.67.06,1.35.13,2.01.2.04,0,.07,0,.11.01,0,0,0,0,.01,0,.35.04.69.08,1.03.12.02,0,.04,0,.05,0,.51.06,1.02.12,1.52.19.24.03.48.06.72.09.27.04.53.08.8.11.32.05.64.09.97.14.5.07,1.01.14,1.5.22,0,0,0,0,0,0,.13.02.26.04.39.07.03,0,.06.01.09.02,1.67.27,3.31.57,4.93.9,0,0,0,0,0,0,.51.1,1.01.22,1.52.33.87.19,1.75.36,2.61.56.27.06.52.14.79.2.56.14,1.12.28,1.68.43.02,0,.04.01.06.02,1.04.27,2.07.55,3.1.84,0,0,0,0,0,0,.55.16,1.1.32,1.65.49.46.14.92.26,1.38.41.02,0,.04.01.07.02.87.28,1.73.57,2.58.86.02,0,.03.01.05.02.09.03.18.06.26.09.82.29,1.64.58,2.45.89.14.05.27.1.41.15,0,0,0,0,0,0,.77.29,1.52.59,2.28.9,0,0,.02,0,.03.01.16.07.32.13.49.2.75.31,1.49.63,2.23.95.17.08.35.15.52.23,0,0,0,0,0,0,.1.04.2.09.3.14.62.28,1.24.56,1.85.85.18.09.36.17.54.26,0,0,0,0,0,0,.58.28,1.15.56,1.71.85.13.06.25.12.38.19.18.09.36.18.54.28,0,0,0,0,0,0,.17.09.34.18.51.27.51.27,1.03.54,1.54.82.18.1.36.19.53.29,0,0,0,0,0,0,.67.37,1.34.75,2,1.14,0,0,0,0,.01,0,.17.1.35.2.52.31,0,0,0,0,0,0,.66.39,1.32.79,1.97,1.2,0,0,0,0,.01,0,.17.1.33.21.5.31.66.42,1.32.84,1.97,1.28.16.1.31.21.47.31.38.26.76.53,1.15.79.27.18.53.36.8.55,0,0,0,0,0,0,.14.1.29.2.43.31,0,0,0,0,0,0,.5.36.99.73,1.49,1.09.15.11.3.22.45.33.13.09.25.19.38.29,0,0,0,0,.01,0,.11.08.21.17.32.25.54.42,1.08.83,1.61,1.26.11.09.22.17.32.26,0,0,0,0,.01,0,.65.53,1.3,1.06,1.94,1.6,0,0,0,0,0,0,.09.07.17.15.26.22,0,0,0,0,0,0,.58.5,1.16,1.01,1.73,1.52.07.07.15.13.23.2.06.05.12.11.18.16,0,0,0,0,.01.01.67.61,1.33,1.22,1.98,1.85,0,0,0,0,0,0,.02.02.05.05.07.07,0,0,0,0,.01.01,0,0,0,0,0,0,.02.02.03.03.05.05.74.71,1.46,1.43,2.18,2.16.22.22.43.45.65.68.42.43.84.87,1.25,1.31,0,0,0,0,0,0,.09.1.18.2.28.31.26.28.51.56.76.84.32.35.64.69.95,1.05,0,0,.01.02.02.02.13.15.26.31.4.46.26.3.53.61.79.92.28.33.56.67.84,1.01.15.18.3.36.45.54,0,0,0,0,0,0,.26.31.52.63.77.95,0,0,0,.01.01.02.42.53.84,1.06,1.26,1.59,0,0,0,0,0,.01.24.31.49.63.73.94,0,0,0,.01.01.02.24.32.48.65.73.98.19.25.38.5.56.76.22.3.43.59.65.89.48.67.96,1.36,1.43,2.04.15.22.31.44.46.67,1.25,1.86,2.47,3.77,3.65,5.74.14.23.28.47.41.7,0,0,0,.01,0,.02.44.74.87,1.48,1.3,2.24,0,0,0,0,0,.01.18.32.36.65.54.97.26.47.53.94.79,1.42.03.05.06.11.09.16.08.16.17.32.25.48.2.37.39.74.58,1.11.35.67.7,1.35,1.04,2.03.18.36.36.72.54,1.08.01.03.03.06.04.08.15.31.31.6.45.91.19.38.37.78.55,1.16.05.11.11.22.16.34.13.28.26.55.39.83.11.23.22.46.33.7.23.5.45,1.01.67,1.51.14.31.27.61.41.92.03.06.06.13.08.19.07.16.15.32.22.49.34.78.67,1.57,1,2.36.02.06.05.12.07.17.14.35.28.71.43,1.06.38.92.75,1.84,1.12,2.78,0,0,0,0,0,0,0,0,0,0,0,0,0,0,0,0,0,0,.09.23.17.47.26.7.41,1.06.81,2.13,1.2,3.22.03.09.07.18.1.28.07.2.15.4.22.6.41,1.17.82,2.35,1.22,3.54,0,0,0,0,0,.01h0s0,0,0,0h0s0,0,0,0v-.03s0,0,0,0h0s0,0,0,0c0,0,0,.01,0,.02,0,.01.01.03.01.04.01,0,.02,0,.03,0,0,0,0,0,0,0l.02.15s.01.02.02.03c.66,1.16,1.32,2.31,1.98,3.44.23.4.47.8.7,1.19.43.73.86,1.45,1.29,2.17.15.24.29.49.43.73.14.23.28.46.43.69.28.46.56.91.84,1.37.09.15.18.3.27.45.19.3.37.59.56.89.14.22.27.44.41.65.27.42.53.84.8,1.26,0,0,0,0,0,0,.82,1.29,1.64,2.56,2.47,3.81,0,0,0,0,0,0,.12.19.25.38.37.57,0,.01.02.03.03.04.43.65.86,1.29,1.29,1.92.07.11.14.22.22.32.12.18.24.35.36.53,0,0,0,0,0,0,.67.99,1.34,1.95,2.01,2.91,0,0,0,0,0,0,.17.25.35.5.52.74,0,0,0,.01.01.02.49.71.99,1.4,1.48,2.1,0,0,.01.02.02.03.21.29.41.58.62.87,0,.01.02.02.02.03.05.07.1.14.15.21.41.57.82,1.13,1.23,1.69.02.03.04.05.06.08.19.27.39.53.58.8,0,.01.02.02.03.03.66.89,1.32,1.78,1.97,2.65,0,0,0,0,0,0,.09.13.19.25.28.38.53.7,1.05,1.39,1.58,2.07.1.13.2.26.3.39,0,0,0,0,0,0,.37.48.73.93,1.1,1.4.5.65,1.01,1.3,1.51,1.94.02.03.04.06.06.08.51.64,1.01,1.26,1.51,1.88.33.41.65.82.98,1.22.05.06.1.13.15.19.92,1.13,1.83,2.24,2.73,3.33.08.1.16.19.24.29,1.01,1.22,2.01,2.41,3,3.58.09.11.19.23.28.34.21.24.41.48.62.72.29.34.57.66.86,1,.63.73,1.26,1.46,1.87,2.18.25.29.51.6.77.89.19.21.37.43.56.64.12.14.23.27.35.4.17.19.33.38.5.57.75.86,1.5,1.71,2.23,2.54.13.15.26.29.39.44.6.68,1.2,1.37,1.79,2.03.84.95,1.65,1.87,2.46,2.79.1.11.2.23.3.34,0,0,.01.01.02.02,0,0,0,0,.01.01.88,1,1.75,1.99,2.59,2.95.01.01.02.03.04.04.19.22.37.43.56.64,0,0,0,0,0,0,.4.46.8.92,1.19,1.36.07.09.14.17.22.25.25.29.5.59.75.88,0,0,0,0,.01.01.38.44.76.89,1.13,1.32.02.03.05.06.07.08.4.47.8.94,1.18,1.4.21.25.4.49.6.73,0,0,0,0,0,.01.07.09.15.18.22.26.27.33.54.66.8.98.04.04.07.09.11.13.07.09.15.18.22.27.01.02.03.04.04.05.08.1.16.2.25.31.32.4.64.8.94,1.19.19.24.38.49.57.73.18.24.36.47.54.71.14.18.28.36.41.54.15.2.31.41.45.61.11.14.2.28.31.43.33.46.67.92.98,1.37,0,0,0,.01.01.02,0,0,0,0,0,0,0,0-.06.12-.19.35-.12.23-.31.57-.55,1.02Z"/>
    <path class="cls-2" d="M255.59,112.28s-.02.02-.03.03c0,0,.03.03.03.03-.02,0-.03,0-.05,0-.11.11-.17.17-.17.17-.1-.08-.21-.15-.32-.23-148.47-15.74-165.79,23.03-183.96,46.07-14.12,17.53-24.15,25.82-30.63,32.54,0,0,10.16,19.72,18.73,31.08-4.95,78.44,39.61,117.64,39.61,117.64,0,0,53.72-32.48,90.56,3.37-17.66-44.87-85.13-30.35-85.13-30.35,0,0-27.8-34.85-19.44-79.66,7.65,18.01,24.64,33.96,24.64,33.96,0,0-5.58-68.19,37.87-91.76-2.97,1.38-29.21,10.34-47.13,16.41l-7.06-43.95s61.85-39,115.74-7.98c0,0,27.33-11.54,46.45-11.34,18.29.2,41.8,9.59,44.7,10.86,36.25-21.08,75.76-7.64,98.5,1.34,32.12,12.68,52.57,46.47,52.57,46.47,0,0-8.34,10.68-18.53,27.14,6.66,56.49-26.6,102.18-26.6,102.18,0,0-57.71-23.31-91.47,30.19,44.73-38.27,100.85-3.74,100.85-3.74,49.48-44.24,39.62-117.61,39.62-117.61l-.54-3.08c9.51-11.87,21.95-38.68,21.95-38.68-4.09-5.07-21.64-23.87-31.57-35.01-8.04-6.74-27.45-54.93-189.21-36.08ZM71.26,213.87c-2.84-2.76-4.95-5.5-6.46-8.15-7.94-13.84-.08-25.26-.08-25.26,13.62-3.49,14.76.25,12.42,4.94-2.41,4.82-8.49,10.64-8.49,10.64l3.2,11.62,2.47,8.95c-1.11-.92-2.11-1.83-3.05-2.75Z"/>
    <path class="cls-2" d="M325.25,166.68c-.52-.25-1.04-.5-1.57-.75-.13-.06-.26-.12-.39-.18-.82-.38-1.65-.75-2.49-1.12-.15-.07-.31-.13-.46-.2-.68-.29-1.36-.58-2.04-.86-.54-.22-1.07-.44-1.62-.66-.26-.1-.51-.2-.77-.3-.86-.34-1.72-.67-2.6-.99,8.04,14.68,8.89,32.62-27.5,39.51,0,0,19.5-10.9,12.88-23.32l-43.21,16.97-47.65-16.58c-7.09,14.56,10.35,23.22,10.35,23.22-33.37-6.02-35.6-21.57-29.66-35.48-26.57,12.32-48.53,33.68-39.97,70.34,36.79-21.17,93.06-21.06,108.31-20.48,13.86-.51,57.4-1.47,98.16,20.47,10.65-37.94-4.89-57.47-29.79-69.6Z"/>
    <path class="cls-2" d="M159.7,250.15s10.96,31.02,30.44,37.4c0,0-7.96-35.94-6.69-52,0,0-17.74,3.81-23.76,14.6Z"/>
    <path class="cls-2" d="M345.99,249.35c-5.29-10.47-23.88-14.39-23.88-14.39,1.56,14.51-6.24,52.05-6.24,52.05,19.43-6.54,30.12-37.66,30.12-37.66Z"/>
    <path class="cls-2" d="M252.54,227.61c-23.29-.79-47.31,0-59.56,5.26,0,0,5.97,16.97,11.55,21.36,0,0-.05-9.44,7.09-11.54,7.76-2.28,8.62,2.77,18.92,3.22l19.51-4.24s.94-.08,2.55-.19c1.61.1,2.55.16,2.55.16l19.42,3.79c10.3-.54,11.25-5.32,19.02-3.1,7.15,2.04,7.18,11.48,7.18,11.48,5.55-4.43,11.37-21.46,11.37-21.46-12.3-5.15-36.33-5.73-59.61-4.75Z"/>
    <path class="cls-2" d="M255.47,370.32s25.48.65,41.25-8.56c0,0,14.33-7.32-.12-27.08,0,0-4.91,19.64-18.36,24.61l-11.28-3.88-11.01,6.27-12.1-6.17-11.25,3.97c-13.49-4.85-18.57-24.45-18.57-24.45-14.27,19.88.12,27.08.12,27.08,15.86,9.07,41.33,8.2,41.33,8.2Z"/>
    <path class="cls-2" d="M244.86,139.1s-25.16-.68-37.14,22.52l12.54-2.56c1.29-2.76,7.71-16.84,24.6-19.96Z"/>
    <path class="cls-2" d="M153.3,157.36l6.22,4.22s1.89-7.26.26-9.47c3.37-.3,7.13-.3,11.3.12,0,0-9.08-11.84-25.76-4.97-16.47,6.78-13.82,21.65-13.4,23.55.22-1.8,5.47-14.9,23.93-18.17-1.87,1.72-2.55,4.71-2.55,4.71Z"/>
    <path class="cls-2" d="M378.05,169.82c.4-1.9,2.92-16.8-13.61-23.43-16.74-6.72-25.72,5.19-25.72,5.19,4.17-.45,7.92-.49,11.3-.22-1.61,2.22.34,9.47.34,9.47l6.18-4.28s-.7-2.99-2.59-4.69c18.49,3.11,23.85,16.16,24.09,17.96Z"/>
    <path class="cls-2" d="M199.11,370.58c6.14,13.7,14.9,30.48,56.61,31.82,40.47-.17,48.42-19.41,53.17-32.3-9.25,5.52-25.44,14.71-53.36,14.73-23.42-.13-47.3-7.78-56.43-14.26Z"/>
  </g>
  <path class="cls-3" d="M255.05,112.28c.11.08.21.15.32.23,0,0,.06-.06.17-.17,0,0,.01-.01.02-.02.01-.01.02-.02.03-.03,3.29-3.12,44.02-38.77,164.38-13.96,0,0-17.88-95.77-166.08-60.73,0,0-135.26-38.54-164.79,61.39,0,0,109.57-28.27,165.94,13.29Z"/>
</svg>