<?xml version="1.0" encoding="UTF-8"?>
<svg id="Layer_1" xmlns="http://www.w3.org/2000/svg" version="1.1" xmlns:xlink="http://www.w3.org/1999/xlink" viewBox="0 0 203 62.2">
  <!-- Generator: Adobe Illustrator 29.3.1, SVG Export Plug-In . SVG Version: 2.1.0 Build 151)  -->
  <defs>
    <style>
      .st0 {
        fill: #fff;
      }

      .st1 {
        fill: url(#linear-gradient);
      }
    </style>
    <linearGradient id="linear-gradient" x1="178.2" y1="578.1" x2="124.4" y2="713.8" gradientTransform="translate(0 -548)" gradientUnits="userSpaceOnUse">
      <stop offset="0" stop-color="#b5923e"/>
      <stop offset="1" stop-color="#8d6f32"/>
    </linearGradient>
  </defs>
  <path class="st0" d="M55.2,36.3c-2.7,11.1-12.4,18.5-23.8,18.5S6.6,43,6.6,30.3,15.9,6,31.3,6s22.6,11.4,23.9,18.7h-12.6c-1.3-3.5-4.9-8.2-11.4-8.2s-12.6,7-12.6,13.7,4.8,14,12.6,14,10.5-6.3,11.3-7.9h12.7Z"/>
  <polygon class="st0" points="59.1 6.9 85.7 6.9 85.7 17.4 71.1 17.4 71.1 24.7 85.2 24.7 85.2 35.3 71.1 35.3 71.1 43.3 85.7 43.3 85.7 53.9 59.1 53.9 59.1 6.9 59.1 6.9"/>
  <path class="st0" d="M101.6,43.3h5.7c.8,0,2.3,0,3.6-.6,1.3-.6,2.4-1.7,2.4-3.9s-1-3-2.3-3.6c-1.2-.5-2.7-.5-3.7-.5h-5.7v8.6h0ZM101.6,24.7h4.3c.8,0,2.1,0,3.2-.4,1.1-.5,1.9-1.5,1.9-3.3s-.8-2.7-1.8-3.1-2.3-.4-3.2-.4h-4.3v7.3h0ZM89.5,6.9h17.3c4.8,0,8.7,1.1,11.4,3.2,2.7,2,4.2,5.1,4.2,9.1s-1.7,7.3-5.5,9.5c7.6,2.7,7.8,9,7.8,10.9,0,3.8-1.5,7.9-4.3,10.2-4.3,3.6-7.4,4.1-15.4,4.1h-15.4V6.9h0Z"/>
  <polygon class="st0" points="128.1 6.9 140.1 6.9 140.1 43.3 154 43.3 154 53.9 128.1 53.9 128.1 6.9 128.1 6.9"/>
  <path class="st1" d="M184.3,24.9h10.9l-1.9,10.1h-10.9l-2,11h-10.1l2-11h-10.9l1.9-10.1h10.9l2-11h10.1l-2,11Z"/>
</svg>