<?xml version="1.0" encoding="UTF-8"?><svg id="Layer_1" xmlns="http://www.w3.org/2000/svg" xmlns:xlink="http://www.w3.org/1999/xlink" viewBox="0 0 438.13 62.23"><defs><style>.cls-1{fill:#fff;}.cls-2{fill:none;stroke:#fff;stroke-miterlimit:10;stroke-width:.66px;}.cls-3{fill:url(#linear-gradient);}.cls-4{fill:#44b6e5;}</style><linearGradient id="linear-gradient" x1="178.23" y1="30.09" x2="124.38" y2="165.83" gradientUnits="userSpaceOnUse"><stop offset=".09" stop-color="#b5923e"/><stop offset="1" stop-color="#8d6f32"/></linearGradient></defs><path class="cls-1" d="m55.18,36.28c-2.73,11.12-12.39,18.49-23.76,18.49-14.74,0-24.77-11.75-24.77-24.46,0-12.01,9.27-24.33,24.65-24.33s22.61,11.37,23.88,18.74h-12.58c-1.33-3.49-4.89-8.19-11.37-8.19-8.07,0-12.58,7.05-12.58,13.72,0,7.11,4.83,13.98,12.64,13.98s10.54-6.29,11.31-7.94h12.58Z"/><polygon class="cls-1" points="59.08 6.87 85.69 6.87 85.69 17.41 71.08 17.41 71.08 24.72 85.25 24.72 85.25 35.26 71.08 35.26 71.08 43.33 85.69 43.33 85.69 53.88 59.08 53.88 59.08 6.87 59.08 6.87"/><path class="cls-1" d="m101.55,43.33h5.65c.76,0,2.29,0,3.56-.57,1.33-.57,2.41-1.72,2.41-3.94,0-2.03-1.02-3.05-2.29-3.56-1.21-.51-2.73-.51-3.68-.51h-5.65v8.58h0Zm0-18.61h4.26c.83,0,2.1,0,3.18-.44,1.08-.51,1.91-1.46,1.91-3.3s-.83-2.67-1.84-3.11c-1.02-.44-2.29-.44-3.24-.44h-4.26v7.31h0Zm-12.01-17.85h17.28c4.83,0,8.7,1.08,11.37,3.18,2.73,2.03,4.19,5.15,4.19,9.15,0,3.62-1.65,7.31-5.46,9.46,7.56,2.67,7.75,8.96,7.75,10.93,0,3.75-1.46,7.88-4.32,10.23-4.32,3.62-7.43,4.07-15.37,4.07h-15.44V6.87h0Z"/><polygon class="cls-1" points="128.1 6.87 140.11 6.87 140.11 43.33 154.02 43.33 154.02 53.88 128.1 53.88 128.1 6.87 128.1 6.87"/><path class="cls-3" d="m184.29,24.94h10.91l-1.9,10.15h-10.91l-2.03,10.97h-10.15l2.03-10.97h-10.91l1.9-10.15h10.91l2.03-10.97h10.15l-2.03,10.97Z"/><line class="cls-2" x1="216.83" y1="3.49" x2="216.83" y2="58.74"/><path class="cls-4" d="m244.91,39.14h-5.38v-10.08h5.29c2.26,0,3.93.43,4.99,1.29,1.04.85,1.55,2.07,1.55,3.74,0,.63-.12,1.26-.36,1.85-.24.59-.62,1.13-1.13,1.6-.51.47-1.19.86-2,1.16-.82.29-1.83.44-3,.44m-5.33,2.02h6.1c1.04,0,1.98.12,2.79.35.8.23,1.48.56,2.02.98.53.42.94.93,1.23,1.52.28.59.43,1.28.43,2.03,0,1.67-.52,2.92-1.6,3.83-1.08.91-2.73,1.38-4.88,1.38h-6.08v-10.08Zm10.27-1.26c.33-.14.64-.3.93-.48.7-.43,1.3-.94,1.79-1.51.49-.58.86-1.22,1.12-1.91.26-.69.39-1.42.39-2.16,0-1.11-.19-2.11-.55-2.99-.37-.89-.95-1.66-1.73-2.28-.76-.61-1.73-1.08-2.89-1.39-1.13-.31-2.49-.46-4.02-.46h-8v27.22h8.97c1.44,0,2.75-.17,3.89-.51,1.15-.34,2.14-.85,2.94-1.5.8-.66,1.43-1.48,1.85-2.43.42-.95.63-2.02.63-3.19,0-1.85-.6-3.37-1.79-4.52-.89-.86-2.07-1.49-3.53-1.88"/><polygon class="cls-4" points="258.69 26.71 258.69 53.59 275.15 53.59 275.16 51.24 261.37 51.24 261.37 41.16 272.8 41.16 272.8 38.81 261.37 38.81 261.37 29.06 275.15 29.06 275.15 26.71 258.69 26.71"/><polygon class="cls-4" points="278.18 26.71 278.18 29.06 287.59 29.06 287.59 53.59 290.27 53.59 290.27 29.06 299.35 29.06 299.35 26.71 278.18 26.71"/><path class="cls-1" d="m324.42,26.95c-.18.15-.31.33-.38.52l-8.98,21.91c-.07.16-.13.33-.19.51-.06-.17-.12-.34-.18-.51l-9-21.91c-.09-.21-.21-.38-.38-.52-.19-.15-.42-.23-.69-.23h-2.12l11.13,26.97.1.25h2.24l11.23-27.22h-2.1c-.27,0-.5.08-.7.24"/><rect class="cls-1" x="330.6" y="26.71" width="2.69" height="27.22"/><path class="cls-1" d="m357.08,48.45c-.09.04-.18.1-.28.18-.5.46-1.02.86-1.53,1.2-.5.33-1.06.62-1.65.85-.59.23-1.24.41-1.95.52-.71.12-1.53.18-2.45.18-1.42,0-2.77-.26-3.99-.76-1.22-.5-2.29-1.23-3.19-2.17-.9-.94-1.62-2.12-2.13-3.49-.52-1.38-.78-2.97-.78-4.73s.26-3.3.77-4.67c.51-1.37,1.23-2.55,2.13-3.5.9-.95,2-1.68,3.25-2.19,1.26-.51,2.67-.77,4.2-.77,1.19,0,2.22.13,3.06.38.85.26,1.57.54,2.14.85.57.31,1.02.59,1.33.84.43.34.72.49.98.49.44,0,.68-.21.8-.39l.78-1.1-.27-.23c-1.17-1.02-2.48-1.82-3.9-2.38-1.43-.56-3.08-.85-4.92-.85s-3.71.33-5.31.98c-1.6.66-3,1.59-4.15,2.78-1.14,1.19-2.05,2.63-2.68,4.28-.63,1.65-.95,3.49-.95,5.48s.31,3.89.93,5.54c.61,1.66,1.49,3.1,2.61,4.28,1.12,1.18,2.48,2.1,4.04,2.74,1.56.64,3.29.97,5.16.97,1.11,0,2.14-.09,3.07-.27.93-.18,1.8-.44,2.59-.77.78-.33,1.51-.74,2.17-1.21.65-.47,1.27-1,1.83-1.58l.26-.27-1.01-1.06c-.25-.24-.64-.31-.96-.15"/><polygon class="cls-1" points="361.52 26.71 361.52 29.06 370.93 29.06 370.93 53.59 373.61 53.59 373.61 29.06 382.69 29.06 382.69 26.71 361.52 26.71"/><path class="cls-1" d="m396.1,51.36c-1.5,0-2.89-.25-4.13-.75-1.24-.49-2.31-1.23-3.2-2.17-.89-.95-1.6-2.12-2.09-3.49-.5-1.37-.75-2.96-.75-4.71s.25-3.32.75-4.7c.49-1.37,1.19-2.55,2.09-3.5.89-.95,1.97-1.68,3.2-2.18,1.25-.5,2.63-.76,4.13-.76s2.9.26,4.15.76c1.24.5,2.31,1.24,3.2,2.18.89.95,1.58,2.12,2.07,3.5.49,1.38.74,2.96.74,4.7s-.25,3.34-.74,4.71c-.49,1.37-1.18,2.54-2.07,3.49-.88.94-1.96,1.68-3.19,2.17-1.24.5-2.64.75-4.15.75m9.35-20.93c-1.13-1.19-2.51-2.11-4.1-2.76-1.58-.64-3.35-.97-5.25-.97s-3.66.33-5.24.98c-1.58.65-2.96,1.58-4.09,2.75-1.13,1.18-2.02,2.62-2.64,4.28-.62,1.65-.93,3.51-.93,5.52s.31,3.89.93,5.54c.62,1.66,1.51,3.1,2.64,4.28,1.13,1.18,2.51,2.1,4.09,2.74,1.57.64,3.34.97,5.24.97s3.66-.32,5.25-.97c1.59-.64,2.96-1.56,4.1-2.74,1.13-1.18,2.02-2.62,2.64-4.28.62-1.65.93-3.52.93-5.54s-.31-3.87-.93-5.52c-.62-1.66-1.51-3.1-2.64-4.29"/><path class="cls-1" d="m414.95,29.06h4.44c2.26,0,3.99.43,5.14,1.29,1.13.84,1.68,2.1,1.68,3.87,0,.86-.16,1.64-.47,2.32-.31.67-.76,1.26-1.36,1.74-.6.49-1.35.87-2.22,1.13-.89.27-1.91.4-3.04.4h-4.18v-10.75Zm7.04,12.61c-.06-.08-.12-.15-.18-.22.83-.15,1.6-.38,2.3-.69.95-.42,1.78-.96,2.46-1.61.68-.65,1.21-1.43,1.58-2.3.37-.87.56-1.84.56-2.89,0-2.37-.81-4.2-2.39-5.43-1.56-1.21-3.91-1.83-6.98-1.83h-7.07v26.88h2.69v-11.76h3c.24,0,.43.01.6.03.14.02.26.05.35.09.09.04.16.09.23.15.09.08.17.18.26.31l8.31,10.52c.16.24.35.42.55.51.19.09.43.14.7.14h2.53l-9.49-11.92Z"/><path class="cls-1" d="m237.97,7.29h2.53c1.71,0,3.12.75,3.12,2.61v.05c0,1.9-1.42,2.63-3.12,2.63h-1.45v3.63h-1.09V7.29Zm2.61,4.43c1.27,0,1.96-.62,1.96-1.77v-.05c0-1.26-.75-1.74-1.96-1.74h-1.52v3.56h1.52Z"/><path class="cls-1" d="m244.97,13.01v-.1c0-1.96,1.36-3.33,3.21-3.33s3.21,1.36,3.21,3.32v.1c0,1.97-1.36,3.33-3.22,3.33s-3.2-1.41-3.2-3.32Zm5.34,0v-.09c0-1.51-.84-2.48-2.13-2.48s-2.13.97-2.13,2.47v.1c0,1.49.81,2.46,2.13,2.46s2.13-.99,2.13-2.46Z"/><path class="cls-1" d="m252.68,9.69h1.12l1.52,5.25,1.58-5.25h.9l1.49,5.25,1.54-5.25h1.06l-2.04,6.53h-1.15l-1.36-4.89-1.52,4.89h-1.14l-2.01-6.53Z"/><path class="cls-1" d="m263.18,13.02v-.1c0-1.97,1.26-3.35,3.06-3.35,1.51,0,2.93.91,2.93,3.25v.34h-4.92c.05,1.49.76,2.31,2.1,2.31,1.01,0,1.6-.37,1.73-1.14h1.04c-.22,1.31-1.31,2-2.78,2-1.85,0-3.16-1.3-3.16-3.31Zm4.93-.7c-.1-1.35-.8-1.88-1.87-1.88s-1.77.72-1.95,1.88h3.82Z"/><path class="cls-1" d="m271.26,9.69h1.04v1.17c.41-.74.97-1.25,2.15-1.29v.97c-1.31.06-2.15.47-2.15,2.08v3.58h-1.04v-6.53Z"/><path class="cls-1" d="m275.78,13.02v-.1c0-1.97,1.26-3.35,3.06-3.35,1.51,0,2.93.91,2.93,3.25v.34h-4.92c.05,1.49.76,2.31,2.1,2.31,1.01,0,1.6-.37,1.73-1.14h1.04c-.22,1.31-1.31,2-2.78,2-1.85,0-3.16-1.3-3.16-3.31Zm4.93-.7c-.1-1.35-.8-1.88-1.87-1.88s-1.77.72-1.95,1.88h3.82Z"/><path class="cls-1" d="m283.37,13.08v-.1c0-2,1.25-3.41,3.05-3.41,1.09,0,1.76.52,2.13,1.16v-4.17h1.04v9.65h-1.04v-1.12c-.38.64-1.29,1.24-2.23,1.24-1.71,0-2.95-1.21-2.95-3.25Zm5.22-.09v-.1c0-1.67-.8-2.46-2.07-2.46s-2.07.91-2.07,2.5v.1c0,1.65.89,2.43,1.98,2.43,1.21,0,2.16-.8,2.16-2.47Z"/><path class="cls-1" d="m296.07,7.29h2.68c1.66,0,2.87.55,2.87,2.31v.05c0,.81-.33,1.54-1.35,1.88,1.3.31,1.79.97,1.79,2.13v.05c0,1.68-1.15,2.5-2.93,2.5h-3.06V7.29Zm2.68,3.89c1.31,0,1.81-.47,1.81-1.57v-.05c0-1.01-.59-1.42-1.83-1.42h-1.6v3.04h1.62Zm.35,4.18c1.3,0,1.9-.57,1.9-1.66v-.05c0-1.1-.61-1.62-2.05-1.62h-1.82v3.33h1.97Z"/><path class="cls-1" d="m306.02,15.54l-2.56-5.85h1.11l2,4.68,1.81-4.68h1.06l-3.61,8.8h-1.05l1.24-2.95Z"/></svg>