<?xml version="1.0" encoding="UTF-8"?>
<svg id="Layer_1" data-name="Layer 1" xmlns="http://www.w3.org/2000/svg" width="5.79in" height="7.33in" viewBox="0 0 416.74 527.62">
  <defs>
    <style>
      .cls-1 {
        fill: #e81d2d;
        stroke-width: 0px;
      }
    </style>
  </defs>
  <g>
    <path class="cls-1" d="M346.9,429.19c-13.69,4.42-31.62,20.75-41.94,31.03-13.53-4.19-22.17-13.76-27.49-22.52-7.3,2.74-14.94,12.16-12.84,22.47h0,0s7.15,4.11,7.15,4.11l19.44,12.3c-5.04,6.55-7.84,13.6-8.2,20.7-.95,18.7,17.15,22.03,17.15,22.03h0s0,0,0,0h0c-11.98-66.45,67.63-64.09,67.63-64.09h0s0,0,0,0c0,0-5.75-9.48-23.07-9.83,0,0,0,0,0,0,0,0,17.53-6.3,35.66-5.94,0,0-13.08-16.83-33.49-10.24Z"/>
    <path class="cls-1" d="M413.43,380.57l-10.33-15.81-2.45-4.89c-1.64-12.55-6.09-26.89-10.23-29.27-18.66-10.72-41.47-17.53-73.78-28.13-83.82-27.5-105.9-71.37-105.9-71.37h0s0,0,0,0h0s0,0,0,0c19.3,55.91,79.8,107.42,148.74,144.21,34.27,15.24,43.76,31.32,46.31,40.16.15.69.26,1.32.36,1.92.45,3.04.49,4.92.49,4.92,0,0,0,0,0,0h0s17.11-25.94,6.78-41.75ZM383.88,354.04l-30.42-9.83v-10.84l-6.83-10.33,37.25,31.01Z"/>
    <path class="cls-1" d="M336.71,384.29c.22-.04.44-.08.67-.11,0,0-.23.03-.67.11Z"/>
    <path class="cls-1" d="M336.71,384.29c-.3.05-.6.1-.9.15,1.01-.18,1.56-.26,1.56-.26C142.29,276.11,139.18,130.41,174.55,26.46,180.13,10.07,183.27,0,183.27,0h0s0,0,0,0h0s0,0,0,0c-.02,0-134.96,30.45-120.3,181.33,14.13,145.39,175.21,180.82,175.21,180.82,0,0-165.26,9.52-203.32-156.04h0s0,0,0,0c0,0-65.25,81.19-17.19,155.81,52.23,81.08,203.85,40.47,203.86,40.46-96.81,40.28-187.7,19.95-187.7,19.95,8.37,51.8,60.11,68.44,60.11,68.44,61.09-27.55,109.63-55.85,135.2-71.35,0,0,0,0,0,0h0s-51.08,37.92-71.72,99.88c34.83,13.22,79.2,6.73,79.2,6.73h0c.85,0-11.56-58.13,20.8-94.26,34.22-38.21,73.75-46.48,79.29-47.48Z"/>
  </g>
  <path class="cls-1" d="M183.27,0s-84.55,52.62-76.05,177.56c8.59,126.28,163.83,190.63,163.83,190.63l-32.88-6.04s-161.08-35.43-175.21-180.82C48.3,30.44,183.27,0,183.27,0Z"/>
  <path class="cls-1" d="M34.85,206.11s-19.2,78.15,18.29,136.12c45.49,70.33,207.96,46.66,207.96,46.66l-39.57,13.5s-151.64,40.61-203.87-40.46c-48.06-74.61,17.19-155.81,17.19-155.81Z"/>
  <path class="cls-1" d="M93.94,490.76l-13.39-38.73s73.5-1.96,177.99-51.84c-7.26,4.19-14.72,8.56-29.4,19.22-25.57,15.5-74.11,43.8-135.2,71.35Z"/>
  <path class="cls-1" d="M236.62,526.03l-37.44-27.78s22.35-95.88,138.2-114.07c0,0-43.07,6.4-79.96,47.6-32.35,36.13-19.94,94.26-20.8,94.26Z"/>
  <path class="cls-1" d="M264.64,460.16l13.77-3.73s12.38,11.92,27.51,13.06l-14.69,7.09-19.44-12.3"/>
  <path class="cls-1" d="M300.17,519.3s-20.7-26.29,6.5-50.65c35.15-31.48,61.12-13.44,61.12-13.44,0,0-79.61-2.36-67.63,64.09"/>
  <path class="cls-1" d="M344.73,445.38s17.53-6.3,35.66-5.94c0,0-28.04-17.94-53.17,11.47,5.5-3.09,11.25-5.23,17.51-5.53Z"/>
  <path class="cls-1" d="M210.74,231.11s23.68,47.75,79.23,85.01c55.55,37.25,59.98,37.25,75.28,45.24,15.31,7.98,50.26,24.9,41.4,60.97,0,0-.05-2.53-.75-6.47-2.4-8.76-11.68-25.07-46.41-40.52-68.94-36.79-129.44-88.31-148.74-144.21Z"/>
  <path class="cls-1" d="M157.42,519.3l41.76-21.05,37.44,27.78s-44.37,6.49-79.2-6.73Z"/>
  <path class="cls-1" d="M33.83,422.32l56.37,29.71,3.74,38.73s-51.74-16.64-60.11-68.44Z"/>
</svg>