<?xml version="1.0" encoding="UTF-8"?>
<svg xmlns="http://www.w3.org/2000/svg" width="10.79in" height="10.35in" viewBox="0 0 777 745">
  <defs>
    <style>
      .cls-1 {
        fill: #ffd12b;
      }

      .cls-1, .cls-2, .cls-3, .cls-4 {
        stroke-width: 0px;
      }

      .cls-2 {
        fill: none;
      }

      .cls-3 {
        fill: #fff;
      }

      .cls-4 {
        fill: #0f173b;
      }
    </style>
  </defs>
  <g id="white">
    <path class="cls-2" d="M336.37,135.01l-62.29,67.85c23.91,5.82,41.41,18.06,53.97,32.19,9.26.3,18.23,1.03,26.86,2.2l-8.48-118.55-10.06,16.31Z"/>
    <g>
      <path class="cls-3" d="M706.42,265.74l-190.71-73.48-23.1,40.13-29.9-15.36,17.15-38.3-128.43-68.15,14.22-45.69-79.77,73.02,23.72-86.27-111.05,153.86c-21.9,7.69-49.13,24.33-74.06,50.13-42.63,44.11-32.74,146.49-32.74,146.49,0,0,127.06,4.96,177.77-21.15-39.48,65.31-46.48,150.05-46.63,162.35l-34.18,146.83,139.68-97.52c51.78-26.86,163.49-101.01,133.16-215.32l244.86-111.56ZM354.91,237.25c-8.63-1.16-17.61-1.9-26.86-2.2-12.55-14.13-30.06-26.37-53.97-32.19l62.29-67.85,10.06-16.31,8.48,118.55ZM457.56,417.85c0,.32-.02.64-.03.96-.04,1.15-.09,2.3-.15,3.44-.01.22-.02.44-.04.66-.08,1.29-.19,2.57-.31,3.84-.03.34-.07.68-.1,1.02-.12,1.17-.26,2.34-.41,3.5-.02.14-.03.29-.05.43-.17,1.26-.37,2.51-.58,3.75-.06.35-.12.7-.18,1.05-.22,1.24-.45,2.47-.7,3.69-.03.14-.06.28-.09.42-.24,1.12-.49,2.23-.75,3.34-.08.35-.17.7-.25,1.04-.29,1.18-.6,2.36-.93,3.53-.07.24-.14.48-.21.72-.28,1-.58,1.99-.89,2.98-.11.34-.21.68-.32,1.02-.36,1.14-.74,2.27-1.13,3.4-.11.3-.22.6-.32.9-.33.92-.67,1.84-1.02,2.75-.12.32-.25.65-.37.97-.43,1.1-.87,2.19-1.33,3.27-.14.33-.28.66-.43,1-.38.88-.77,1.76-1.16,2.64-.13.3-.26.59-.4.89-.49,1.06-.99,2.11-1.51,3.16-.17.35-.35.7-.52,1.04-.43.87-.88,1.73-1.33,2.59-.13.26-.26.51-.4.77-.54,1.03-1.1,2.04-1.67,3.05-.2.36-.4.72-.61,1.07-.51.89-1.02,1.77-1.54,2.65-.17.28-.33.56-.5.83-.55.9-1.1,1.8-1.66,2.69-.22.36-.45.71-.68,1.07-.61.96-1.23,1.91-1.86,2.86-.17.26-.35.51-.52.76-.53.79-1.07,1.57-1.61,2.34-.24.35-.48.69-.73,1.04-.66.93-1.32,1.85-2,2.77-.21.29-.43.58-.65.87-.54.72-1.08,1.43-1.62,2.14-.25.33-.51.66-.76.99-.69.89-1.39,1.78-2.1,2.66-.25.31-.51.62-.76.93-.56.68-1.12,1.36-1.68,2.04-.25.3-.5.6-.76.9-.73.86-1.47,1.72-2.21,2.57-.27.31-.55.63-.83.94-.59.67-1.19,1.33-1.78,1.99-.24.27-.48.53-.72.8-.76.84-1.54,1.66-2.31,2.49-.29.31-.58.62-.88.92-.65.68-1.3,1.35-1.95,2.02-.22.23-.44.45-.66.68-.78.8-1.57,1.59-2.37,2.37-.3.29-.6.59-.9.88-.74.73-1.49,1.45-2.24,2.17-.23.22-.47.45-.71.67-.73.69-1.46,1.37-2.19,2.05-.29.27-.59.55-.89.82-.84.77-1.68,1.54-2.52,2.29-.21.19-.42.37-.63.56-.71.63-1.43,1.26-2.14,1.89-.28.24-.56.49-.84.73-.86.74-1.72,1.48-2.59,2.21-.23.2-.46.39-.7.58-.73.61-1.45,1.22-2.18,1.82-.25.2-.5.41-.75.61-.89.72-1.77,1.44-2.66,2.15-.23.19-.47.37-.7.56-.77.61-1.54,1.22-2.3,1.82-.2.16-.4.31-.6.47-.91.71-1.82,1.41-2.74,2.1-.22.17-.45.34-.67.51-.84.63-1.67,1.26-2.51,1.88-.12.09-.24.18-.36.27-.94.7-1.88,1.38-2.83,2.06-.2.14-.39.28-.59.43-1.93,1.39-3.85,2.74-5.77,4.07-.16.11-.32.22-.47.33-1.96,1.35-3.92,2.66-5.85,3.94-.11.07-.21.14-.32.21-2.01,1.32-4,2.61-5.98,3.85-.02.02-.05.03-.07.05-11.17,7.06-21.65,12.87-30.44,17.4l-16.22,11.75-103.63,75.1h0s0,0,0,0l20.78-79.45,11.76-44.97s0-.02,0-.06c0-.04,0-.1,0-.17,0-.78.02-3.54.24-7.87.03-.65.07-1.34.11-2.06.1-1.72.22-3.64.39-5.73.05-.68.11-1.39.17-2.11.04-.52.09-1.06.14-1.6.06-.67.12-1.36.19-2.07.19-2,.41-4.1.67-6.32.07-.6.14-1.2.21-1.82.12-1,.25-2.01.38-3.04.05-.36.09-.71.14-1.07.16-1.22.33-2.46.51-3.72.51-3.55,1.1-7.28,1.78-11.17.45-2.57.95-5.21,1.49-7.91,0-.02,0-.03.01-.05.93-4.66,2-9.49,3.23-14.46,0-.03.02-.06.02-.1.96-3.89,2.02-7.86,3.17-11.89.06-.22.12-.43.19-.65.56-1.92,1.14-3.85,1.74-5.8.35-1.13.71-2.27,1.08-3.4.95-2.94,1.97-5.91,3.04-8.89.56-1.56,1.13-3.12,1.73-4.68,3.99-10.54,8.75-21.22,14.44-31.72,1.75-3.23,3.58-6.43,5.51-9.61,0,0,0,0,0,0,.86-1.38,1.73-2.72,2.6-4.05.14-.21.28-.42.41-.63.87-1.32,1.74-2.62,2.62-3.89.07-.11.15-.22.22-.32,5.72-8.27,11.56-15.5,17.46-21.77l-18.68,6.66,5.19-14.68c-1.24.67-2.5,1.33-3.78,1.98-.02,0-.04.02-.06.03-1.27.65-2.57,1.28-3.89,1.91-.02,0-.03.01-.05.02-11.98,5.71-25.69,10.63-41.05,14.7-.14.04-.28.07-.42.11-1.53.4-3.07.8-4.62,1.18-.25.06-.5.12-.74.18-1.46.36-2.94.71-4.43,1.05-.31.07-.63.14-.94.21-1.44.33-2.9.65-4.36.96-.36.08-.71.15-1.07.23-1.45.3-2.91.6-4.38.89-.37.07-.75.15-1.12.22-1.49.29-2.99.57-4.5.84-.36.07-.73.13-1.09.2-1.57.28-3.16.55-4.76.82-.31.05-.61.1-.92.15-1.74.29-3.5.56-5.27.83-.17.03-.34.05-.52.08-5.92.89-12,1.67-18.26,2.35-.28.03-.57.06-.86.09-1.75.19-3.51.37-5.28.54-.57.06-1.15.11-1.73.16-1.5.14-3,.28-4.52.4-.71.06-1.44.12-2.16.17-1.4.11-2.8.22-4.21.33-.8.06-1.6.11-2.4.17-1.35.09-2.7.18-4.06.27-.86.05-1.72.1-2.58.15-1.33.08-2.66.15-4,.21-.9.04-1.8.09-2.7.13-1.33.06-2.66.12-4,.17-.92.04-1.85.07-2.78.1-1.34.05-2.69.09-4.04.13-.94.03-1.87.05-2.82.08-1.37.03-2.76.06-4.15.08-.94.02-1.87.04-2.81.05-1.44.02-2.89.03-4.34.04-.9,0-1.8.02-2.7.02-1.61,0-3.23,0-4.86,0-.76,0-1.51,0-2.27,0-2.4-.02-4.81-.04-7.23-.08h0s0,0,0,0h0s0,0,0,0c-.18-1.67-.34-3.31-.49-4.95-.04-.43-.08-.87-.11-1.3-.12-1.42-.23-2.83-.33-4.23-.02-.22-.03-.45-.05-.67-.1-1.58-.19-3.15-.26-4.7-.02-.4-.03-.8-.05-1.2-.05-1.28-.1-2.55-.13-3.81,0-.32-.02-.65-.03-.97-.03-1.51-.05-3-.05-4.48,0-.35,0-.7,0-1.05,0-1.2.02-2.39.04-3.57,0-.38.01-.75.02-1.13.04-1.43.08-2.86.15-4.27.01-.28.03-.55.04-.83.06-1.18.13-2.34.2-3.5.03-.39.05-.78.08-1.17.1-1.37.21-2.74.33-4.09.01-.15.03-.31.05-.46.12-1.22.25-2.42.38-3.61.05-.39.09-.79.14-1.18.14-1.16.29-2.31.45-3.44.03-.18.05-.36.07-.54.18-1.27.38-2.53.59-3.78.06-.38.13-.76.19-1.13.17-1,.36-2,.55-2.99.05-.29.11-.57.16-.86.24-1.2.49-2.39.75-3.56.08-.36.16-.71.24-1.06.21-.91.42-1.81.64-2.71.08-.34.16-.68.25-1.02.29-1.13.58-2.26.89-3.37.09-.31.18-.62.26-.93.24-.86.5-1.72.75-2.57.11-.36.22-.72.33-1.07.33-1.07.67-2.14,1.03-3.19.08-.25.17-.49.25-.73.29-.85.59-1.7.89-2.54.13-.36.26-.72.39-1.08.34-.91.68-1.82,1.03-2.71.09-.23.18-.47.28-.7.36-.91.74-1.81,1.12-2.71.15-.35.3-.69.44-1.04.33-.77.67-1.52,1.01-2.28.11-.25.22-.5.34-.75.43-.93.87-1.86,1.32-2.77.16-.33.32-.65.48-.97.34-.69.69-1.37,1.04-2.04.15-.29.3-.58.45-.87.47-.88.94-1.75,1.42-2.61.16-.29.33-.58.5-.87.36-.64.73-1.28,1.1-1.9.18-.3.35-.6.53-.9.5-.83,1-1.65,1.51-2.47.15-.24.31-.48.46-.73.4-.62.8-1.24,1.21-1.86.19-.29.39-.59.59-.88.51-.75,1.02-1.5,1.54-2.24.14-.2.28-.4.43-.6.46-.64.92-1.28,1.39-1.91.21-.28.41-.56.62-.83.46-.61.92-1.22,1.39-1.82.13-.17.26-.35.4-.52.57-.73,1.15-1.44,1.73-2.15.21-.25.42-.5.62-.75.45-.55.91-1.09,1.37-1.62.17-.2.34-.4.51-.6.6-.69,1.2-1.36,1.8-2.03.2-.22.39-.43.59-.64.47-.51.95-1.02,1.42-1.53.19-.2.38-.4.57-.6.62-.65,1.25-1.29,1.88-1.93.17-.17.34-.34.51-.5.51-.5,1.02-1,1.53-1.5.2-.19.39-.38.59-.57.65-.62,1.3-1.23,1.96-1.83.11-.1.22-.2.33-.3.58-.53,1.16-1.05,1.74-1.56.19-.17.38-.33.57-.5.66-.57,1.32-1.14,1.98-1.7.02-.02.05-.04.07-.06.69-.58,1.39-1.15,2.09-1.72.17-.14.35-.28.52-.42.63-.5,1.25-1,1.88-1.48.08-.06.16-.12.24-.18.71-.55,1.43-1.09,2.15-1.62.14-.1.27-.2.41-.3.64-.47,1.28-.94,1.93-1.4.09-.07.18-.13.27-.2.74-.52,1.48-1.04,2.22-1.55.08-.05.16-.11.23-.16.69-.47,1.38-.93,2.06-1.38.09-.06.17-.11.26-.17,1.52-1,3.04-1.95,4.57-2.87.07-.04.13-.08.2-.12,1.55-.94,3.09-1.83,4.63-2.7.02-.01.05-.03.07-.04,11.05-6.18,21.8-10.51,30.99-13.52l11.43-17.03.93-1.38,74.08-110.37h0s0,0,0,0l-18.27,47.94-43.09,62.73h0s-.03.05-.03.05h0s-.32.47-.32.47v.02s-.11.14-.11.14l-.02.02h0s-.28.42-.28.42l-.12.18h0s0,.02,0,.02l-.45.66-.05.07-.04.06-.03.05-7.99,11.64c1.93-.44,3.66-.79,5.15-1.08,0,0,.02,0,.03,0,.49-.09.95-.18,1.39-.26.01,0,.03,0,.04,0,.27-.05.53-.1.78-.14,0,0,.02,0,.03,0,.04,0,.09-.01.13-.02,0,0,0,0,0,0,.09-.02.18-.03.27-.05.02,0,.03,0,.05,0,.03,0,.06-.01.1-.02.01,0,.02,0,.03,0,.02,0,.04,0,.06,0,.02,0,.03,0,.05,0,.08-.01.17-.03.25-.04.01,0,.02,0,.04,0,.01,0,.03,0,.04,0,.01,0,.03,0,.04,0,.06,0,.11-.02.17-.03.03,0,.06,0,.09-.01.02,0,.04,0,.05,0,0,0,0,0,0,0,.04,0,.08-.01.13-.02.01,0,.03,0,.04,0,0,0,.01,0,.02,0,.01,0,.02,0,.03,0,.23-.04.44-.07.64-.1.07-.01.14-.02.21-.03,0,0,0,0,0,0,.27-.04.52-.08.73-.1-.34-.02-.66-.03-.93-.05-.09,0-.17,0-.25-.01.08,0,.17,0,.25.01.32.02.65.03.93.05,0,0,0,0,0,0-.03,0-.07,0-.1,0,.03,0,.07,0,.1,0,.15-.02.29-.04.41-.06l118.33-120.77h0s0,0,0,0l-24.32,39.45-76.14,82.94c32.62,4.09,58.14,14.87,72.53,33.92,13.06.17,29.21,1.3,45.68,4.71l-9.74-121.19,105.59,56.04-13.93,34.1,47.02,25.62,8.74-14.17,14.08-22.82,155.2,59.8-222.41,102.89c-.46,2.23-1.1,4.48-1.88,6.77.52,1.27.96,2.51,1.28,3.72.4,1.48.76,2.95,1.11,4.41.08.34.16.69.24,1.03.33,1.44.64,2.88.92,4.31.03.15.05.29.08.44.25,1.32.48,2.63.7,3.94.05.33.11.65.16.98.22,1.4.41,2.8.58,4.18.03.23.05.46.08.7.14,1.22.27,2.44.38,3.66.03.31.06.61.08.92.11,1.36.2,2.71.27,4.06.01.29.02.57.04.86.05,1.17.08,2.34.1,3.5,0,.27.01.54.01.81.01,1.32,0,2.64-.03,3.95ZM230.62,209.06s-.03,0-.05,0c.02,0,.03,0,.05,0,0,0,0,0,0,0,0,0,0,0,0,0ZM229.39,209s0,0,0,0c.06,0,.13,0,.22.01-.09,0-.16,0-.22-.01,0,0,0,0,0,0ZM230.14,209.04s.03,0,.05,0c.01,0,.02,0,.04,0-.01,0-.02,0-.04,0-.09,0-.17,0-.25-.01.06,0,.13,0,.19.01ZM230.42,209.05s.04,0,.05,0c-.06,0-.11,0-.16,0,.03,0,.08,0,.11,0Z"/>
      <path class="cls-3" d="M257.8,599.4l29.2-47.5.04-.07c-4.34-2.34-9.49-4.3-15.6-5.68-7.25-1.63-15.84-2.44-26.04-2.05-.13.08-.26.16-.39.24l-28.77,103.06,88.39-78.7c-1.57-2.74-3.55-5.51-6.08-8.18l-40.76,38.88Z"/>
      <path class="cls-3" d="M455.32,355.34l177.79-86.18-105.88-44.23-59.88,73.44s17.87-31.52,26.41-46.95l-46.68-27.73-19.79,44.23,23.41-74.32-78.68-41.6,7.12,99.77c41.57,11.13,81.63,38.53,76.18,103.56Z"/>
      <path class="cls-3" d="M202.02,313.85l5.32,10.81s17.93-16.63,13.95-29.47l-19.27,18.66Z"/>
      <path class="cls-3" d="M247.98,283.67c0-.57-.15-1.1-.41-1.59-.76-1.44-2.53-2.45-4.59-2.45-1.71,0-3.21.69-4.11,1.75-.55.65-.88,1.44-.88,2.29,0,2.23,2.23,4.04,4.99,4.04.12,0,.24-.02.36-.03,1.53-.09,2.86-.72,3.7-1.68.58-.66.93-1.46.93-2.33Z"/>
      <path class="cls-3" d="M246.62,291.15c-1.1,0-2,.72-2,1.62s.89,1.62,2,1.62,2-.72,2-1.62-.89-1.62-2-1.62Z"/>
    </g>
  </g>
  <g id="yellow">
    <path class="cls-1" d="M234.66,227.77l-89.37,82.15,38-73.93c-57.64,27.29-77.44,94.78-72.58,146.27,6.64-.27,27.14-1.14,50.93-2.64,39.54-2.48,94.8-15.3,119.19-45.59-7.05-6.37-15.55-12.07-25.81-16.75-21.91,15.99-79.82,17.63-79.82,17.63,0,0,8.91-14.48,58.91-64.5,0,0-.01-.03-.01-.03l17.07-15.43-2.85,21.34c6.09,3.91,12.3,9.92,14.37,18.71l20.18-31.82c-12.91-22.02-34.34-31.46-48.23-35.42Z"/>
    <path class="cls-1" d="M263.19,305.34c-.6,4.68-3.6,8.63-8.16,11.95,10.25,4.69,18.76,10.38,25.81,16.75,9.04-11.22,13.85-24.84,12.03-41.22-1.65-11.8-5.24-21.56-9.97-29.63l-20.18,31.82c.73,3.09.96,6.52.48,10.33Z"/>
    <path class="cls-1" d="M309.75,448.81s1.07-4.29,2.02-11.37c-12.63.04-26.39,1.71-41.3,5.6l-8.14,23.23c19.96-6.29,64.68-14.36,112.32,17.07,5.27-7.23,10.31-14.66,14.82-22.06-13.1-9.06-31.03-18.07-53.77-21.91l-25.95,9.44Z"/>
    <path class="cls-1" d="M406.74,422.91c.81-3.44,1.31-6.76,1.45-9.92l-13.44,4.89c3.91,1.51,7.91,3.18,11.99,5.03Z"/>
    <path class="cls-1" d="M252.73,499.08c-1.7,7.75-3.34,16.02-4.89,24.87,16.03.24,35.34,2.06,50.68,9.2l16.28-26.48,21.27,18.07-21.16,20.18c1.17,1.31,2.26,2.68,3.26,4.15,0,0,12.1-11.98,27.42-29.57-14.61-15.12-42.65-31.14-92.87-20.42Z"/>
    <path class="cls-1" d="M310.13,386.46c-5.32,2.47-10.41,5.48-15.12,9.08,0,0-5.41,5.04-12.97,18.7,3.54-1.47,14.17-6.02,30.81-8.12-.41-6.27-1.25-12.9-2.72-19.65Z"/>
    <path class="cls-1" d="M314.81,506.66l-16.28,26.48c6.3,2.93,11.93,6.78,16.39,11.77l21.16-20.18-21.27-18.07Z"/>
    <path class="cls-1" d="M261.02,466.69c.43-.14.86-.28,1.31-.42l8.14-23.23c-.56.15-1.12.28-1.69.43-2.58,6.84-5.19,14.55-7.77,23.22Z"/>
    <path class="cls-1" d="M402.38,393.25l-7.56,3.5-14.97-10.88-.42-5.24c-19.74-5.41-46.63-4.71-69.3,5.83,1.47,6.75,2.31,13.38,2.72,19.65,19.56-2.47,47.44-1.55,81.9,11.77l13.44-4.89c.35-7.65-1.37-14.39-5.81-19.74Z"/>
    <path class="cls-1" d="M311.77,437.44c-.95,7.09-2.02,11.37-2.02,11.37l25.95-9.44c-7.46-1.26-15.44-1.96-23.93-1.93Z"/>
    <path class="cls-1" d="M396.92,388.3c-4.65-3.19-10.64-5.8-17.49-7.68l.42,5.24,14.97,10.88,7.56-3.5c-1.5-1.81-3.31-3.47-5.46-4.94Z"/>
    <path class="cls-1" d="M371.8,304.53l-42.85,12.39c-4.31,8.55-10.49,16.5-18.48,23.75,3.49,3.49,5.53,5.76,7.2,8.68,8.48-6.16,16.99-10.62,25.38-13.66l28.75-31.16Z"/>
    <path class="cls-1" d="M366.96,330.63c2.85-.19,5.67-.24,8.44-.15l-.33-4.07-8.12,4.22Z"/>
    <path class="cls-1" d="M332.65,308.14l18.37-22.35c-5.43-1.65-10.55-2.9-14.93-3.82.04.74.07,1.49.09,2.25.23,8.36-.97,16.35-3.53,23.92Z"/>
    <path class="cls-1" d="M384.59,328.14l-.46-6.44-9.05,4.7.33,4.07c2.39.07,4.76.25,7.09.51l2.09-2.84Z"/>
    <polygon class="cls-1" points="384.13 321.71 384.59 328.14 392.54 317.34 384.13 321.71"/>
    <path class="cls-1" d="M328.96,316.91l-4.62,1.34,8.31-10.11c2.56-7.57,3.76-15.56,3.53-23.92-.02-.76-.05-1.5-.09-2.25-8.29-1.75-13.92-2.34-13.92-2.34,3.5,31.68-13.79,58.96-13.79,58.96.76.74,1.45,1.43,2.1,2.07,7.99-7.26,14.18-15.2,18.48-23.75Z"/>
    <path class="cls-1" d="M366.56,352.64l9.57-13.01-.74-9.15c-2.78-.09-5.6-.04-8.44.15l-36.94,19.19,13.04-14.13c-8.39,3.04-16.9,7.5-25.38,13.66,2.33,4.07,3.99,9.42,7.96,21.13,16.71-6.38,38.39-5.51,52.67-3.89l-1.44-17.93-10.3,3.97Z"/>
    <path class="cls-1" d="M385.81,345.21l-8.94,3.45,1.44,17.93c3.57.41,6.67.86,9.12,1.26l-1.62-22.64Z"/>
    <path class="cls-1" d="M375.4,330.48l.74,9.15,6.36-8.64c-2.33-.26-4.7-.44-7.09-.51Z"/>
    <path class="cls-1" d="M403.57,338.36l-17.76,6.86,1.62,22.64c3.74.61,5.95,1.09,5.95,1.09,6.72-11.61,9.81-21.74,10.2-30.59Z"/>
  </g>
  <g id="BLue">
    <g>
      <path class="cls-4" d="M230.62,209.06s0,0,0,0c0,0,0,0,0,0-.02,0-.03,0-.05,0,.02,0,.03,0,.05,0Z"/>
      <path class="cls-4" d="M230.47,209.05s-.04,0-.05,0c-.04,0-.08,0-.11,0,.05,0,.11,0,.16,0Z"/>
      <path class="cls-4" d="M229.39,209c.06,0,.13,0,.22.01-.09,0-.16,0-.22-.01,0,0,0,0,0,0,0,0,0,0,0,0Z"/>
      <path class="cls-4" d="M229.94,209.03c.08,0,.16,0,.25.01.01,0,.02,0,.04,0-.01,0-.02,0-.04,0-.02,0-.04,0-.05,0-.07,0-.14,0-.19-.01Z"/>
      <path class="cls-4" d="M457.48,409.59c-.01-.29-.02-.57-.04-.86-.07-1.35-.16-2.7-.27-4.06-.02-.3-.05-.61-.08-.92-.11-1.21-.23-2.43-.38-3.66-.03-.23-.05-.46-.08-.7-.17-1.39-.37-2.78-.58-4.18-.05-.33-.1-.65-.16-.98-.21-1.31-.44-2.62-.7-3.94-.03-.15-.05-.29-.08-.44-.28-1.43-.59-2.87-.92-4.31-.08-.34-.16-.69-.24-1.03-.35-1.46-.71-2.93-1.11-4.41-.33-1.21-.76-2.45-1.28-3.72.78-2.28,1.42-4.54,1.88-6.77l222.41-102.89-155.2-59.8-14.08,22.82-8.74,14.17-47.02-25.62,13.93-34.1-105.59-56.04,9.74,121.19c-16.48-3.41-32.62-4.54-45.68-4.71-14.38-19.05-39.9-29.83-72.53-33.92l76.14-82.94,24.32-39.45h0s0,0,0,0l-118.33,120.77c-.12.02-.26.03-.41.06-.03,0-.07,0-.1,0,.03,0,.07,0,.1,0,0,0,0,0,0,0-.29-.02-.61-.03-.93-.05-.08,0-.17,0-.25-.01.08,0,.17,0,.25.01.28.01.59.03.93.05-.21.03-.46.06-.73.1,0,0,0,0,0,0-.07.01-.14.02-.21.03-.2.03-.41.06-.64.1-.01,0-.02,0-.03,0,0,0-.01,0-.02,0-.01,0-.03,0-.04,0-.04,0-.08.01-.13.02,0,0,0,0,0,0-.02,0-.04,0-.05,0-.03,0-.06,0-.09.01-.06,0-.11.02-.17.03-.01,0-.03,0-.04,0-.01,0-.03,0-.04,0-.01,0-.02,0-.04,0-.08.01-.16.03-.25.04-.02,0-.03,0-.05,0-.02,0-.04,0-.06,0-.01,0-.02,0-.03,0-.03,0-.06.01-.1.02-.02,0-.03,0-.05,0-.09.01-.18.03-.27.05,0,0,0,0,0,0-.04,0-.08.01-.13.02,0,0-.02,0-.03,0-.25.04-.51.09-.78.14-.01,0-.03,0-.04,0-.44.08-.9.16-1.39.26,0,0-.02,0-.03,0-1.5.29-3.23.64-5.15,1.08l7.99-11.64.03-.05.04-.06.05-.07.45-.66h0s0-.02,0-.02l.12-.18.28-.41h0s.02-.03.02-.03l.09-.14v-.02s.34-.47.34-.47h0s.03-.04.03-.04h0s43.09-62.73,43.09-62.73l18.27-47.94h0s0,0,0,0l-74.08,110.37-.93,1.38-11.43,17.03c-9.19,3.01-19.94,7.34-30.99,13.52-.02.01-.05.03-.07.04-1.54.86-3.09,1.76-4.63,2.7-.07.04-.13.08-.2.12-1.52.92-3.04,1.88-4.57,2.87-.09.06-.17.11-.26.17-.69.45-1.38.91-2.06,1.38-.08.05-.16.11-.23.16-.74.51-1.48,1.02-2.22,1.55-.09.07-.18.13-.27.2-.64.46-1.29.92-1.93,1.4-.14.1-.27.2-.41.3-.72.53-1.43,1.07-2.15,1.62-.08.06-.16.12-.24.18-.63.49-1.26.98-1.88,1.48-.17.14-.35.28-.52.42-.7.56-1.39,1.13-2.09,1.72-.02.02-.05.04-.07.06-.66.56-1.32,1.13-1.98,1.7-.19.17-.38.33-.57.5-.58.51-1.16,1.03-1.74,1.56-.11.1-.22.2-.33.3-.66.6-1.31,1.21-1.96,1.83-.2.19-.39.38-.59.57-.51.49-1.02.99-1.53,1.5-.17.17-.34.33-.51.5-.63.63-1.26,1.27-1.88,1.93-.19.2-.38.4-.57.6-.48.5-.95,1.01-1.42,1.53-.2.21-.39.43-.59.64-.61.67-1.21,1.35-1.8,2.03-.17.2-.34.4-.51.6-.46.54-.92,1.08-1.37,1.62-.21.25-.42.5-.62.75-.58.71-1.16,1.42-1.73,2.15-.13.17-.26.34-.4.52-.47.6-.93,1.21-1.39,1.82-.21.28-.41.55-.62.83-.47.63-.93,1.27-1.39,1.91-.14.2-.29.4-.43.6-.52.74-1.03,1.48-1.54,2.24-.2.29-.39.59-.59.88-.41.61-.81,1.23-1.21,1.86-.15.24-.31.48-.46.73-.51.81-1.01,1.64-1.51,2.47-.18.3-.35.6-.53.9-.37.63-.74,1.26-1.1,1.9-.17.29-.33.58-.5.87-.48.86-.95,1.73-1.42,2.61-.15.29-.3.58-.45.87-.35.67-.7,1.35-1.04,2.04-.16.32-.32.64-.48.97-.45.91-.89,1.84-1.32,2.77-.11.25-.23.5-.34.75-.34.75-.68,1.51-1.01,2.28-.15.34-.3.69-.44,1.04-.38.89-.75,1.79-1.12,2.71-.09.23-.18.47-.28.7-.35.89-.7,1.8-1.03,2.71-.13.36-.26.72-.39,1.08-.3.84-.6,1.69-.89,2.54-.08.25-.17.49-.25.73-.35,1.05-.69,2.12-1.03,3.19-.11.36-.22.72-.33,1.07-.26.85-.51,1.71-.75,2.57-.09.31-.18.62-.26.93-.31,1.11-.6,2.23-.89,3.37-.09.34-.17.68-.25,1.02-.22.9-.43,1.8-.64,2.71-.08.35-.16.71-.24,1.06-.26,1.18-.51,2.36-.75,3.56-.06.28-.11.57-.16.86-.19.99-.37,1.98-.55,2.99-.07.38-.13.75-.19,1.13-.21,1.25-.41,2.51-.59,3.78-.03.18-.05.36-.07.54-.16,1.14-.31,2.29-.45,3.44-.05.39-.09.78-.14,1.18-.14,1.19-.27,2.4-.38,3.61-.01.15-.03.31-.05.46-.13,1.35-.23,2.71-.33,4.09-.03.39-.05.78-.08,1.17-.08,1.16-.14,2.32-.2,3.5-.01.28-.03.55-.04.83-.06,1.41-.11,2.83-.15,4.27,0,.37-.01.75-.02,1.13-.02,1.18-.04,2.37-.04,3.57,0,.35,0,.7,0,1.05,0,1.48.02,2.97.05,4.48,0,.32.02.65.03.97.03,1.26.08,2.53.13,3.81.02.4.03.8.05,1.2.07,1.55.16,3.12.26,4.7.01.22.03.45.05.67.1,1.4.21,2.81.33,4.23.04.43.07.87.11,1.3.15,1.64.3,3.28.49,4.95h0s0,0,0,0h0,0c2.43.04,4.84.07,7.23.08.76,0,1.51,0,2.27,0,1.62,0,3.25.01,4.86,0,.91,0,1.8-.01,2.7-.02,1.45-.01,2.9-.02,4.34-.04.94-.01,1.87-.03,2.81-.05,1.39-.02,2.77-.05,4.15-.08.94-.02,1.88-.05,2.82-.08,1.35-.04,2.7-.08,4.04-.13.93-.03,1.85-.07,2.78-.1,1.34-.05,2.68-.11,4-.17.9-.04,1.8-.08,2.7-.13,1.34-.07,2.67-.14,4-.21.86-.05,1.72-.1,2.58-.15,1.36-.08,2.72-.17,4.06-.27.8-.05,1.61-.11,2.4-.17,1.41-.1,2.81-.21,4.21-.33.72-.06,1.44-.11,2.16-.17,1.52-.13,3.02-.27,4.52-.4.58-.05,1.16-.1,1.73-.16,1.77-.17,3.53-.35,5.28-.54.28-.03.57-.06.86-.09,3.13-.34,6.21-.71,9.26-1.1,3.04-.39,6.04-.81,9-1.25.17-.03.34-.05.52-.08,1.77-.27,3.53-.54,5.27-.83.31-.05.61-.1.92-.15,1.6-.27,3.19-.54,4.76-.82.37-.07.73-.13,1.09-.2,1.51-.27,3.01-.55,4.5-.84.38-.07.75-.15,1.12-.22,1.47-.29,2.93-.59,4.38-.89.36-.08.71-.15,1.07-.23,1.47-.31,2.92-.63,4.36-.96.31-.07.63-.14.94-.21,1.49-.34,2.97-.69,4.43-1.05.25-.06.5-.12.74-.18,1.56-.38,3.1-.78,4.62-1.18.14-.04.28-.07.42-.11,15.36-4.07,29.07-8.99,41.05-14.7.02,0,.03-.01.05-.02,1.32-.63,2.61-1.26,3.89-1.91.02,0,.04-.02.06-.03,1.28-.65,2.54-1.31,3.78-1.98l-5.19,14.68,18.68-6.66c-5.91,6.27-11.74,13.49-17.46,21.77-.07.11-.15.21-.22.32-.88,1.27-1.75,2.57-2.62,3.89-.14.21-.28.42-.41.63-.87,1.33-1.73,2.67-2.6,4.05,0,0,0,0,0,0-1.93,3.18-3.76,6.39-5.51,9.61-2.84,5.25-5.46,10.55-7.86,15.85-2.4,5.3-4.59,10.61-6.59,15.88-.59,1.56-1.17,3.12-1.73,4.68-1.07,2.98-2.08,5.95-3.04,8.89-.37,1.14-.73,2.27-1.08,3.4-.6,1.95-1.18,3.88-1.74,5.8-.06.22-.12.43-.19.65-1.16,4.03-2.22,8-3.17,11.89,0,.03-.02.06-.02.1-.31,1.24-.6,2.48-.89,3.7-.34,1.44-.66,2.87-.97,4.29-.48,2.19-.94,4.35-1.37,6.47,0,.02,0,.03-.01.05-.54,2.7-1.04,5.34-1.49,7.91-.17.97-.34,1.93-.5,2.89-.32,1.9-.62,3.77-.89,5.59-.14.91-.27,1.81-.4,2.69-.18,1.26-.35,2.5-.51,3.72-.05.36-.09.72-.14,1.07-.13,1.03-.26,2.05-.38,3.04-.07.61-.14,1.22-.21,1.82-.25,2.21-.47,4.32-.67,6.32-.07.7-.13,1.39-.19,2.07-.05.54-.09,1.08-.14,1.6-.06.72-.12,1.43-.17,2.11-.04.52-.08,1.04-.11,1.54-.11,1.5-.2,2.91-.27,4.2-.04.72-.08,1.41-.11,2.06-.21,4.34-.24,7.09-.24,7.87,0,.08,0,.13,0,.17,0,.04,0,.06,0,.06l-11.76,44.97-20.78,79.45h0s0,0,0,0l103.63-75.1,16.22-11.75c8.79-4.53,19.26-10.35,30.44-17.4.02-.02.05-.03.07-.05,1.97-1.25,3.97-2.53,5.98-3.85.1-.07.21-.14.32-.21,1.94-1.28,3.89-2.59,5.85-3.94.16-.11.32-.22.47-.33,1.92-1.32,3.84-2.68,5.77-4.07.2-.14.39-.28.59-.43.94-.68,1.88-1.37,2.83-2.06.12-.09.24-.18.36-.27.84-.62,1.67-1.25,2.51-1.88.22-.17.45-.34.67-.51.91-.69,1.82-1.39,2.74-2.1.2-.15.4-.31.6-.47.77-.6,1.54-1.21,2.3-1.82.23-.19.47-.37.7-.56.89-.71,1.77-1.43,2.66-2.15.25-.2.5-.41.75-.61.73-.6,1.46-1.21,2.18-1.82.23-.2.47-.39.7-.58.86-.73,1.73-1.47,2.59-2.21.28-.24.56-.49.84-.73.72-.62,1.43-1.25,2.14-1.89.21-.19.42-.37.63-.56.84-.76,1.68-1.52,2.52-2.29.3-.27.59-.54.89-.82.73-.68,1.46-1.36,2.19-2.05.24-.22.47-.45.71-.67.75-.72,1.5-1.44,2.24-2.17.3-.29.6-.59.9-.88.79-.78,1.58-1.57,2.37-2.37.22-.22.44-.45.66-.68.65-.67,1.3-1.34,1.95-2.02.29-.31.59-.61.88-.92.78-.82,1.55-1.65,2.31-2.49.24-.26.48-.53.72-.8.6-.66,1.19-1.32,1.78-1.99.28-.31.55-.62.83-.94.74-.85,1.48-1.71,2.21-2.57.25-.3.5-.6.76-.9.57-.68,1.13-1.35,1.68-2.04.25-.31.51-.62.76-.93.71-.88,1.41-1.77,2.1-2.66.26-.33.51-.66.76-.99.55-.71,1.09-1.42,1.62-2.14.22-.29.44-.58.65-.87.68-.92,1.34-1.84,2-2.77.24-.34.49-.69.73-1.04.54-.78,1.08-1.56,1.61-2.34.17-.25.35-.51.52-.76.63-.95,1.25-1.9,1.86-2.86.23-.35.45-.71.68-1.07.56-.89,1.12-1.79,1.66-2.69.17-.28.33-.56.5-.83.52-.88,1.04-1.76,1.54-2.65.2-.36.41-.71.61-1.07.57-1.01,1.13-2.03,1.67-3.05.14-.26.27-.51.4-.77.45-.86.89-1.72,1.33-2.59.17-.35.35-.7.52-1.04.51-1.05,1.02-2.1,1.51-3.16.14-.29.27-.59.4-.89.4-.88.78-1.75,1.16-2.64.14-.33.29-.66.43-1,.46-1.08.9-2.17,1.33-3.27.13-.32.25-.65.37-.97.35-.91.69-1.83,1.02-2.75.11-.3.22-.6.32-.9.39-1.13.77-2.26,1.13-3.4.11-.34.21-.68.32-1.02.31-.99.6-1.98.89-2.98.07-.24.14-.48.21-.72.33-1.17.63-2.35.93-3.53.09-.35.17-.69.25-1.04.26-1.11.52-2.22.75-3.34.03-.14.06-.28.09-.42.25-1.22.48-2.45.7-3.69.06-.35.12-.7.18-1.05.21-1.24.4-2.49.58-3.75.02-.14.03-.29.05-.43.15-1.16.29-2.33.41-3.5.04-.34.07-.68.1-1.02.12-1.28.23-2.56.31-3.84.01-.22.02-.44.04-.66.07-1.14.12-2.29.15-3.44,0-.32.02-.64.03-.96.03-1.31.04-2.63.03-3.95,0-.27-.01-.54-.01-.81-.02-1.16-.05-2.33-.1-3.5ZM408.19,412.99c-.15,3.16-.65,6.48-1.45,9.92-4.08-1.84-8.08-3.51-11.99-5.03-34.46-13.31-62.34-14.24-81.9-11.77-16.64,2.1-27.27,6.65-30.81,8.12,7.56-13.66,12.97-18.7,12.97-18.7,4.71-3.61,9.8-6.61,15.12-9.08,22.67-10.54,49.56-11.24,69.3-5.83,6.85,1.88,12.84,4.49,17.49,7.68,2.15,1.48,3.96,3.13,5.46,4.94,4.44,5.35,6.16,12.09,5.81,19.74ZM374.65,483.33c-47.63-31.43-92.36-23.36-112.32-17.07-.45.14-.89.28-1.31.42,2.57-8.67,5.19-16.39,7.77-23.22.57-.15,1.12-.29,1.69-.43,14.9-3.88,28.67-5.55,41.3-5.6,8.49-.03,16.47.67,23.93,1.93,22.74,3.85,40.67,12.85,53.77,21.91-4.51,7.39-9.55,14.82-14.82,22.06ZM318.18,549.06c-1-1.47-2.09-2.85-3.26-4.15-4.46-4.99-10.09-8.83-16.39-11.77-15.34-7.14-34.65-8.96-50.68-9.2,1.55-8.85,3.18-17.12,4.89-24.87,50.22-10.72,78.26,5.31,92.87,20.42-15.33,17.58-27.42,29.57-27.42,29.57ZM234.66,227.77c13.9,3.95,35.32,13.39,48.23,35.42,4.73,8.07,8.32,17.83,9.97,29.63,1.81,16.38-2.99,30-12.03,41.22-24.39,30.29-79.66,43.11-119.19,45.59-23.8,1.49-44.3,2.37-50.93,2.64-4.86-51.5,14.94-118.98,72.58-146.27l-38,73.93,89.37-82.15ZM351.02,285.79l-18.37,22.35-8.31,10.11,4.62-1.34,42.85-12.39-28.75,31.16-13.04,14.13,36.94-19.19,8.12-4.22,9.05-4.7,8.41-4.37-7.95,10.81-2.09,2.84-6.36,8.64-9.57,13.01,10.3-3.97,8.94-3.45,17.76-6.86c-.39,8.85-3.47,18.98-10.2,30.59,0,0-2.21-.48-5.95-1.09-2.45-.4-5.55-.85-9.12-1.26-14.27-1.63-35.95-2.49-52.67,3.89-3.97-11.71-5.63-17.06-7.96-21.13-1.68-2.93-3.71-5.19-7.2-8.68-.65-.65-1.34-1.33-2.1-2.07,0,0,17.29-27.28,13.79-58.96,0,0,5.62.59,13.92,2.34,4.38.92,9.5,2.17,14.93,3.82ZM450.69,193.61l-23.41,74.32,19.79-44.23,46.68,27.73c-8.55,15.43-26.41,46.95-26.41,46.95l59.88-73.44,105.88,44.23-177.79,86.18c5.45-65.03-34.61-92.44-76.18-103.56l-7.12-99.77,78.68,41.6ZM245.02,544.34c.13-.08.26-.16.39-.24,10.2-.39,18.79.42,26.04,2.05,6.11,1.38,11.26,3.34,15.6,5.68l-.04.07-29.2,47.5,40.76-38.88c2.53,2.66,4.52,5.44,6.08,8.18l-88.39,78.7,28.77-103.06Z"/>
      <path class="cls-4" d="M255.03,317.29c4.56-3.32,7.56-7.27,8.16-11.95.49-3.81.25-7.24-.48-10.33-2.07-8.8-8.29-14.8-14.37-18.71l2.85-21.34-17.07,15.43s0,.02.01.03c-49.99,50.02-58.91,64.5-58.91,64.5,0,0,57.91-1.64,79.82-17.63ZM248.61,292.77c0,.89-.89,1.62-2,1.62s-2-.72-2-1.62.89-1.62,2-1.62,2,.72,2,1.62ZM242.99,279.63c2.06,0,3.82,1.01,4.59,2.45.26.49.41,1.03.41,1.59,0,.87-.35,1.67-.93,2.33-.84.95-2.17,1.58-3.7,1.68-.12,0-.24.03-.36.03-2.76,0-4.99-1.81-4.99-4.04,0-.85.33-1.64.88-2.29.9-1.06,2.4-1.75,4.11-1.75ZM207.34,324.66l-5.32-10.81,19.27-18.66c3.98,12.84-13.95,29.47-13.95,29.47Z"/>
    </g>
  </g>
</svg>