<?xml version="1.0" encoding="UTF-8"?>
<svg id="Layer_1" data-name="Layer 1" xmlns="http://www.w3.org/2000/svg" viewBox="0 0 588.44 657.08">
  <defs>
    <style>
      .cls-1 {
        fill: #71a1cc;
      }

      .cls-1, .cls-2, .cls-3, .cls-4 {
        stroke-width: 0px;
      }

      .cls-2 {
        fill: #1f3364;
      }

      .cls-3 {
        fill: #d11d5a;
      }

      .cls-4 {
        fill: #fff;
      }
    </style>
  </defs>
  <polygon class="cls-4" points="505.71 49.48 505.71 49.48 505.71 49.47 505.71 49.48"/>
  <path class="cls-3" d="M575.69,367.16c-1.07-19.13-3.67-33.17-7.35-46.14h20.1l-2.2-11.37c-9.43-48.75-34.87-98.69-68.58-135,24.02-47.51,32.73-96.35,25.86-145.26l-.08-.59-.16-.58c-2.05-7.55-7.07-20.98-17.69-26.17-5.33-2.61-11.17-2.73-16.88-.34-13.26,5.55-26.76,10.63-41.06,16.02-37.99,14.31-77.28,29.1-110.92,52.88l-.71.55c-29.77,25.54-78.88,28.75-114.29,7.48C198.33,50.84,149.5,30.73,102.27,11.29c-7.79-3.21-15.52-6.39-23.17-9.58l-.13-.05c-6.4-2.57-13.08-2.01-18.81,1.56-12.39,7.74-16.95,27.26-17.63,36.5l-.02.41c-1.68,55.39,1.42,87.38,24.48,134.1C30.15,210.17,7.71,265.73,1.64,306.43l-1.64,11.02,19.02-.09c-6.45,26.24-9.82,42.12-5.01,85.86l.81,7.33,25.25,3.72c10.66,66.92,38.86,101.17,38.92,101.28,0,0,13.52-12.48,17.3-15.77,15.24,37.84,38.31,70.78,63.14,89.69l9.47,7.21,4.21-9.09c28.58,30.72,90.76,69.48,153.55,69.48,7.3,0,14.61-.52,21.87-1.65l9.16-1.41-1.13-9.2c-3.32-27.02,22.14-51.78,35.36-60.8.17.46.34.93.5,1.41l4.03,12.37,10.59-7.55c34.62-24.66,61.4-54.95,79.73-90.18,2.22,1.62,4.41,3.44,5.95,5.3l7.88,9.48,7.22-10c19.49-26.99,31.93-56.28,35.64-83.57,10.35.29,22.76-1.02,25.96-2.2l5.95-2.21.28-6.34c.75-16.97.76-29.52.07-43.33v-.05Z"/>
  <g>
    <path class="cls-4" d="M511.88,47.15c-4.34-19.14-31.39.44-42.86,10.61-12.29,11.8-29.31,26.03-42.08,37.72,7.64-3.22,18.59-4.66,27.08-1.22,18.32-16.45,34.3-36.17,58.42-44.78-.15-.81-.33-1.63-.56-2.33Z"/>
    <path class="cls-4" d="M123.48,94.46c7.04-2.67,16.16-4.41,22.32-2.26-8.76-5.49-63.51-78.11-70.4-42.71,30.35,17.49,25.28,24.69,48.08,44.98Z"/>
    <path class="cls-2" d="M566.15,367.69c-1.38-24.74-5.5-40.64-10.84-56.23h21.55c-8.97-46.41-33.8-97.56-70.83-135.15,24.42-45.64,35.27-93.99,28.04-145.59-3.14-11.56-10.48-24.87-21.65-20.21-49.32,20.64-105.3,36.19-150.15,67.89-33.72,28.93-87.75,31.13-125.56,8.35-49.85-31.94-107.73-53.86-161.28-76.23-14.37-5.76-22.41,17.09-23.34,29.89-1.7,56.06,1.63,87.45,26.7,135.91-36.27,32.24-61.1,87.41-67.68,131.53l20.12-.09c-8.22,34.1-13,46.31-7.71,94.43,1.63.24,23.96,3.53,24.94,3.68,5.14,35.09,10.37,54.66,32.62,94.92-.01-.03,12.67-12.19,19.59-16.52,3.71-3.59,0,0,0,0,12.63,36.34,36.07,75.94,64.56,97.63l5.66-12.24h0c19.24,29.04,98.79,88.29,176.18,76.34-4.94-40.24,41-73.43,48.97-74.7,0,0,3.37,4.77,5.46,11.18,38.59-27.49,64.94-60.57,81.59-96.56-.31.66,11.02,6.17,16.99,13.35,18.8-26.04,33.04-57.4,34.82-88.54,6.77,2.16,28.32.46,31.21-.61.74-16.91.75-29,.07-42.42ZM502.16,41.07c5.55-1,10.07,3.76,10.29,8.41,1.97,10.59.23,24.52-4.18,35.1,0,0,0,0,0,0-4.09,18.96-6.65,59.96-29.39,58.98-2.28-6.59-26.23-28.21-39.6-27.95,5.97-4.79,15.23-11.72,14.89-11.45-3.59.74-12.37,3.21-17.29,4.59,4.94-5.65,10.09-11.45,17.15-14.48-6.8-4.44-17.93-3.33-24.44-.19,12.77-11.69,28.1-23,40.39-34.8,9.75-9.44,23.56-17.79,32.19-18.21ZM110.3,58.16c12.2,11.91,22.3,24.42,35.5,34.04-7.23-2.88-15.28-.4-22.32,2.26h0c6.4,2.86,12.39,6.57,18.2,10.77,2.06,1.46,4.14,3.02,6.06,4.55-5.95-1.69-16.84-4.79-21.34-5.74,3.23,2.38,11.75,8.88,15.82,12.2-13.99.72-37.73,26.3-36.29,27.31-26.8,3.38-33.6-76.67-30.54-94.08,7.24-16.95,25.67-.08,34.91,8.69Z"/>
    <path class="cls-1" d="M462.34,385.13c22.72,2.03,50.79,2.16,72.51-6.42.29-33.67-13.23-72.66-27.05-103.49,6.3.2,17.33,1.55,24.39,1.83-15.84-52.72-55.68-98.45-100.04-129.28,6.52-2.06,22.83-2.87,27.82-3-34.89-22.43-90.65-9.13-98.63,36.26.19-7.23-1.7-19.59-13.01-22.36l8.7-8.55c-8.61-5.26-23.01-5.78-33.24-1.75,2.16-14.94-10.9-28.46-24.52-33.96,28.46,26.35,2.85,52.11-.97,81.11.02,0,.22,0,.65,0h.02c.4-3.74,5.59-34.32,38.82-42.26l-.23.49-4.95,10.55c20.68,2.42,22.77,27.88.7,34.77,7.75-22.54-29.92-20.06-30.24-3.5,3.75,0,9.2.01,12.9.02.91,6.35-9.91,9.16-15.26,8.93-1.35,5.04,4.78,8.99,8.72,10.52-1.49,3.38-5.48,5.71-9.12,5.65-.64,4.09-3.06,7.63-6.04,10.36-.02-.01-.03-.03-.05-.05-.02.01-.03.03-.05.05-3.04-2.72-5.41-6.27-6.05-10.36-3.74.02-7.59-2.3-9.12-5.65,3.71-1.35,10.13-5.53,8.72-10.52-5.58.39-16.58-3.19-15.26-8.93,3.42,0,9.47-.02,12.9-.02,1.73-14.39-40.37-20.93-31.85,2.5-22.57-6.05-19.5-33.93,1.85-33.78l-7.01-8.32c33.2.23,40.84,36.46,41.12,39.56h.02c.43,0,.63,0,.64,0-3.87-29.22-32.95-55.19-2.37-81.61-15,5.22-26.76,20.14-27.29,35.84-9.52-3.59-21.86-2.56-30.98,0,.45.44,8,7.86,8.7,8.55-9.69,1.38-13.85,15.61-13.01,22.36-7.97-46.12-64.96-58.05-100.37-35.89,8.25.36,19.71.79,27.82,3-46.69,27.85-80.39,75.66-95.89,127.3-.05,0,16.56-.61,21.01-.7h0c-19.11,33.21-22.54,69.61-22.04,101.04,24.15,8.08,50.62,10.04,75.88,7.44-14.75,8.97-30.01,15.13-46.77,17.01,1.19,17.37,5.41,35.82,13.52,51.59,8.19-9.53,20.98-16.91,20.98-16.91,5.41,37.11,18.78,71.42,42.72,102.85l10.62-22.66c15.7,19.96,92.44,83.74,131.28,86.16-69.38-56.84,77.88-57.33,102.35-81.92.57,2.42,3.7,17.1,4.25,19.42,29.79-26.4,50.93-60.39,58.25-96.48,0,0,8.69,1.62,22.45,12.14,9.31-13.08,13.74-33.75,14.57-47.79-16.05-3.42-35.19-12.97-49.83-21.86,2.03.27,4.17.51,6.34.73ZM172.69,514.73c28.32,37.92,70.69,83.74,137.95,90.01,7.89-46.32,64.73-53,95.68-85.76"/>
    <path class="cls-1" d="M136.99,213.65h0c.16.08.11.06,0,0Z"/>
    <path class="cls-1" d="M253.47,249.18c.03-.08.07-.15.1-.23,0,0-.05.1-.11.24,0,0,0,0,0,0Z"/>
    <path class="cls-1" d="M306.04,461.52c-.11-.03-.06-.01,0,0,0,0,0,0,0,0,0,0,0,0,0,0,0,0,0,0,0,0Z"/>
    <path class="cls-1" d="M334.59,249.82s.06.09.08.13c.07.11.14.21.21.32.01.02.02.04.04.06-.01-.03-.03-.03-.04-.06-.06-.14-.13-.24-.21-.32-.03-.04-.05-.12-.09-.14,0,0,0-.01,0-.01,0,0,0,0,0,0,0,0,0,.01.01.02Z"/>
    <path class="cls-1" d="M294.91,409.25c.21,0,.63,0,.63-.01.17,0,.35,0,.52,0,.53,0,1-.02,1.55-.02,1.65,0,3.19.01,4.66.05.21,0,.39.02.59.02,4.62.14,8.28.5,11.29.97,1.64.25,3.14.52,4.37.82.47.11.85.23,1.27.35.29.08.62.16.89.24,4.79,1.49,5.78,3.1,5.78,3.1,0,0-.78-2.66-5.79-5.08-1.54-.75-3.57-1.45-6.03-2.06-1.84-.45-3.91-.86-6.36-1.16-2.6-.32-5.57-.52-8.96-.57-.55,0-1.06-.04-1.64-.04-.53,0-.99.02-1.5.03-.22,0-.44,0-.66.01-.51,0-.76,0-1.26,0-.22,0-.43,0-.66-.01-.51,0-.97-.03-1.5-.03-.58,0-1.08.03-1.64.04-3.39.05-6.36.26-8.96.57-3.28.4-5.93.98-8.14,1.64-1.65.49-3.1,1.02-4.25,1.58-5.01,2.42-5.79,5.08-5.79,5.08,0,0,.65-1,3.26-2.16.7-.31,1.51-.63,2.53-.95.65-.2,1.36-.4,2.16-.59.77-.19,1.64-.36,2.56-.53,3.28-.61,7.53-1.09,13.1-1.26.2,0,.38-.02.59-.02,1.47-.04,3.02-.06,4.66-.05.55,0,1.03.02,1.55.02.18,0,.35,0,.52,0v.02c.2,0,.42,0,.63-.01Z"/>
    <path class="cls-4" d="M199.25,228.26c.22.16.44.32.66.49,1.42,1.08,2.81,2.19,4.19,3.3-1.33-1.11-2.68-2.2-4.05-3.28-.26-.21-.53-.42-.79-.62-9.91-7.71-20.68-14.25-31.44-17.37-.63-.18-1.26-.33-1.89-.49.62.17,1.24.41,1.87.61,10.55,3.33,21.45,9.82,31.45,17.36Z"/>
    <path class="cls-4" d="M163.44,209.72c.44.09.89.18,1.33.28-.45-.11-.89-.18-1.33-.28Z"/>
    <path class="cls-4" d="M451.54,409.43c-20.07-7.03-24.58-16.7-24.58-16.7,4.14-25.17,8.93-55.18,19.53-78.26-7.52,11.95-19.25,20.36-32.5,27.98,19.03-46.84,51.79-53.73,29.21-103.48-2.93-6.45,6.4-19.51,7.8-25.63-2.33,1.24-16.83,8.4-22.03,11.18,0,.05,0,.12,0,.19,0-.03,0-.07,0-.1,26.65,75.99-52.37,124.26-94.45,23.88-10.68-24.76-25.36-24.54-40.31-9.18-.26,0,.2-.01-.06-.02-.02.11.02-.11,0,0-14.8-16.63-30.82-15.26-41.12,10.31-35.92,89.13-117.88,68.53-94.05-24.35-4.22-2.25-9.51-5.79-13.88-8.12-1.82-.97-3.53-1.88-4.9-2.61,0,0,0,0,0,0-1.02-.54-3.01-.87-3.01-.87.11.06.16.08,0,0,1.86,8.14,5,20.53,6.9,28.08-21.75,34.25,11.84,64.23,28.2,92.96-18.92-18.28-38.91-34.73-59.5-57.61,30.19,32.34,37.62,78.86,45.18,120.64-8.54,7.1-14.02,10.15-25.05,14.41.93,22.5,11.85,64.37,31.85,89.62,2.55-3.61,4.02-5.87,5.82-8.5.64-.94,1.62-2.36,2.26-3.29h0c18.92,26.22,58.04,48.46,92.22,48.68-14.34-7.4-37.54-19.38-49.35-35.39,40.26,24.31,115.96,31.44,164.37.79-11.34,11.89-30,24.66-45.7,33.99,25.8-4.84,60.4-22.01,78.46-42.53,1.16,3.09,2.45,6.54,3.6,9.64,22.52-19.18,32.42-70.84,35.12-95.75l-.03.04Z"/>
    <path class="cls-4" d="M379.1,440.72c2.32-6.77,4.35-13.93,6.23-21.17-2.03,6.92-4.12,14.23-6.23,21.17Z"/>
    <path class="cls-2" d="M138.94,214.57c.38.2.8.42,1.26.67,0,0,0,0,0,0,5.93,3.16,12.86,6.84,18.79,10-1.39,15.08-.6,31.96,8.33,44.82,26.67,31.73,69.77,10.28,85.89-20.88-5.15,5.07-11.15,9.74-18.08,13.59-20.12-23.25-65.23-69-97.93-49.12.49.26,1.07.57,1.74.92Z"/>
    <path class="cls-2" d="M334.98,249.55c15.85,29.87,64.42,48.4,86.34,15.36,7.02-10.89,7.05-26.91,7.78-39.66,5.15-2.76,19.62-10.7,21.89-11.91-3.18-2.26-6.72-3.37-10.33-4.13h0c-22.58-3.61-43.25,12.17-60.01,25.59,0,0,0,0,0,0-10.37,8.86-19.48,17.87-27.69,27.98-6.79-3.36-18.08-13.44-17.98-13.23Z"/>
    <path class="cls-2" d="M338.54,238.42c.38-.37.64-.78,1.01-1.06,26.97-20.06,60.19-57.93,102.41-54.32-61.75-50.35-103.43,55.38-103.43,55.38Z"/>
    <path class="cls-2" d="M182.14,199.74c15.77,8.68,45.68,27.08,57.28,33.85-19.56-28.16-51-69.61-88.11-39.96,1.95-.16,22.24,1.38,30.83,6.11Z"/>
    <path class="cls-2" d="M306.04,461.52c.05.02.11.03,0,0h0s0,0,0,0c0,0,0,0,0,0Z"/>
    <path class="cls-1" d="M341.87,493.34c-41.99-9.78-117.19,12.11-135.22-24.98,11.01,40.97,55.79,39.98,89.07,38.45,28.03-1.29,78.13,13.69,90.26-37.89-2.58,10.98-24.79,28.92-44.11,24.42Z"/>
    <path class="cls-1" d="M260.32,388.44c2.25-9.83,67.77-9.8,70.19-1.31-3.03-15.42-67.78-14.24-70.19,1.31Z"/>
    <path class="cls-1" d="M257.06,400.61c2.46-9.83,74.07-9.8,76.71-1.31-3.31-15.42-74.08-14.24-76.71,1.31Z"/>
    <path class="cls-4" d="M260.32,418.38c2.25-9.83,67.77-9.8,70.19-1.31-3.03-15.42-67.78-14.24-70.19,1.31Z"/>
    <path class="cls-3" d="M411.3,238.42c-3.25.96-6.65,1.73-10.03,2.44,9.91,15.86-20.85,26.53-21.85,7.63-3.22,2.64-5.3,6.09-6.61,9.98,12.46,21.1,48.97,6.86,38.49-20.05Z"/>
    <path class="cls-3" d="M213.97,256.69c-1.29-2.51-3.04-4.8-5.26-6.61-1.03,19.03-31.78,8.03-21.85-7.63-3.97-.8-6.87-1.57-10.03-2.44-10.9,26.42,25.96,41.23,38.49,20.05-.3-1.07-.77-2.2-1.35-3.37Z"/>
    <path class="cls-1" d="M207.4,412.92c7.23,19.38,6.93,47.14,20.51,62.07,15.96,7.29,47.33,11.53,56.48-13.27.07-.19-1.01-.19-1.01-.37-16.59-1.58-31.38-4.17-46.52-10.83-19.4-18.67-35.56-59.61-47.3-82.85,2.38,6.24,15.64,39.03,17.84,45.24Z"/>
    <path class="cls-2" d="M237.4,468.61s0,0,0,0c.44.31,1.01.56,1.65.76.11.03.22.07.33.09.2.05.38.13.59.17,0,0,0,0,0,0,0,0,0,0,0,0,.19.03.37.02.55.04,1.99.21,3.67-.36,3.86-1.42.09-.47-.19-.95-.63-1.39-.57-.57-1.48-1.05-2.6-1.32-.15-.04-.27-.1-.43-.12-1.74-.31-3.3,0-4.02.71-.2.2-.36.41-.41.67-.11.62.34,1.27,1.1,1.8Z"/>
    <path class="cls-2" d="M236.06,456.27c-.56-.49-1.38-.88-2.36-1.13-.11-.03-.21-.07-.32-.09-.08-.02-.13-.05-.21-.06-1.82-.32-3.41.04-4.08.81-.15.18-.31.35-.35.57-.08.47.14.95.58,1.38.43.42,1.06.8,1.82,1.08.4.15.81.28,1.27.37,1.08.19,2.09.14,2.88-.09.03,0,.08-.01.11-.02.79-.25,1.34-.69,1.44-1.27.1-.53-.23-1.06-.77-1.54Z"/>
    <path class="cls-2" d="M251.7,459.05c-.27-.08-.52-.18-.81-.24-1.14-.21-2.21-.14-3.01.12-.77.25-1.31.68-1.41,1.25h0c-.1.54.23,1.09.8,1.57.05.04.07.09.13.13.66.51,1.63.93,2.74,1.13,1.72.31,3.27,0,4-.67.21-.2.37-.42.42-.68,0,0,0,0,0-.01,0,0,0,0,0,0,.11-.62-.32-1.26-1.07-1.79-.47-.34-1.09-.6-1.78-.81Z"/>
    <path class="cls-1" d="M385.37,410.97c2.16-6.06,13.76-37.3,16.08-43.39-11.52,22.07-28.46,61.64-45.87,80.28-14.09,9.95-31.79,10.69-48.78,13.07,0,.18-.84.26-1.01.37,7.92,18.54,37.83,19.45,53.79,12.17,6.38-5.15,7.56-15.27,11.14-23.76,4.13-11.19,10.99-26.84,14.65-38.74Z"/>
    <path class="cls-2" d="M352.78,468.19s0,0,0,0c-.44.31-1.01.56-1.65.76-.11.03-.22.07-.33.09-.2.05-.38.13-.59.17,0,0,0,0,0,0,0,0,0,0,0,0-.19.03-.37.02-.55.04-1.99.21-3.67-.36-3.86-1.42-.09-.47.19-.95.63-1.39.57-.57,1.48-1.05,2.6-1.32.15-.04.27-.1.43-.12,1.74-.31,3.3,0,4.02.71.2.2.36.41.41.67.11.62-.34,1.27-1.1,1.8Z"/>
    <path class="cls-2" d="M354.12,455.86c.56-.49,1.38-.88,2.36-1.13.11-.03.21-.07.32-.09.08-.02.13-.05.21-.06,1.82-.32,3.41.04,4.08.81.15.18.31.35.35.57.08.47-.14.95-.58,1.38-.43.42-1.06.8-1.82,1.08-.4.15-.81.28-1.27.37-1.08.19-2.09.14-2.88-.09-.03,0-.08-.01-.11-.02-.79-.25-1.34-.69-1.44-1.27-.1-.53.23-1.06.77-1.54Z"/>
    <path class="cls-2" d="M338.49,458.64c.27-.08.52-.18.81-.24,1.14-.21,2.21-.14,3.01.12.77.25,1.31.68,1.41,1.25h0c.1.54-.23,1.09-.8,1.57-.05.04-.07.09-.13.13-.66.51-1.63.93-2.74,1.13-1.72.31-3.27,0-4-.67-.21-.2-.37-.42-.42-.68,0,0,0,0,0-.01,0,0,0,0,0,0-.11-.62.32-1.26,1.07-1.79.47-.34,1.09-.6,1.78-.81Z"/>
    <path class="cls-2" d="M440.94,324.22c10.69-16.35,21.82-32.5,34.69-47.14-25.41,12.99-47.39,41.78-58.32,59.51-6.78,11.01-16.23,30.53-22.64,46.49-7.79,26-16.88,47.3-29.32,78.85-3.3,8.36-7.46,12.1-17.92,13.04-15.25,1.2-33.5,1.08-41.39-13.46-.05-.02-.12-.04,0,0-.55-1.84-.72-3.91-.43-6.08,4.58-.26,9.83-.21,15.41-3.46-23-17.54-9.52-27.52,13.13-19.35,11.58-24.01-5.02-31.51-39.26-31.66-35.38-.16-49.84,8.07-38.21,31.66,17.69-7.01,37.07,2.84,14.76,19.63,2.87,1.95,9.36,3.16,13.77,3.19-.53,24.96-40.22,25.47-56.01,14.44-11-15.88-15.3-38.01-21.81-56.95-9.33-26.18-19.61-52.39-33.88-76.32.05.11.1.22.15.32-14.85-24.75-35.63-46.3-61.33-59.84,48.01,54.12,74.6,122.45,94.32,191.28,16.95,29.77,50.41,30.11,88.76,29.12,19.67-.51,37.62,4.44,57.2-.04,32.15-6.76,35.83-32.12,41.26-61.89,9.49-36.91,23.05-74.6,47.07-111.33Z"/>
    <path class="cls-4" d="M257.06,418.61c2.46-9.83,74.07-9.8,76.71-1.31-3.31-15.42-74.08-14.24-76.71,1.31Z"/>
  </g>
</svg>