<?xml version="1.0" encoding="UTF-8"?>
<svg id="Layer_1" data-name="Layer 1" xmlns="http://www.w3.org/2000/svg" viewBox="0 0 485 342">
  <defs>
    <style>
      .cls-1 {
        fill: #d3e0e8;
      }

      .cls-1, .cls-2, .cls-3 {
        fill-rule: evenodd;
        stroke-width: 0px;
      }

      .cls-2 {
        fill: #69b733;
      }

      .cls-3 {
        fill: #162036;
      }
    </style>
  </defs>
  <path class="cls-1" d="M201.6,325.12c2.86-2.8,8.82-9.96,10.78-16.75l-44.89,22.12,5.14-39.58-46.53,22.06,7.8-35.32-25.18,9.89-2.55-.47c-.14-.03-13.2-1.67-33.47-.18-46.15,3.38-61.15,48.56-61.15,48.56h0c-.17-5.29-55.68-159.35,78.1-262.52-.31.01-18.37,1.01-18.37,1.01h0c1.13-1.78,26-58.64,119.78-70.7l.69-.38,1.7.03C208.77.7,225.01-.25,241.74.06c22.96.42,47.46,3.22,72.82,8.31,37.26,7.49,64.66,20.77,81.43,39.5,15.53,17.34,18.01,34.84,17.64,45.66l18.71,31.43,48.1,17.8,1.3,2.73c.44.93,4.3,9.46,2.98,22.67-.17,1.74-1.36,7.36-3.46,14.4-.48,1.63-1.03,3.37-1.63,5.19-2.1,6.35-4.5,12.43-7.14,18.09-1,2.15-2.07,4.3-3.21,6.45-9.33,17.59-20.78,29.64-34.02,35.81l-5.54,2.58c.41.69,1.88,3.25,1.88,3.25.86,1.56,1.65,3.1,2.37,4.6l.3.66c.65,1.39,1.2,2.66,1.7,3.91l.53,1.34c.46,1.21.89,2.42,1.27,3.6l.3.9c.46,1.49.84,2.95,1.17,4.38l.18.88c.27,1.31.48,2.43.64,3.54l.17,1.24c.16,1.33.28,2.61.35,3.88l.02.38c.06,1.41.05,2.79-.01,4.15l-.05.87c-.09,1.3-.19,2.33-.33,3.35l-.15,1.08c-.21,1.31-.47,2.61-.79,3.89l-.16.56c-.25.97-.6,2.1-.99,3.21l-.37,1.02c-.37.98-.77,1.94-1.21,2.88l-.33.72c-.57,1.19-1.18,2.32-1.84,3.43l-.33.54c-.6.97-1.18,1.86-1.8,2.72l-.6.83c-.69.92-1.4,1.83-2.16,2.71l-.32.38c-.75.87-1.64,1.82-2.57,2.74l-.45.44c-.9.87-1.68,1.58-2.48,2.28l-.69.59c-1.92,1.62-4.05,3.2-6.31,4.69l-.74.48c-.92.59-1.91,1.19-2.91,1.76l-.5.29c-1.21.68-2.43,1.33-3.68,1.96-1.33.66-2.51,1.2-3.72,1.74l-.69.3c-1.22.53-2.46,1.03-3.71,1.51-1.46.56-2.84,1.04-4.23,1.51l-.38.12c-1.26.41-2.51.79-3.78,1.16l-.59.17c-2.76.78-5.64,1.47-8.57,2.07l-.41.08c-1.42.28-2.78.53-4.15.75l-.36.06c-2.94.47-5.96.86-9,1.14h0l-.5.04c-1.41.12-2.82.23-4.24.31h-.24c-2.83.17-5.74.24-8.64.22l-1.62-.02c-2.32-.04-4.64-.14-6.95-.3l-161.25-1.25,15.8-15.31Z"/>
  <path class="cls-3" d="M474.83,153.07c-.09-.34-.17-.66-.26-.96-.51-1.78-.97-2.74-.97-2.74l-46.12-18.41-23.1-34.42s0,0,0,0c2.54-23.92-12.3-63.4-91.6-79.33-47.94-9.63-87.15-9.89-118.75-5.3,0,0-.03,0-.03,0h-.01c-80.17,11.65-105.73,52.06-105.73,52.06,12.28-.68,26.93,1.66,26.93,1.66C-24.42,159.56,16.24,310.36,16.24,310.36c24.32-44.8,91.6-32.16,91.6-32.16l38.52-15.13-7.48,33.86,44.83-21.25-5.1,39.28,40.84-20.13c9.88,15.98-11.56,36.75-11.56,36.75l139.47,1.08c23.77,1.71,49.08-3.25,65.68-14.75,0,0,.01,0,.02-.01,1.02-.7,2-1.43,2.95-2.19.01-.01.03-.02.04-.04.46-.36.91-.73,1.35-1.11.02-.01.03-.03.05-.04.89-.76,1.75-1.55,2.57-2.36.04-.04.09-.09.13-.13.39-.39.77-.78,1.15-1.18,0,0,.02-.02.03-.03.4-.42.78-.85,1.16-1.29.01-.02.03-.03.04-.05.34-.4.67-.8,1-1.2.05-.07.11-.13.16-.2.68-.86,1.32-1.74,1.91-2.64.04-.07.09-.13.13-.2.25-.39.5-.78.74-1.17.05-.08.1-.16.15-.24.54-.91,1.04-1.85,1.5-2.8.05-.1.1-.2.14-.3.19-.4.37-.81.54-1.21.04-.09.07-.17.11-.25.2-.49.4-.98.58-1.48.02-.06.04-.12.06-.18.15-.43.3-.87.44-1.31.04-.13.08-.25.12-.38.13-.44.26-.88.37-1.33.02-.07.04-.13.05-.2.13-.52.25-1.04.36-1.56.02-.12.04-.23.07-.35.08-.42.16-.84.22-1.27.02-.14.04-.28.07-.42.08-.53.15-1.07.2-1.61,0,0,0,0,0,0,.05-.55.09-1.1.13-1.65,0-.15.01-.3.02-.44.02-.43.03-.87.04-1.31,0-.14,0-.29,0-.43,0-.56,0-1.13-.03-1.7,0-.08,0-.16-.01-.24-.02-.5-.06-1-.1-1.5-.01-.17-.03-.34-.05-.51-.05-.47-.1-.94-.16-1.42-.02-.13-.03-.26-.05-.39-.08-.59-.18-1.19-.28-1.79-.02-.14-.05-.28-.08-.42-.09-.48-.19-.96-.29-1.44-.04-.18-.08-.36-.12-.55-.12-.54-.26-1.09-.4-1.64-.02-.08-.04-.16-.06-.24-.17-.62-.35-1.25-.55-1.89-.05-.18-.11-.35-.17-.53-.15-.49-.32-.98-.49-1.47-.06-.18-.13-.37-.19-.55-.23-.65-.47-1.3-.73-1.96-.02-.06-.05-.13-.08-.19-.24-.6-.49-1.21-.75-1.81-.08-.2-.17-.4-.26-.59-.23-.52-.47-1.05-.72-1.58-.08-.17-.15-.33-.23-.5-.32-.68-.66-1.36-1.02-2.05-.07-.14-.15-.29-.23-.43-.29-.56-.59-1.12-.9-1.69-.12-.21-.23-.42-.35-.63-.33-.59-.67-1.18-1.02-1.78-.07-.13-.14-.25-.22-.38-.42-.71-.86-1.43-1.31-2.14-.12-.19-.25-.38-.37-.58-.36-.56-.72-1.12-1.09-1.68-.14-.21-.28-.43-.43-.64-.5-.73-1-1.47-1.53-2.22,0,0,0,0,0,0-5.11-10.34.9-26.25,17.75-26.39,0,.02,0,.04.01.06.06,2.67.19,5.08-.1,7.63-.54,3.49-1.73,7.11-3.57,10.41,2.03-.95,3.98-2.05,5.85-3.28.93-.62,1.85-1.27,2.74-1.94,1.34-1.02,2.64-2.11,3.9-3.25.84-.76,1.65-1.55,2.45-2.37.8-.81,1.58-1.65,2.34-2.5.76-.86,1.5-1.73,2.23-2.63.72-.89,1.43-1.81,2.12-2.73,2.75-3.71,5.22-7.65,7.42-11.66.82-1.5,1.61-3.01,2.36-4.52.25-.5.5-1.01.74-1.51.48-1.01.95-2.01,1.4-3.01s.89-1.99,1.31-2.98c.84-1.97,1.62-3.92,2.34-5.81.36-.95.7-1.88,1.03-2.8,1.48-4.13,2.67-7.95,3.58-11.19.1-.36.2-.71.3-1.06.57-2.08,1.02-3.89,1.36-5.36.16-.68.29-1.29.4-1.81.02-.07.03-.14.05-.21.22-1.06.34-1.76.37-2.03.62-6.23-.13-11.12-.91-14.19Z"/>
  <path class="cls-1" d="M253.32,96.45c-4.93-11.87-32.37-17.02-52.23-6.06-48.33,25.38-12.84,77.23-10.81,77.87-6.58-16.05-4.66-49.99,15.54-60.09,1.22-.71,2.42-1.33,3.61-1.9-2.9-4.51-6.9-6.79-6.9-6.79l24.84,3.42h0c3.24.47,6.19,1.54,8.8,3.15,10.41,6.42,5.36,15.19,5.36,15.19,0,0,18.07-9.65,11.78-24.79Z"/>
  <path class="cls-2" d="M107.29,215.75s4.51-25.58,24.69-31.46c0,0-11.01-9.26-25.55-14.63,10.66-2.5,18.61-2.84,18.61-2.84-15.53-13.81-11.77-31.74-11.77-31.74-9.85,5.5-17.67,11.65-23.85,17.77,1-7.68,5.47-18.74,18.64-33.32,0,0-73.41,12.47-77.68,140.14,0,0,12.65-41.42,40.24-65.51,0,0-16.1,17.54-3.54,52,0,0,8.91-24.1,26.66-42.24-.35,7.84-.31,29.52,9.58,44.17,0,0,12.19-31.06,48.17-47.52,0,0-29.01,1.29-44.21,15.18Z"/>
  <g>
    <path class="cls-1" d="M338.93,131.29l-16.95-3.75c3.72,11.37,10.69,15.46,17.91,16.16l-.96-12.41Z"/>
    <path class="cls-1" d="M351.14,133.99l-1.19,8.86c7.94-1.91,14.31-5.96,14.31-5.96l-13.12-2.9Z"/>
  </g>
  <path class="cls-1" d="M466.84,170.45c-2.74,7.51-7.57,21.65-10.31,29.16-1.68-.5-2.76-2.18-3.58-3.58-5.92-10.16,2.34-26.47,13.89-25.58Z"/>
  <path class="cls-1" d="M426.93,171.73l-13.16,18.73c-2.37-8.71-4.12-22.64-5.67-31.04,26.1-10.38,61.58-2.28,61.58-2.28,0,0-35.35-22.01-72.43-23.44,6.62-1.04,12.25-1.18,16.7-.95l-13.94-23.43-14.46,11.18s-30.97-24.66-89.05-20.34c-8.35,23.97-23.32,27.08-33.79,26.39,1.23-5.49,2.22-9.96,2.22-9.96-12.34,7.4-13.82,8.33-13.82,8.33h0c-22.58,16.26-43.45,39.27-52.63,72.08,9.68-22.44,42.19-32.36,42.19-32.36-17.59,18.18-24.85,40.09-27.79,56.57,5.85,8.5,13.91,17.57,26.04,25.3,13.98-11.46,21.34-29.95,24.96-47.48,0,0,7.9,31.86-1.32,58.58,8.43,2.82,18.09,5.06,29.22,6.5,3.96-8.09,3.19-24.54,1.43-31.19,2.24.65,13.38,6.11,16.53,49.37,2.53,39.16,62.06,34.58,65.59,33.76,0,0-8.09-2.91-11.16-9.05,28.47,9.58,46.89.12,53.39-10.37,5.19-8.15,4.3-24.03-.49-32.48-3.54,11.48-12.99,20.65-36.13,17.35,2.48-14.36-5.98-22.1-7.29-21.76,0,22.33-14.5,25.57-26.2,20.36,0,0-51.68-38.98-27.97-78.53,9.92-16.54,37.18-30.95,37.18-30.95l-30.47,45.99c27.19-8.17,47.33-8.7,53.86-3.89-1.37,10.25,3.64,19.66,10.27,23.07,9.19-49.29,54.33-11.43,48.84-56.01-.79-5.22-2.16-9.48-12.19-8.06ZM417.41,296.59c-.19-.09-.36-.17-.51-.24.21.1.4.19.51.24ZM406.84,188.49l-50.17-4.13,46.49-2.83,3.67,6.96ZM399.02,169.95l2.73,6.93-39.62-4.17,36.89-2.77ZM352.6,148.42c-36.3,10.48-52.3-5.67-52.3-5.67l14.26-10c-9.74-2.66-18.83-1.64-18.83-1.64,21.21-26.7,52.92-11.34,64.85-5.21,11.93,6.13,24.75,8.06,24.75,8.06-7.85,4.55-15.1,8.04-21.79,10.69-4.26,1.77-7.86,2.99-10.94,3.76ZM351.09,195.38l57.92-2.25,4.07,6.97-61.99-4.72Z"/>
  <path class="cls-2" d="M327.17,30.67c-15.41-5.5-40.03-10.19-69.32-10.98,27.28,6.58,54.43,18.73,61.24,41.15.12-.04-77.83-70.17-209.45-7.78,0,0,32.24-10.74,65.69-3.55-33.39,4.14-47.04,33.03-47.04,33.03,0,0,24.75-13.69,59.1-21.65-44.54,20.08-73.53,55.77-18.54,118.58-25.24-81.83,19.04-106.24,61.18-105.79-3.34-8.96-18.06-14.61-18.06-14.61,32.05-.94,49.15,16.73,49.15,16.73-6.35-17.47-33.02-27.49-33.02-27.49,52.74,7.1,65.83,29.3,68.94,37.79,17.14-1.39,45.47-1.37,69.4,9.75,0,0-2.56-26.86-25.57-44.78,26.11,10.32,40.29,26.38,52.43,50.13.55-29.85-14.59-52.13-66.13-70.52Z"/>
</svg>