<?xml version="1.0" encoding="UTF-8"?>
<svg id="Logo" xmlns="http://www.w3.org/2000/svg" width="9.88in" height="8.34in" viewBox="0 0 711.55 600.37">
  <defs>
    <style>
      .cls-1 {
        fill: #636569;
      }

      .cls-1, .cls-2, .cls-3 {
        stroke-width: 0px;
      }

      .cls-2 {
        fill: #1c1b1a;
      }

      .cls-3 {
        fill: #fff;
      }
    </style>
  </defs>
  <g>
    <path class="cls-2" d="M402.53,64.23s-.05,0-.08,0c0-.04,0-.11,0-.11.02.04.06.07.08.11Z"/>
    <path class="cls-3" d="M316.41,600.37l-5.66-.25c-5.47-.24-53.92-2.9-70.75-22.89-4.84-5.75-6.91-12.6-5.99-19.8.79-6.17,4.49-17.87,25.83-49.09-43.09-1.62-88.69.58-135.77,6.57-7.16.94-13.71-4.6-16.45-8-4.46-5.52-3.73-10.3-2.9-12.66l.66-1.89,73.4-72.96c-29.63-15.28-46.98-30.44-60.1-43.52-3.46-3.12-6.88-6.64-10.19-10.41l-15.93-5.43c-23.23-7.92-54.07-28.49-66.56-59.56-17.68-43.99,14.49-85.64,14.49-85.64,0,0,23.93,24.66,60.26,32.66,39.29-37.66,80.35-58.79,127.06-64.49-92.39-3.27-209.99-31.7-225.14-84.17l-2.66-9.22s85.47-17.7,174.83-26.89C151.83,36.29,150.14,0,150.14,0c0,0,119.62,16.94,243.56,43.79,0,0,77.07,17.49,112.55,26.88,85.48.96,119.69,31.63,147.21,56.3,2.34,2.1,23.66,20.82,23.66,20.82l-10.78.32c15.74,11.76,32.19,26.44,38.89,40.37,1.31,2.74,2.43,5.54,3.34,8.37l1.73,6.6c9.59,46.98-39.35,85.42-46.47,88.98l-4.38,2.19-4.78-2.99c-7.9-5.15-29.65-16.73-65.59-16.85-6.25,12.65-11.49,29.55-6.4,45.29l2.4,7.42-7.1,3.23c-.69.31-14.84,6.56-33.12,1.31-2.04,4.24-3.24,7.63,2.25,16.46l4.75,7.63-7.75,4.54c-15.57,9.11-39.58,3.73-54.34-2.86l-57.24,41.88c43.3.22,55.07,8.3,60.16,15.79,19.5,28.7-17.55,62.01-19.13,63.42l-3.21,2.84s-8.61-1.82-15.61-2.54c-1.06,24.05-13.91,49.32-14.54,50.54l-2.67,5.18-5.81-.47c-8.59-1.18-17.44-2.91-31.07-6.08-8.4-1.95-17.72-4.12-28.39-6.34l-7.9,25.76-6.98-.55c-.3-.02-5.85-.47-13.43-1.93l-27.56,55.04ZM530.56,321.26h0ZM400.59,65.41"/>
  </g>
  <polygon class="cls-2" points="643.89 255.74 631.4 271.49 661.66 281.83 681.2 258.3 643.89 255.74"/>
  <g>
    <path class="cls-2" d="M642,183.82c.08-.02.09-.02.13-.03-.07.01-.13.03-.13.03Z"/>
    <path class="cls-2" d="M642.13,183.79c.11-.02.19-.04,0,0h0Z"/>
    <path class="cls-2" d="M701.25,202.66l.05-.16s-.08-.04-.11-.06c-.88-3.47-2.13-6.98-3.83-10.52-8.74-18.17-38.86-39.95-57.99-52.09l15.27-.46c-29.3-25.67-59.44-59.58-149.57-60.32C338.8,34.96,161.21,10.03,161.21,10.03c6.07,29.55,19.56,48.13,31.66,59.37-97.02,9.01-168.12,24.01-169.04,24.22l-12.76,2.44c17.19,59.52,198.84,89.94,287.4,74.24,56.46-10.01,94.13-15.15,120.3-13.84-4.08,30.55-20.26,52.81-103.28,40.52.02.03.04.06.06.09-94-20.92-156.92,5.25-212.13,59.68,0,0-36.04-6.99-60.6-28.57-39.02,69.38,18.4,111.59,52.56,123.24,0,0,0,0,0,0-10.37-15.75-7.65-32.18-7.65-32.18,8.62,16.43,23.14,37.53,36.88,49.88,0,0,.01,0,.02,0,17.1,17.08,36.41,32.25,69.02,47.5l-80.68,80.19c-1.18,3.35,6.13,9.57,9.99,9.08,60.31-7.67,111.05-8.41,153.14-5.87-17.77,24.8-32.05,47.54-33.41,58.18-3.81,29.7,68.45,32.84,68.45,32.84l28.07-56.05c10.3,2.53,18.88,3.2,18.88,3.2l8.17-26.64c32.2,6.34,53.34,11.78,66.19,13.85,0,0,16.5-32.07,13.21-56.28,8.27.73,15.75,1.68,22.13,2.89,0,0,33.09-29.29,17.69-51.96-8.09-11.91-44.49-13.18-80.74-11.18l84.17-61.58c14.25,7.84,38.17,12.9,50.81,5.5-12.25-19.69.8-25.2-.53-32.64,19.27,9.54,35.2,2.29,35.2,2.29-6.74-20.86,1.68-42.67,9.39-56.66,48.09-1.28,73.75,17.01,76.16,18.51,5.48-2.74,51.8-39.31,41.32-81.59Z"/>
  </g>
  <g>
    <path class="cls-2" d="M642,184.18c.08-.02.09-.02.13-.03-.07.01-.13.03-.13.03Z"/>
    <path class="cls-2" d="M642.13,184.15c.11-.02.19-.04,0,0h0Z"/>
  </g>
  <path class="cls-1" d="M691.12,225.08s0-.02,0-.02c1.26-3.77,1.89-7.46,1.97-11.06,0-.02,0-.04,0-.06.01-.56,0-1.12,0-1.68,0-.06,0-.12,0-.19-.02-.54-.05-1.07-.09-1.6,0-.08-.01-.16-.02-.23-.04-.52-.1-1.05-.16-1.57,0-.07-.02-.15-.03-.22-.07-.53-.15-1.06-.24-1.58,0-.03-.01-.07-.02-.1-.39-2.18-.99-4.33-1.75-6.44-.05-.14-.09-.27-.15-.41-.14-.38-.3-.76-.45-1.14-.09-.22-.17-.43-.26-.65-.15-.34-.3-.69-.45-1.03-.11-.25-.22-.49-.34-.74-.15-.32-.31-.64-.47-.96-.13-.26-.27-.53-.4-.79-13.3-25.43-48.24-41.32-85.58-61.36l11.72-2.29c-73.55-59.41-115.06-16.93-125.23-17.77,0,0-37.71-12.77-48.89-34.09,0,0-.93,8.44.74,16.8-13.66-7.21-29.25-17.54-38.49-32.02-.02,0-.05,0-.07,0,.02,1.11.32,17.37,4.95,29.84-88.22-10.49-220.14-8.13-331.35,5.94-18.79,3.17-32.95,5.76-40.13,7.27,7.48,8.47,30.61,17.84,61.35,26.01l12.16-11.95,5.55,16.34c60.86,14.02,142.24,22.75,195.01,13.39,96.11-17.04,154.08-17.74,181.06-1.74l-25.64,4.66c-.67.11-1.31.23-1.95.35,3.89,13.17,8.56,24.05,13.76,33.01l-28.63-17.53c-11.77,42.19-.26,78.13,63.11,77.26,5.28,16.75,22.56,24.16,22.56,24.16,4.64-36.52,36.43-27.62,36.43-27.62l17.94-43.21c-2.82,34.98,7.89,51.53,31.14,46.78,0,0-.02,0-.02,0,47.59-9.14,57.52,5.64,57.52,5.64,21.57-30.48-18.1-66.34-34.86-68.26,7.25-.21,26.72-.68,34.16,1.54,17.44,15.79,14.39,39.81,14.39,39.81.06-.17.1-.33.16-.5Z"/>
  <path class="cls-2" d="M642,184.18c.08-.02.09-.02.13-.03-.07.01-.13.03-.13.03Z"/>
  <path class="cls-2" d="M642.13,184.15c.11-.02.19-.04,0,0h0Z"/>
  <path class="cls-2" d="M112.05,114.15s65.57,3.5,85.18,11.62l-20.46,9.91c-.14,2.99,79.98-.61,112.1-6.27,51.12-9.01,109.22-9.53,163.61-.48,0,0-146.45-39.76-340.44-14.78Z"/>
  <g>
    <path class="cls-3" d="M677.28,252.84c21.4-30.24-17.88-67.22-34.87-68.61-15.49-.5-34.05,3.17-53.77,16.19-2.82,34.98,7.89,51.53,31.14,46.78,0,0-.02,0-.02,0,47.59-9.14,57.52,5.64,57.52,5.64Z"/>
    <path class="cls-3" d="M685.33,197.33s0,.02.01.03v-.02s-.01,0-.01,0Z"/>
  </g>
  <path class="cls-1" d="M349.99,455.62c-68.67-.14-154.89,11.37-154.89,11.37,0,0,63.23.71,130.92,11.15-1.48-15.71,23.8-22.48,23.97-22.52Z"/>
  <path class="cls-3" d="M428.21,470.15c-1.57-12.45-67.69-14.54-78.21-14.54-5.18,17.23-2.66,27.84,18.05,33.98,21.2,5.41,53.93,12.67,53.93,12.67,0,0,8.57-13.56,6.23-32.1Z"/>
  <path class="cls-1" d="M414.82,422.75c-6.09.49-12.86,1.25-20.4,2.33l-6,11.98c4.07.17,8.23.4,12.43.68,1.92-10.12,13.43-14.77,13.98-14.99Z"/>
  <path class="cls-2" d="M650.72,210.5l-55.27-3.22,54.38,9.6c2.28.26,4.32-.96,4.57-2.72.25-1.76-1.4-3.4-3.67-3.65Z"/>
  <path class="cls-2" d="M650.72,220.88c-.29-.01-55.52,2.04-55.52,2.04,0,0,54.92,4.38,54.99,4.38,2.29.1,4.26-1.25,4.41-3.03.15-1.77-1.59-3.29-3.88-3.4Z"/>
  <path class="cls-2" d="M610.19,162.5c-22.77-12.88-26.23-25.79-46.99-38.65-25.91-16.05-63.89.56-63.89.56l16.41,9.2c1.06,12.32,3.43,31.62,14.6,45.14-8.7-1.27-21.56-.16-35.36,7.57,0,0,22.98-6.75,51.7,4.39,30.92,11.99,28.12,21.36,28.12,21.36,0,0,6.64-11.03-5.65-19.42,16.2-4.31,27.35-20.3,30.81-25.87,9.49-.09,19.85.58,19.85.58-3.3-1.69-6.48-3.31-9.59-4.87Z"/>
  <path class="cls-3" d="M563.92,141.89c-15.35-10.44-31.71-6.56-31.71-6.56,0,0-.3,3.71.03,9.08v.32s.02,0,.02,0c.85,12.93,5.38,35.03,26.12,38.61,18.17,3.13,37.74-17.56,37.74-17.56-11.89-5.5-15.24-12.35-32.2-23.89Z"/>
  <path class="cls-2" d="M581.22,156.75c-1.16-9.63-7.05-16.52-13.16-15.38-2.18.4-4.08,1.79-5.59,3.82,2.47.36,4.58,3.12,5.02,6.92.52,4.52-1.52,8.77-4.57,9.5-1.39.33-2.75-.13-3.87-1.16.01.14.02.28.04.42,1.16,9.63,7.05,16.52,13.16,15.38,6.11-1.14,10.13-9.86,8.97-19.5Z"/>
  <path class="cls-1" d="M424.37,245.41c21.23,44.65-19.31,88.98-40.47,108.04-.06-19.36-9.13-33.86-9.13-33.86-.09,13.66-1.17,26.2-2.58,36.94-1.88-4.4-5.12-10.52-10.69-17.83,0,0,3.66,18.27,4.41,35.31l-35.31,60.94,30.05,1.12,26.19-58.03c132.78-85.35,98.31-113.41,37.51-132.63Z"/>
  <path class="cls-3" d="M568.43,251.76c-27.76,33.07-26.76,40.97-26.76,40.97-15.95.01-34.22-17.5-34.22-17.5.17,15.4-12.87,27.94-14.72,40.5-2.29,15.54,23.04,14.81,23.69,14.62-5.94-16.01,3.1-20.68,2.52-27.48,17.66,9.42,36.7,6.33,36.7,6.33-7.99-14.28,3.41-40.35,12.78-57.44Z"/>
  <path class="cls-1" d="M162.19,329.94c40.16-11.3,106.83-33.85,130.4-4.14,21.83,27.51-5.67,79.32-87.72,130.76,0,0,188.19-92.6,125.73-160.62-50.53-55.04-168.42,34-168.42,34Z"/>
  <path class="cls-3" d="M671.18,251.97c-7.72-.69-13.91.23-17.96,1.22l-.33.99-5.61,12.64,5.27,1.73c3.26-3.19,8.01-7.93,11.84-12.17-3.28,6.32-5.8,10.71-7.54,13.58l4.06,1.33,16.36-18.46-6.1-.87Z"/>
  <path class="cls-3" d="M333.97,505.83l-30.22,64.55s-72.05,7.79-2.1-69.24l32.33,4.69h0Z"/>
  <path class="cls-1" d="M204.03,219.88c-54.84,17.4-96.95,58.28-96.95,58.28,0,0-6.82-1.98-29.78-5.35,0,0,5.66,12.91,34.75,18.51l-26.41,5.37s13.99,23.32,54.65,17.96c0,0,40.79-39.7,92.52-57.04-3.16-2.57-6.1-4.68-6.1-4.68,0,0,25.03-.46,25.64-.58l-2.32-9.98c75.84,3.86,98.5,31.28,114.5,50.57,0,0-26.28-115.63-160.49-73.04Z"/>
  <path class="cls-3" d="M470.06,431.15c-1.78-10.74-30.09-9.75-55.21-8.41-2.71,6.23-2.02,12.83,1.74,17.69,15.03,3.33,47.12,8.3,47.12,8.3,0,0,8.03-7.38,6.34-17.57Z"/>
</svg>