<?xml version="1.0" encoding="UTF-8"?>
<svg id="Isolation_Mode" data-name="Isolation Mode" xmlns="http://www.w3.org/2000/svg" width="3.65in" height=".88in" viewBox="0 0 262.99 63.6">
  <defs>
    <style>
      .cls-1 {
        fill: #ed1c24;
        stroke-width: 0px;
      }
    </style>
  </defs>
  <polygon class="cls-1" points="82.12 15.99 89.74 .02 7.61 .02 0 15.99 82.12 15.99 82.12 15.99"/>
  <polygon class="cls-1" points="29.56 23.89 52.08 23.89 33.04 63.6 10.52 63.6 29.56 23.89 29.56 23.89"/>
  <path class="cls-1" d="M67.63,63.6l7.7-16.28h57.74l4.78-9.23s-30.87,0-34.74,0c-4.74,0-15.33.35-17.89-4.89-1.7-3.47,1.64-9.31,1.64-9.31,0,0,60.48,0,64.6,0s7.58.87,9.52,3.31c1.82,2.3,1.69,5.61-1.05,10.88-1.58,3.03-5.71,12.31-6.68,14.26-.97,1.94-3,5.34-8.18,7.77-5.19,2.43-9.4,3.48-16.21,3.48h-61.23Z"/>
  <path class="cls-1" d="M90.51,15.99s3.21-8.64,10.51-12.47C108-.13,122.09.02,123.36.02h53.64l-7.56,15.97h-78.92Z"/>
  <path class="cls-1" d="M180.46,15.99L187.66.02h50.66s20.51-1.16,24.23,15.97c1.68,7.72-2,14.23-2.12,14.48-.12.24-15.73,33.13-15.73,33.13h-22.63l17.5-36.18s2.67-4.32.86-8.02c-1.81-3.7-7.18-3.44-7.62-3.41-.45.03-52.35,0-52.35,0h0Z"/>
  <polygon class="cls-1" points="176.8 23.89 199.34 23.89 180.33 63.6 157.8 63.6 176.8 23.89 176.8 23.89"/>
</svg>