<?xml version="1.0" encoding="UTF-8"?>
<svg id="Layer_1" data-name="Layer 1" xmlns="http://www.w3.org/2000/svg" viewBox="0 0 422.2 298.71">
  <defs>
    <style>
      .cls-1 {
        fill: #fff1e0;
      }

      .cls-1, .cls-2, .cls-3, .cls-4 {
        stroke-width: 0px;
      }

      .cls-2 {
        fill: #ef4423;
      }

      .cls-3 {
        fill: none;
        stroke: #001333;
        stroke-linecap: round;
        stroke-linejoin: round;
      }

      .cls-4 {
        fill: #001333;
      }
    </style>
  </defs>
  <path class="cls-1" d="M31.65,171.31l-.16-.08c-9.88-3.94-14.27-20.37-14.27-20.37,0,0-8.17,19.57-7.78,29.76.28,7.24,1.42,13.55,4.39,18.73.84,1.46,1.8,2.83,2.86,4.08,5.18,6.12,12.67,9.54,22.29,10.2,1.29,8.35,7.97,14.78,12.5,17.57l2.39,1.48c-1.26,3.92-2.47,7.26-3.3,9.39l-4.09,10.5,11.26-.39c3.46-.12,6.72-.39,9.76-.8-1.49,9.59-5.23,22.5-10.45,35.6l-4.67,11.71,12.5-1.61c1.96-.25,43.15-5.77,81.01-27.42l-1.91,9.08-3.18,15.19,13.83-7.06c.23-.12,23.94-12,63.1-12,24.06,0,48.93,4.41,73.93,13.11l15.36,5.32-6.05-15.11c-.05-.11-3.73-9.49-2.54-18.63,8.95,1.6,17,2.41,23.99,2.41h0c37.08,0,41.67-22.96,44.14-35.3.1-.5.2-.99.3-1.47,11.2-6.2,47.72-28.8,54.29-62.75,3.75-19.39-2.82-38.72-19.53-57.44l-2.17-2.43-3.25-.05s-1.12-.02-3.35-.02c-9.98,0-37.75.33-82.17,3.39-5.5-2.88-21.7-10.89-44.93-18.15,2.11-28.56-18.75-60.52-19.65-61.9l-5.08-7.69-6.43,6.61c-27.11,27.87-57.37,45.02-64.57,48.9-7.36.06-16.27,1.06-24.92,2.79L5.25,0l-1.71,10.31c-12.84,77.39,11.93,132.44,31.76,162.35-1.28-.34-2.5-.79-3.65-1.35ZM22.67,132.95s-.03-.08-.05-.12c-.84-2.09-1.66-4.23-2.46-6.43-.01-.04-.03-.08-.04-.11-.77-2.11-1.51-4.28-2.23-6.49-.04-.13-.09-.26-.13-.39-.72-2.22-1.41-4.49-2.07-6.81-.04-.13-.08-.26-.12-.4-.24-.85-.47-1.71-.7-2.57-.11-.39-.22-.77-.32-1.16-.22-.83-.43-1.68-.64-2.52-.11-.43-.22-.85-.33-1.29-.25-1.04-.5-2.09-.74-3.14-.06-.25-.12-.5-.18-.75-.27-1.19-.52-2.4-.77-3.61-.03-.12-.05-.24-.08-.36-.52-2.54-.99-5.13-1.43-7.77-.02-.14-.05-.28-.07-.43-.13-.8-.25-1.62-.37-2.44-.09-.6-.19-1.18-.27-1.78-.1-.7-.19-1.42-.28-2.12-.1-.72-.2-1.44-.29-2.17-.09-.75-.17-1.5-.26-2.26-.08-.71-.17-1.41-.24-2.12-.07-.67-.12-1.34-.19-2.02-.08-.81-.16-1.62-.23-2.44-.04-.54-.08-1.09-.12-1.63-.19-2.48-.34-4.98-.45-7.53-.06-1.36-.1-2.74-.13-4.13,0-.19-.01-.38-.02-.57-.02-1.05-.03-2.12-.03-3.19,0-.53-.02-1.06-.02-1.6,0-.45.01-.91.01-1.36.01-2.78.07-5.58.18-8.43.02-.48.05-.96.07-1.44.14-3.07.34-6.17.61-9.33.24-2.87.54-5.78.9-8.72.04-.35.08-.7.12-1.05.44-3.53.96-7.11,1.56-10.74l133.1,72.8c9.3-2.04,19.84-3.32,27.91-3.19,9.88-5.06,41.1-23.43,68.06-51.16,0,0,21.32,32.3,18.28,59.02-7.06-1.65-35.1-5.17-54.24-6.27,60.33,5.69,105.1,30.76,105.1,30.76,56.74-3.97,87.03-3.5,87.03-3.5,57.32,64.23-35.72,110.3-35.72,110.3-3.88,15.07-2.11,44.52-67.26,30.71-5.74,13.51.98,30,.98,30-86.26-30-142.86-.7-142.86-.7l5.56-26.45c-40.04,29.12-92.87,35.91-92.87,35.91,6.77-17,12.09-36.33,11.66-47.63-3.66,1.13-8.65,2.11-15.21,2.52-.94.06-1.91.11-2.91.14,0,0,.01-.03.03-.08.63-1.62,10.62-27.74,9.39-41.8-12.61,3.66-11.53,22-11.53,22,0,0-12.74-7.86-8.22-18.77-.72.06-1.41.11-2.1.14-.2.01-.39.02-.59.02-.52.02-1.03.03-1.54.04-.17,0-.34,0-.5,0-.64,0-1.26-.01-1.87-.04-.12,0-.23-.01-.34-.02-.5-.03-.99-.06-1.47-.1-.17-.02-.35-.03-.52-.05-.47-.05-.93-.1-1.38-.17-.1-.01-.21-.03-.31-.04-.47-.07-.94-.15-1.39-.24-.06-.01-.12-.03-.19-.04-.13-.03-.27-.06-.4-.09-.39-.08-.77-.18-1.15-.27-.14-.04-.28-.07-.42-.11-.47-.13-.94-.27-1.39-.42,0,0-.02,0-.03,0-.45-.15-.88-.31-1.3-.48-.13-.05-.25-.1-.37-.15-.32-.14-.63-.28-.94-.42-.1-.05-.21-.1-.31-.15-.39-.19-.77-.39-1.13-.6-.07-.04-.14-.09-.21-.13-.3-.18-.59-.36-.87-.54-.11-.07-.21-.14-.31-.21-.27-.19-.54-.38-.8-.58-.06-.05-.13-.1-.19-.14-.31-.24-.61-.5-.9-.75-.08-.07-.16-.14-.23-.22-.22-.2-.43-.4-.63-.61-.08-.08-.16-.16-.24-.25-.25-.27-.5-.54-.74-.81,0,0-.02-.02-.02-.03,0,0,0,0,0-.01-.39-.47-.76-.95-1.11-1.44,0,0,0,0,0,0-.72-1.04-1.34-2.13-1.86-3.26-.02-.05-.04-.09-.06-.14-.25-.55-.47-1.11-.68-1.67-.02-.06-.04-.12-.07-.18-.2-.56-.38-1.13-.54-1.71-.01-.05-.03-.1-.04-.15-.17-.61-.32-1.23-.44-1.85,0,0,0,0,0,0-.13-.62-.23-1.24-.32-1.86,0-.05-.01-.1-.02-.15-.08-.58-.14-1.15-.19-1.72,0-.06-.01-.13-.02-.19-.05-.57-.08-1.13-.1-1.69,0-.05,0-.1,0-.15-.02-.6-.03-1.19-.02-1.77h0s0-.02,0-.03c0-.23,0-.47.01-.7,0-.06,0-.12,0-.18,0-.1,0-.19.01-.29,0-.21.02-.41.03-.61,0-.1.01-.2.02-.31,0-.12.01-.24.02-.36,0-.05,0-.11.01-.16,0-.03,0-.06,0-.09,0-.09.01-.17.02-.26.02-.25.05-.49.07-.73.02-.25.04-.5.07-.74,0-.05,0-.11.02-.16,0-.08.02-.16.03-.24.02-.19.04-.37.07-.55.01-.09.02-.17.03-.26,0-.06.02-.12.03-.18,0-.05.01-.09.02-.14.01-.07.02-.14.03-.21.01-.07.02-.14.03-.21.03-.18.06-.35.09-.52.04-.22.07-.43.11-.64.01-.06.02-.13.03-.2.01-.06.02-.13.04-.19.03-.15.06-.3.09-.44.01-.07.03-.13.04-.2,0-.01,0-.03,0-.04,0-.03.01-.06.02-.09.02-.09.04-.18.06-.27.01-.06.03-.12.04-.17.03-.12.05-.21.08-.32.04-.16.08-.32.11-.47.01-.06.03-.13.05-.19.01-.05.02-.09.04-.13.03-.1.05-.2.08-.29,0-.03.01-.05.02-.08,0-.02,0-.03.01-.04,0,0,0,0,0,0,.03-.09.05-.17.08-.25.01-.03.02-.07.03-.1.03-.1.07-.2.1-.29h0s.01.02.03.05c0,0,.01.02.02.03.02.03.04.07.07.11.01.02.03.05.04.07.03.05.07.11.11.17.02.03.04.06.06.09.13.2.31.45.52.74.03.04.07.09.1.14.08.11.17.22.26.33.04.06.09.11.14.17.1.12.2.24.31.37.05.06.09.11.14.17.32.37.69.77,1.1,1.18.06.06.12.12.19.18.15.15.31.3.47.45.08.07.16.14.23.22,0,0,0,0,0,0,.37.33.79.68,1.22,1.02.26.21.53.42.81.63.49.36.99.72,1.54,1.07.04.03.09.05.13.08.67.42,1.38.82,2.15,1.2.05.03.1.06.16.08.73.36,1.52.69,2.35,1.01.15.06.31.12.46.17.81.29,1.67.55,2.57.78.19.05.39.09.59.14.92.21,1.89.39,2.9.53.18.02.37.04.55.06,1.04.12,2.11.19,3.25.21.11,0,.23,0,.34,0,1.28,0,2.62-.05,4.03-.2.22-.02.33-.03.36-.03,0,0,0,0,0,0,0,0,0,0,0,0,0,0,0,0,0,0,0,0,0,0,0,0-.03,0-.11.02-.21.03-.02,0-.03,0-.05,0s-.03,0-.05,0c0,0-.01,0-.02,0,.25.19,4.01,3.08,7.68,5.9,1.91,1.47,3.79,2.92,5.14,3.96,0,0,.02.01.03.02.2.14.39.28.57.41.05.04.09.07.14.1.15.11.29.22.42.31.08.06.14.11.21.17.08.07.17.14.25.2.14.12.25.22.34.31.01,0,.03-.02.04-.03h0c-.5-.64-22.1-20.84-37.5-59.04Z"/>
  <path class="cls-2" d="M23.51,174.86c.26.21.53.42.81.63-.28-.21-.55-.42-.81-.63Z"/>
  <path class="cls-2" d="M28.3,177.92c-.05-.03-.1-.06-.16-.08.05.03.1.06.16.08Z"/>
  <path class="cls-2" d="M37.17,180.55c.18.02.37.04.55.06-.18-.02-.37-.03-.55-.06Z"/>
  <path class="cls-2" d="M41.31,180.82c-.11,0-.23,0-.34,0,.11,0,.23,0,.34,0Z"/>
  <path class="cls-2" d="M25.87,176.56s.09.05.13.08c-.04-.03-.09-.05-.13-.08Z"/>
  <path class="cls-2" d="M30.65,178.93c.15.06.3.12.46.17-.16-.06-.31-.12-.46-.17Z"/>
  <path class="cls-2" d="M33.68,179.88c.19.05.39.09.59.14-.2-.05-.39-.09-.59-.14Z"/>
  <path class="cls-2" d="M61.5,159.61c33.37-28.93,76.56-62.47,136.62-66.52-39.29-2.77-60.06,4.05-60.06,4.05l-44.74-25.6c-9.25,1.77-21.93,4.09-21.93,4.09l-5.85,18.58-22.43-.79-8.05,20.14c6.44,20.13,15.68,37.76,27.21,47.34l-.77-1.29Z"/>
  <path class="cls-2" d="M60.13,192.02c-.09-.09-.2-.2-.34-.31-.07-.06-.16-.13-.25-.2-.07-.06-.13-.11-.21-.17-.13-.1-.27-.2-.42-.31-.05-.03-.09-.07-.14-.1-.18-.13-.37-.27-.57-.41,0,0-.02-.01-.02-.02,1.19.92,1.96,1.52,1.95,1.52Z"/>
  <path class="cls-2" d="M45.38,180.64s.03,0,.05,0,.03,0,.05,0c.1-.01.18-.03.21-.03,0,0,0,0,0,0,0,0,0,0,0,0,0,0,0,0,0,0,0,0,0,0,0,0-.03,0-.13,0-.36.03,0,0,.01.01.02.02,0,0,.01,0,.02,0Z"/>
  <path class="cls-2" d="M18.25,170.13c-.03.09-.05.19-.08.29-.01.05-.02.09-.04.13-.01.06-.03.13-.05.19.06-.25.13-.49.18-.69,0,.03-.01.05-.02.08Z"/>
  <path class="cls-2" d="M18.49,169.36c-.03.09-.06.18-.1.29-.01.03-.02.07-.03.1-.02.08-.05.16-.08.25,0,0,0,0,0,0,.07-.25.14-.47.21-.65h0Z"/>
  <path class="cls-2" d="M17.89,171.53c-.01.06-.03.12-.04.17-.02.09-.04.18-.06.27.06-.28.12-.52.18-.77-.03.11-.05.21-.08.32Z"/>
  <path class="cls-2" d="M17.77,172.1c-.01.06-.03.13-.04.2-.03.14-.06.29-.09.44-.01.06-.02.13-.04.19-.01.06-.02.13-.03.2.07-.37.14-.73.2-1.06,0,.01,0,.03,0,.04Z"/>
  <path class="cls-2" d="M16.93,178.58c0,.1-.01.2-.02.31-.01.2-.02.41-.03.61,0,.1,0,.19-.01.29,0,.06,0,.12,0,.18.02-.6.04-1.18.08-1.75,0,.12-.02.24-.02.36Z"/>
  <path class="cls-2" d="M17.37,174.29c-.01.07-.02.14-.03.21-.01.07-.02.14-.03.21.05-.33.1-.64.15-.95-.03.18-.06.34-.09.52Z"/>
  <path class="cls-2" d="M16.98,177.71c0,.09-.01.17-.02.26,0,.03,0,.06,0,.09.03-.37.06-.73.09-1.08-.02.25-.05.48-.07.73Z"/>
  <path class="cls-2" d="M17.27,175.03c-.01.09-.02.17-.03.26-.02.18-.05.36-.07.55,0,.08-.02.16-.03.24,0,.05,0,.11-.02.16.05-.48.11-.94.17-1.38,0,.06-.02.12-.03.18Z"/>
  <path class="cls-2" d="M79.55,225.58s.18.04.53.1c78.02-62.16,255.88-81.23,255.88-81.23l32.05,35.1s19.67-4.8,30.99-16.63c1.87-6.65,2.05-12.52,1.61-17.37-2.99,14.74-27.79,21.92-27.79,21.92l-25.26-28.82,16.39-9.43,12.87-7.09c-159.54-1.87-283.89,71.9-293.62,77.82-.77,6.87-1.93,15.29-3.66,25.64Z"/>
  <path class="cls-1" d="M65.54,94.21l5.85-18.58s12.67-2.32,21.93-4.09l-.86-.49-23.89-13.67-43.11-24.67c-2.62,22.64,1,53.98,9.59,80.85l8.05-20.14,22.43.79Z"/>
  <path class="cls-4" d="M60.17,191.99s-.03.02-.04.03c0,0-.76-.61-1.95-1.52,0,0,.02.01.02.02,0,0-.02-.01-.03-.02-1.35-1.04-3.23-2.49-5.14-3.96-3.67-2.82-7.44-5.71-7.68-5.9,0,0,.01,0,.02,0,0,0-.01,0-.02,0,0,0-.02-.02-.02-.02-1.41.15-2.74.2-4.03.2-.12,0-.23,0-.34,0-1.13-.02-2.21-.09-3.25-.21-.18-.02-.37-.03-.55-.06-1.02-.13-1.98-.31-2.9-.53-.2-.05-.39-.09-.59-.14-.9-.23-1.76-.49-2.57-.78-.16-.06-.31-.12-.46-.17-.82-.31-1.62-.65-2.35-1.01-.05-.03-.1-.06-.16-.08-.76-.38-1.48-.79-2.15-1.2-.04-.03-.09-.05-.13-.08-.55-.35-1.05-.71-1.54-1.07-.28-.21-.55-.42-.81-.63-.42-.34-.85-.68-1.22-1.02,0,0,0,0,0,0-.08-.07-.16-.14-.23-.22-.16-.15-.32-.3-.47-.45-.06-.06-.13-.12-.19-.18-.41-.41-.78-.81-1.1-1.18-.05-.06-.09-.11-.14-.17-.11-.13-.21-.25-.31-.37-.05-.06-.09-.12-.14-.17-.09-.12-.18-.23-.26-.33-.03-.05-.07-.09-.1-.14-.22-.29-.39-.54-.52-.74-.02-.03-.04-.06-.06-.09-.04-.06-.08-.12-.11-.17-.02-.02-.03-.05-.04-.07-.03-.04-.05-.08-.07-.11,0,0-.01-.02-.02-.03-.02-.03-.03-.05-.03-.05h0,0c-.06.18-.13.4-.21.65,0,.01,0,.03-.01.04-.06.2-.12.44-.18.69-.04.15-.08.3-.11.47-.06.24-.12.49-.18.77,0,.03-.01.06-.02.09-.07.33-.14.69-.2,1.06-.04.21-.07.42-.11.64-.05.31-.1.62-.15.95,0,.05-.01.09-.02.14-.06.44-.12.91-.17,1.38-.03.24-.05.49-.07.74-.03.36-.07.71-.09,1.08,0,.05,0,.11-.01.16-.04.57-.07,1.15-.08,1.75,0,.23-.01.46-.01.7,0,0,0,.02,0,.02h0c0,.58,0,1.17.02,1.77,0,.05,0,.1,0,.15.02.56.06,1.12.1,1.69,0,.06.01.13.02.19.05.57.11,1.14.19,1.72,0,.05.01.1.02.15.09.62.19,1.24.32,1.86,0,0,0,0,0,0,.13.62.27,1.24.44,1.85.01.05.03.1.04.15.16.57.34,1.14.54,1.71.02.06.04.12.07.18.21.56.43,1.12.68,1.67.02.05.04.09.06.14.52,1.13,1.13,2.22,1.86,3.26,0,0,0,0,0,0,.34.49.71.97,1.11,1.44,0,0,0,0,0,.01,0,0,.02.02.02.03.24.28.48.55.74.81.08.08.16.17.24.25.21.21.42.41.63.61.08.07.15.14.23.22.29.26.59.51.9.75.06.05.13.1.19.14.26.2.53.39.8.58.1.07.21.14.31.21.28.19.57.37.87.54.07.04.14.09.21.13.37.21.74.41,1.13.6.1.05.21.1.31.15.31.15.62.29.94.42.12.05.25.1.37.15.42.17.85.33,1.3.48,0,0,.02,0,.03,0,.45.15.91.29,1.39.42.14.04.28.07.42.11.37.1.76.19,1.15.27.13.03.26.06.4.09.06.01.12.03.19.04.45.09.92.17,1.39.24.1.02.21.03.31.04.45.06.91.12,1.38.17.17.02.34.03.52.05.48.04.97.08,1.47.1.12,0,.23.01.34.02.61.03,1.23.04,1.87.04.17,0,.34,0,.5,0,.5,0,1.02-.02,1.54-.04.19,0,.39-.01.59-.02.69-.03,1.38-.08,2.1-.14-4.52,10.91,8.22,18.77,8.22,18.77,0,0-1.09-18.35,11.53-22,1.23,14.06-8.77,40.18-9.39,41.8-.02.05-.03.08-.03.08,1-.03,1.97-.08,2.91-.14,6.56-.41,11.56-1.39,15.21-2.52.43,11.3-4.89,30.63-11.66,47.63,0,0,52.83-6.79,92.87-35.91l-5.56,26.45s56.61-29.31,142.86.7c0,0-6.72-16.49-.98-30,65.15,13.81,63.38-15.64,67.26-30.71,0,0,93.04-46.07,35.72-110.3,0,0-30.29-.46-87.03,3.5,0,0-44.78-25.06-105.1-30.76,19.14,1.09,47.17,4.62,54.24,6.27,3.04-26.72-18.28-59.02-18.28-59.02-26.97,27.72-58.18,46.09-68.06,51.16-8.07-.13-18.61,1.15-27.91,3.19L10.86,11.52c-.6,3.63-1.12,7.21-1.56,10.74-.04.35-.08.7-.12,1.05-.35,2.94-.65,5.85-.9,8.72-.27,3.15-.47,6.26-.61,9.33-.02.48-.05.96-.07,1.44-.12,2.85-.17,5.66-.18,8.43,0,.45-.01.91-.01,1.36,0,.54.01,1.06.02,1.6,0,1.06.01,2.13.03,3.19,0,.19.01.38.02.57.03,1.38.07,2.76.13,4.13.11,2.55.26,5.05.45,7.53.04.54.07,1.09.12,1.63.07.82.15,1.63.23,2.44.06.67.12,1.35.19,2.02.07.71.16,1.42.24,2.12.08.75.16,1.51.26,2.26.09.73.19,1.45.29,2.17.09.71.18,1.42.28,2.12.09.6.18,1.19.27,1.78.12.81.24,1.63.37,2.44.02.14.05.28.07.43.44,2.64.91,5.23,1.43,7.77.03.12.05.24.08.36.25,1.21.51,2.42.77,3.61.06.25.12.5.18.75.24,1.05.48,2.1.74,3.14.11.43.22.86.33,1.29.21.84.42,1.69.64,2.52.1.39.21.77.32,1.16.23.86.46,1.72.7,2.57.04.13.08.26.12.4.66,2.32,1.35,4.59,2.07,6.81.04.13.09.26.13.39.72,2.21,1.46,4.38,2.23,6.49.01.04.03.08.04.11.8,2.2,1.62,4.34,2.46,6.43.02.04.03.08.05.12,15.41,38.2,37,58.4,37.5,59.04h0ZM376.83,122.11l-12.87,7.09-16.39,9.43,25.26,28.82s24.8-7.17,27.79-21.92c.44,4.85.26,10.72-1.61,17.37-1.6,5.7-4.45,11.97-9.21,18.67-7.82,12.16-25.83,24.63-25.83,24.63l5.37-17.24c5.32-1.6,10.78-3.37,12.22-3.84-11.62-.64-28.82-1.01-48.75,0-5.25,9.58-18.03,19.73-18.03,19.73l3.42-18.76c-32.36,2.64-69.56,9.14-101.28,23.53l-.56.58c44.87-15.76,102.39,13.68,102.39,13.68l8.78-12.19-.12,14.44c11.98.57,12.75.53,12.75.53l8.52-10.49s3.23,36.53-35.57,29.41l-29.81-4-2.64,17.84c-46.01-17.81-106.91-5.59-106.91-5.59,0,0,11.6-30.74,13.47-44.48-44.99,45.67-104.82,63.93-104.82,63.93,11.57-21.1,14.06-37.85,14.29-47.47-9.69.76-15,.12-16.6-.14-.35-.06-.53-.1-.53-.1,1.72-10.35,2.88-18.78,3.66-25.64,9.72-5.92,134.08-79.69,293.62-77.82ZM240.13,112.23s5.7,11.99-24.27,17.53c-21.46,3.21-35.05-6.55-41.55-11.5l-21.25,3.83c55.72-23.73,87.07-9.86,87.07-9.86ZM35.05,113.56c-8.6-26.87-12.21-58.21-9.59-80.85l43.11,24.67,23.89,13.67.86.49,44.74,25.6s20.76-6.82,60.06-4.05c-60.06,4.05-103.25,37.59-136.62,66.52l.77,1.29c-11.53-9.58-20.77-27.21-27.21-47.34Z"/>
  <path class="cls-1" d="M335.97,144.44s-177.87,19.07-255.88,81.23c1.6.26,6.91.89,16.6.14-.23,9.62-2.71,26.37-14.29,47.47,0,0,59.83-18.26,104.82-63.93-1.87,13.74-13.47,44.48-13.47,44.48,0,0,60.9-12.22,106.91,5.59l2.64-17.84,29.81,4c38.8,7.11,35.57-29.41,35.57-29.41l-8.52,10.49s-.76.04-12.75-.53l.12-14.44-8.78,12.19s-57.52-29.44-102.39-13.68l.56-.58c31.72-14.39,68.92-20.89,101.28-23.53l-3.42,18.76s12.78-10.15,18.03-19.73c19.93-1,37.13-.63,48.75,0-1.44.47-6.9,2.24-12.22,3.84l-5.37,17.24s18.01-12.47,25.83-24.63c4.76-6.7,7.6-12.97,9.21-18.67-11.33,11.83-30.99,16.63-30.99,16.63l-32.05-35.1ZM319.2,150.63l.71,6.88-57.4,3.58s54.56-10.21,56.69-10.46ZM299.13,164.14l.71,6.91-57.4,3.54s54.56-10.21,56.69-10.46ZM265.7,182.75s54.56-10.21,56.69-10.46l.71,6.89-57.4,3.56Z"/>
  <path class="cls-2" d="M174.31,118.27c6.5,4.95,20.09,14.7,41.55,11.5,29.96-5.54,24.27-17.53,24.27-17.53,0,0-31.35-13.87-87.07,9.86l21.25-3.83ZM185.77,115.14l45.74,1.68s-5.73,4.77-13.63,7.58c0,0,0,0,0,0,0,0,0,0,0,0,0,.01,0,.01,0,0-.08.05-3.85,2.05-10.04,1.99h0c-1.86.04-3.75-.1-5.65-.49-17.49-3.66-16.42-10.75-16.42-10.75Z"/>
  <path class="cls-1" d="M202.19,125.89c1.9.4,3.79.54,5.65.49l-5.72-10.64,15,.55s.67,7.86.76,8.11c7.9-2.8,13.63-7.58,13.63-7.58l-45.74-1.68s-1.07,7.09,16.42,10.75Z"/>
  <path class="cls-3" d="M217.89,124.39s0,.01,0,0"/>
  <path class="cls-4" d="M202.12,115.74l5.72,10.64h0c6.2.07,9.96-1.93,10.04-1.98,0,0,0,0,0,0-.09-.25-.76-8.11-.76-8.11l-15-.55Z"/>
  <path class="cls-4" d="M299.13,164.14c-2.13.24-56.69,10.46-56.69,10.46l57.4-3.54-.71-6.91Z"/>
  <path class="cls-4" d="M265.7,182.75l57.4-3.56-.71-6.89c-2.13.24-56.69,10.46-56.69,10.46Z"/>
  <path class="cls-4" d="M319.2,150.63c-2.13.24-56.69,10.46-56.69,10.46l57.4-3.58-.71-6.88Z"/>
</svg>