<?xml version="1.0" encoding="UTF-8"?>
<svg id="Layer_1" data-name="Layer 1" xmlns="http://www.w3.org/2000/svg" width="7.08in" height="6.53in" viewBox="0 0 509.9 470.35">
  <defs>
    <style>
      .cls-1 {
        fill: #000;
      }

      .cls-1, .cls-2, .cls-3 {
        stroke-width: 0px;
      }

      .cls-2 {
        fill: #fff;
      }

      .cls-3 {
        fill: #00afaa;
      }
    </style>
  </defs>
  <path class="cls-3" d="M497.34,194.2l-22.71-51.35c9.3-6.66,22.49-18.38,27.65-34.01,4.49-13.6-1.04-38.51-12.86-57.95-9.24-15.19-26.45-34.29-55.99-39.09-18.62-3.56-42.29,8.16-53.86,15.38-42.42-32.16-69.53-32.78-123.15-16.47-53.57-16.32-82.56-16.18-125.04,16-11.57-7.22-33.35-18.47-51.98-14.91-29.54,4.8-46.75,23.9-55.99,39.09-11.83,19.44-17.36,44.36-12.86,57.95,5.21,15.75,19.26,27.5,29.22,34.17l-24.05,50.7c-16.78,29.87-20.16,60.32-10.04,90.5,13.18,39.32,49.68,78.04,108.49,115.1,47.13,29.7,96.81,51.23,126.49,64.09,4.05,1.75,7.67,3.32,10.78,4.7l5.07,2.24,5.04-2.33c3.7-1.71,7.97-3.64,12.71-5.78,29.33-13.26,78.42-35.44,123.57-64.74,55.82-36.22,91.18-74.12,105.11-112.63,10.86-30.03,8.97-60.54-5.62-90.67Z"/>
  <path class="cls-2" d="M252.8,445.47c-61.68-28.33-190.02-87.3-218.43-166.49-9.04-25.2-7.35-49.98,5.15-75.77l31.89-69.59-8.29-3.59c-7.57-3.29-28.17-14.72-32.5-27.83-1.6-4.85.37-21.47,10-37.31,6.94-11.4,19.91-25.75,42.34-29.34l.16-.03.16-.03c.98-.19,2.06-.29,3.21-.29,13.87,0,33.44,13.68,39.81,18.95l5.58,4.62,5.63-4.56c28.86-23.43,46.08-31.34,68.25-31.34,12.84,0,28.14,2.9,48.13,9.14l2.63.82,2.63-.82c20.04-6.24,35.34-9.15,48.14-9.15,21.92,0,39.77,8.2,68.24,31.34l5.64,4.58,5.59-4.64c6.36-5.27,25.93-18.94,39.8-18.94,1.15,0,2.23.1,3.21.29l.16.03.16.03c22.43,3.59,35.41,17.93,42.34,29.34,9.64,15.84,11.61,32.46,10,37.31-4.34,13.12-25.45,24.78-32.51,27.83l-8.29,3.59,31.89,69.59c12.5,25.79,14.18,50.57,5.15,75.77-28.4,79.19-156.75,138.15-218.43,166.49-1.27.58-2.51,1.15-3.73,1.71-1.22-.56-2.46-1.13-3.73-1.71Z"/>
  <g>
    <path class="cls-3" d="M48.74,94.02c-2.13-13.12,4.21-36.75,7.09-39.85-45.96,31.26-30.51,55.85,22.67,76.13,0,0-27.08-20.61-29.76-36.28Z"/>
    <path class="cls-3" d="M190.18,301.29c9.18,21.08,37.4,20.16,50.84,3.66,0-.02,0-.03-.01-.05.57-1.45,1.02-2.77,1.41-4.2-8.34,7.52-19.65,8.71-32.91,6.83-26.3-7.82-44.91-81.48-44.91-81.38,2.66,26.06,7.49,43.84,25.59,75.14Z"/>
  </g>
  <g>
    <path class="cls-3" d="M103.67,303.7c-24.56-25.29-40.47-55.2-39.14-85.63,1.8-44.39,13.96-87.78,13.96-87.78-39.58,87.08-70.72,134.57,26.15,211.46,1.03-9.45,5.11-19.25,9.5-27.9-3.65-3.31-7.15-6.7-10.48-10.15Z"/>
    <path class="cls-2" d="M160.28,133.38c-8.64,2.35-8.3,12.06.08,14.41-1.29-4.61-2.6-9.33-.08-14.41Z"/>
  </g>
  <g>
    <path class="cls-3" d="M256.42,387.75c-44.6-11.34-91.74-33.46-128.14-61.99.25,13.98,2.84,27.85,7.73,38.15,34.63,22.17,76.13,42.39,120.31,60.01v.08s.07-.03.1-.04c.03.01.07.03.1.04v-.08c44.18-17.62,85.68-37.84,120.31-60.01,4.89-10.32,7.47-24.14,7.73-38.15-36.4,28.54-83.54,50.66-128.14,61.99Z"/>
    <path class="cls-3" d="M266.13,325.71c-3.24-1.3-6.28-2.56-9.6-3.31v-.05s-.07.02-.1.03c-.04,0-.07-.02-.1-.03v.05c-12.65,3.46-18.52,8.84-35.41,9.32,20.88,8.65,50.16,8.65,71.03,0-11.93-.38-19.28-3.36-25.81-6.01Z"/>
    <path class="cls-3" d="M464.11,94.02c2.13-13.12-4.86-34.76-6.14-38.79,37.83,36.97,26.92,52.87-23.62,75.07,0,0,27.08-20.61,29.76-36.28Z"/>
    <path class="cls-3" d="M322.66,301.29c-9.18,21.08-37.4,20.16-50.84,3.66,0-.02,0-.03.01-.05-.57-1.45-1.02-2.77-1.41-4.2,8.34,7.52,19.65,8.71,32.91,6.83,26.3-7.82,44.91-81.38,44.91-81.38-2.66,26.06-7.49,43.84-25.59,75.14Z"/>
  </g>
  <g>
    <path class="cls-1" d="M95.47,84.14l5.77,19.45,14.04-21.51c-9.34-12.66-21.44-18.09-36.74-18.28l7.4,9.87s-25.21-2.69-25.29,14.1c-.08,16.79,30.11,26.45,30.11,26.45l-12.15-20.78,14.18,2.99,2.69-12.29Z"/>
    <path class="cls-1" d="M210.41,118.69c-5.47-7.28-25.44-12.11-28.4-10.56,0,0,7.48,10.01,15.92,12.41,15.49,4.42,12.48-1.85,12.48-1.85Z"/>
    <path class="cls-1" d="M137.72,137.91c3.24,1.58,10,2.25,10,2.25,4.99,19.2,29.65,20.35,43.84,11.96-3.39,5.19-5.5,11.82-5.5,11.82,0,0,7-4.6,9.86-6.73,2.86-2.12,15.42-15.15,15.42-15.15,0,0-6.5.93-12.22,3.51-5.75-4.08-15.2-11.73-27.52-19.26-12.67-7.75-29.09,6.38-33.88,11.58ZM153.9,140.38c.21-5.56,6.37-6.99,6.37-6.99-2.53,5.1-1.18,9.87.08,14.41,0,0-6.66-1.85-6.46-7.42Z"/>
  </g>
  <g>
    <path class="cls-3" d="M409.17,303.7c24.56-25.29,40.39-55.19,39.14-85.63-1.83-44.51-13.96-87.78-13.96-87.78,39.58,87.08,70.72,134.57-26.15,211.46-1.03-9.45-5.11-19.25-9.5-27.9,3.65-3.31,7.15-6.7,10.48-10.15Z"/>
    <path class="cls-2" d="M352.57,133.38c8.64,2.35,8.3,12.06-.08,14.41,1.29-4.61,2.6-9.33.08-14.41Z"/>
    <path class="cls-2" d="M292.61,234.87c-12.64-12.76-20.92-1.77-36.09-4.07v-.02c-15.07,2.35-26.11-9.35-37.27,5.66,0,0,18.33-2.62,31.68-2.11,1.59.06,9.38.06,10.97,0,13.32-.51,31.72,2.11,31.68,2.11,0,0-.29-.61-.97-1.57Z"/>
  </g>
  <path class="cls-1" d="M417.37,84.14l-5.77,19.45-14.04-21.51c9.34-12.66,21.44-18.09,36.74-18.28l-7.4,9.87s25.21-2.69,25.29,14.1c.08,16.79-30.11,26.45-30.11,26.45l12.15-20.78-14.18,2.99-2.69-12.29Z"/>
  <path class="cls-1" d="M302.44,118.69c5.47-7.28,25.44-12.11,28.4-10.56,0,0-7.48,10.01-15.92,12.41-15.49,4.42-12.48-1.85-12.48-1.85Z"/>
  <path class="cls-1" d="M341.24,126.33c-12.32,7.53-21.76,15.17-27.52,19.26-5.72-2.58-12.22-3.51-12.22-3.51,0,0,12.56,13.02,15.42,15.15,2.86,2.12,9.86,6.73,9.86,6.73,0,0-2.11-6.63-5.5-11.82,14.26,8.41,38.87,7.19,43.84-11.96,0,0,6.76-.67,10-2.25-4.79-5.2-21.21-19.33-33.88-11.58ZM352.48,147.79c1.29-4.61,2.6-9.33.08-14.41,8.64,2.35,8.3,12.06-.08,14.41Z"/>
  <path class="cls-1" d="M349.18,202.18c-.16,34.22-3.93,61.5-26.52,99.11-9.17,21.07-37.41,20.16-50.84,3.66,0-.02,0-.03.01-.05-11.01-26.68,19.16-15.75,24.28-26.91.12-.37,23.58-36.71,3.84-54.45-12.52-9.7-22.88-5.54-38.6-5.77-.85-.01-9.02-.01-9.87,0-15.72.22-26.08-3.93-38.6,5.77-19.73,17.74,3.72,54.08,3.84,54.45,5.08,11.13,35.31.26,24.28,26.91,0,.02,0,.03.01.05-13.44,16.5-41.66,17.42-50.84-3.66-22.58-37.57-26.38-64.94-26.52-99.11-14.41,42.17.31,81.14,19.26,113.91,1.02,5.18,26.41,34.08,73.39,34.79h0c.05,0,.16,0,.21,0h0c47.04-.69,72.49-29.75,73.39-34.79,18.95-32.76,33.67-71.75,19.26-113.91ZM219.26,236.44c10.41-13.18,17.64-5.92,31.64-5.4,1.91.07,8.49.03,10.43.02,14.1-.29,21.79-8,32.26,5.38,0,0-18.33-2.62-31.68-2.11-1.59.06-9.38.06-10.97,0-13.32-.51-31.72,2.11-31.68,2.11ZM266.66,337.76c-3.21.32-6.74.63-10.13.61h0c-.07,0-.14,0-.21-.01h0c-11.79.07-26.44-2.96-35.41-6.64,16.93-.48,22.81-5.9,35.52-9.35,12.71,3.45,18.58,8.86,35.52,9.35-6.77,2.64-15.23,4.96-25.28,6.04Z"/>
  <path class="cls-1" d="M486.2,199.36l-27.06-61.2s24.94-13.33,31.49-33.17c4.96-15.02-9.51-73.13-59.34-81.1-20.72-4.11-50.38,17.99-50.38,17.99-42.6-34.6-66.87-36.26-124.49-18.33-57.92-18.06-82.14-16.03-124.49,18.33,0,0-29.66-22.1-50.38-17.99C31.72,31.86,17.25,89.97,22.21,104.98c6.56,19.84,33.46,33.17,33.46,33.17l-29.03,61.2c-75.69,133.8,169.7,230.97,229.78,257.51,63.69-29.41,294.82-123.72,229.78-257.51ZM408.19,341.75c-1-16.84-19.56-46.66-27.64-56.72,5.16,25.66,6.76,56.23-3.72,78.88-34.65,22.19-76.2,42.42-120.41,60.06-44.21-17.63-85.76-37.87-120.41-60.06-10.49-22.67-8.88-53.2-3.72-78.88-8.14,10.16-26.6,39.78-27.64,56.72-98.26-79.09-63.96-122.56-26.15-211.46-50.41-23.44-53.62-36.32-23.76-74.9h0c6.95-8.15,17.23-14.03,32.17-14.44,17.12-1.53,43.38,23.66,43.38,23.66,0,0,5.1-3.38,12.57-7.98,58.51-33.66,91.03-2.01,91.03-2.01-1.71-8.34-10.83-16.62-22.26-22,12.49,1.99,25.8,6.23,34.58,9.37-.44-4.65-1.02-8.83-1.78-10.82,0,0,5.81,1.78,11.89,5.57l.1.06.1-.06c6.08-3.79,11.89-5.57,11.89-5.57-.76,1.99-1.34,6.18-1.78,10.82,8.78-3.13,22.09-7.38,34.58-9.37-11.43,5.38-20.55,13.65-22.26,22,10.86-10.7,49.4-27.93,103.6,9.99,0,0,26.27-25.19,43.38-23.66,14.94.42,25.23,6.3,32.17,14.44h0c29.98,38.67,26.46,51.54-23.76,74.9,37.86,88.93,72.03,132.46-26.15,211.46Z"/>
</svg>